<mxfile host="app.diagrams.net" agent="Mozilla/5.0 (Windows NT 10.0; Win64; x64) AppleWebKit/537.36 (KHTML, like Gecko) Chrome/129.0.0.0 Safari/537.36" version="24.7.17">
  <diagram name="Page-1" id="DDus2OiJKg0PlGUvICE4">
    <mxGraphModel dx="2109" dy="1786" grid="1" gridSize="10" guides="1" tooltips="1" connect="1" arrows="1" fold="1" page="1" pageScale="1" pageWidth="850" pageHeight="1100" math="0" shadow="0">
      <root>
        <mxCell id="0" />
        <mxCell id="1" parent="0" />
        <mxCell id="io2R__9q3RlM0f0uN4B4-1" value="" style="shape=image;verticalLabelPosition=bottom;labelBackgroundColor=default;verticalAlign=top;aspect=fixed;imageAspect=0;image=data:image/jpeg,/9j/4AAQSkZJRgABAQAAAQABAAD/2wBDAAgGBgcGBQgHBwcJCQgKDBQNDAsLDBkSEw8UHRofHh0aHBwgJC4nICIsIxwcKDcpLDAxNDQ0Hyc5PTgyPC4zNDL/2wBDAQkJCQwLDBgNDRgyIRwhMjIyMjIyMjIyMjIyMjIyMjIyMjIyMjIyMjIyMjIyMjIyMjIyMjIyMjIyMjIyMjIyMjL/wgARCALNBQADASIAAhEBAxEB/8QAGgABAAMBAQEAAAAAAAAAAAAAAAECAwQFBv/EABgBAQEBAQEAAAAAAAAAAAAAAAABAgME/9oADAMBAAIQAxAAAAL58AkhZJVYVWFXZFvI6xyOscjrHI6xyOscjrHI6xyOscjrHI6xyOscjrHI6xyOscjrHI6xyOscjrHI6xyOscjrHI6xyOscjrHI6xyOscjrHI6xyOscjrHI6xyOscjrHI6xyOscjrHI6xyOscjrHI6xyOscjrHI6xyOscjrHI6xyOscjrHI6xyOscjrHI6xyOscjrHI6xyOscjrHI6xyOscjrHI6xyOscjrHI6xyOscjrHI6xyOscjrHI6xyOscjrHI6OcAAaZ6SbG3LOLoquNq2s+xHbQAAAIAAAAAAAAAAAAAAAEAAAAAAAAAAoWImFmJECAAAAAAAAAAAAAAAAAAACBKAAAARKggAqWUuoAAAUAAEBQHm/LfU/LQAA0z0k6e7j7+U2jg604cunnX7Ad65erjk06K2POznNe2eHA9Lly6hbztj0Z4aHVr4npm+NB6osAAAACAoAAAAIAAAAAAABQoBEggBAAAAAAAAAAAAAAAADl6uI234e4UvyGWufZy3YdcUyzyj0UTVeXs8yNujm7sbDpgCvH2fPL6Xb8z9AW5u+DijuscEeiOPH0h5s+jBxz1yBQAHm/LfU/LQAA0z0k6eri05T1M+GhplWyfYjvoAACJJIkISIkK2CEgKAAAAACAoAAIAIEoEoEoEoEoEoLKAmBKFABAAAAAAAAAAAAUAQiUCUCUCUCt4EkGesABWwAZ6DPQAAHleqrxPX0EU0S0tIAAAACggDzflvqflgABpnpJsOeQFq2PsR20mLRCRCRCRCRCRCRCRCRCRCRCRCRCRCRCREWghBLJLCRCRCRCRCRCRCRCRCRCRCRCRCRCRCRWJgWrchIhIhIhIhIhIhIhIhJYSISISISISISIreiQC6SwkQkQkQkQkQkQkQkVi1JLSm2EiEiEiEiIsM0wABXm/LfU/LQAA0z0k2HPIC1bH2I7ai9Lwz04Mu23FodLkavWwqdLmg6nJY6XJqbAAAMeTGenPXWOXa+B1PP7tWw1UTCVCXDWE8NeOPWZZ9t9Lmk6HPc1AAAAAAhnm3tlcsNQACsTCL0uRjfzOc9LXzO2tnNO9dDmubOW5u5h0stQAAZyaYcNeHTrjlcu/dv5U7x6zm6fRxDUUvRIBoFAAAAAAAArWMU6py1UAAAAQUAAFeb8t9T8tAADTPSTYjnmX0Hl28dq2k+xHbUXpeHN0ox2CErUSIrcQkQkAAMtfPxJ7yg1QI4PQzxm88fZaiY0qEuGuCe5jMJb1lewpNgAABCRCREWFeD0eDj0r38Hoyh35AAViYRelyvD6DLj65EU0atJsKLjJqIkAAK+VvzcOc921tblW+9Ycfpxjfk9/HHn7eqifZ5VL0sgGhWWzPRAtAAAAAVtjI59efE6tee2r0K2tChnJbKdox1lWYtACvN+W+p+WgABpnpJsOeerCgWrY+xHbUXpeHlermvjdOGca9nJ1me3ndh6IoAAACOLqw5561cNW1qpLThEdlJtu+R69bZiJjdqEuGjz9DsY7AA4zscXYSAAAAUi/B18nLpHoef2y3Uv25BQFYmEXpceJ7fzUvoXw9I4HNU97yc/KPshQAAAiPI6K9fHnuO/Tk68q8t7jrjl4vU4vL36d8du/FS9N5gGgXKNmZhvGRsNUzpmTe+Zoy1oLYyjfMy830/PzOrq5+jVxtpkasYJteQNUDMAAHm/LfU/LAADTPSTYc8l6C1bH2I7ai9Lw8v1C5+V7I8D29B5vF76AoAAACOPt4Oee8dNRW6SqwC2JiREwlQlw14+3pAAB5XqjyPVsAAGemea0zsWpMEcnXycukdvF2xGmenbmGoBWJhF6XHzf0kL8/P0CPDt7Q+f09wBQAAGEceUehr5vKe3r5/oUiUMdvIr068OEey8X0a66XokA0CgKXSYN0UuUFuG8Y5m8Tz1bYKcXdzRpvlrQWgAAAUiYAAPN+W+p+WAAGmekm0S557+WciLVsfYjtqL0vAzjRjoWYRHQ5tDVTLV6HPJu5ti4AGWtZMejPQC0BFYNESImEqEuGso1iKTYWRIpfEmKs6tNLGljeWelM2EpQI5Ozl57p28nWRJ0xF6ktOempWJixelwjGa3Y3LuXOa7nJ1WSLkAADKZqLRU0tlBsBzdNDKNLlbWCl6JANAoAAAACJRjpYgWxltEVuUAAAABSJgAA835b6n5YAAaZ6SbDnkBatj7EddRelwFAAAAAAAARIpcAAKxcRIImEqEuGgAAAAAAAAAAAAAAKxMIvS4CgAAAAAAUrpGLRctNa2sDUZ6RJjOiM5uLUvTSAaUuWtgApGgAUuM9AAUuIkAM5uAFLilwApEwAAeb8t9T8sAANM9JNhzz38u/PbnatpPsR1qYLKosqLKiyosqLKiyosqLKiyosqLKiyosqLKi0RIiSSqWyosqLKiyosqLKiyosqLKwXUF1BdQXUF1BdSQBaosoLqC6guoLqC6guoLqC6guoLqC6guoLqC6gvQALTSDRmNGY0ZjRmNGY0Zi6guoLqC6hbqC6guoLqC6gkAUEeb8t9T8sAANM9JNhzyAtWx9iOtErCwqsKrCqwqsKrCqwqsKrCqwqsKrCqwqsKxcVWFVoIi4osKrCq0lJmAEhYtVhVYVWFVhVYVWFVhVYVWFVhVYVWFVhVYVWFVhWLii4ouKLik2ggELSUXFFxRcUXFFxRcUXFFxRcUXFFxRcUXFFxRcUXFFy0XFFxRcUXFAAAeb8t9T8sAANM9JNhzzrn3c5hatj7EdatS6lcl3Z6BS4AUSXUF1bAWgAAAAAAAECUCVZJQJRIraiSiUsc7XQpcAFC7LUAAFJLqC6klhaAAAAAAIJQJQJQJiYSgLzEqcnWFLgoXRBYApJdQXUksLQAAAAAACBKBKBKBKJKRMAIB5vy31PyygANM9JNhzzaoLVsfYjrYvS6vB96F8S3s1jzOzpVMSjgdrOfPr6Q5O2J1QtAAAAAAAAjLUc2mo53QKxcJiRS9ETEpbzfSq15/P7GMeZHtQeby+9U8jo9GtePf1kc3WVHB6Fczip6CTztuuSSNalAlEgUAABCYOeOkYbSK2CYmEoC8TK+NPqzHm83uVryKe2jzuX2prm6wjh765nFT0Enna9kkjegAAAAAAIx2HPO4wvoKXBIUiYQADzflvqfllAAaZ6SbDnmJ9TkOa1bH2I62L0uoyXVWwAAAAAAAAAAAAAAAAAAApeiJiUsQ1KtgAAAAAABjtlm+bKfD65WrZTbHY9Ee/wAgAAAAAACJhKAvMSpnoAAAAAAAAAAAEIlE0AAAAAABSJhAAPN+W+p+WUABpnpJsOeejKgWrY+xHWxel1FFurYAAAAAAAAAAAAAAAAAAAUvRExKWz0NZagRMBQAAAAAARlpy743oOmAAAAAAAAETCUBeYlYnPQIRKBKBKBKBKBKBKBKBKBKCQrEt7Z3skWgAAAAAUiYQADzflvqfllAAaZ6SbDnkBatj7EdbF6XUVWyJAAAAAAAAAAAAAAABBLO8ki0pMlqXpSYlLGbWjn6CnL1cHG+jNY6LomwKAAAARNI4N8dvL6Oi8V9PC41AAEOPGu1nNl0TYFAImEoC8xK1tS4AAAAAAAAAAiYjLDTz+WfS25erdkbozjQUAAABSJhAAPN+W+p+WUABpnpJsOeQFq2PsR1sXpdUTRbokAAAAAAERIoAokuoLqQaUXKLiqYIXCti0XJEiqXpYmJSwaAy8v1PL4c/ZHfpWLoM+fGuwdMgAAVmLR5+uWvm79Y9PCl2cuiIstReWvl+t43PHqa47dLWLrc8Onk53tHWImEoC8xK1tWwAAAAAIiVEU2x2UNQBExHLw9/Bwx3dGGvTWo6VhfPDa2WugUAABSJhAAPN+W+p+WUABpnpJsOeQFq2PsR1sXpdUTCpiQAAAAQTWJkpNWN3Xbxm0AWgACIlEhWpoKAjn2vi0tLUUvSxMSlstTWG8SZeX6nl8Ofsjv0Ay4uvz+OPT0U6dLomwKUmc2Rqedtlr5e/WPVwVtWOPt8n1uVkdo8b2fG5Y9PbHbeg1cfM9Ty+HP2R36ImEoC8xJS9bKAAUmLCgKViMN62rqc/Vz65txsAiYjn8/0vN4Y9HbPbtqsU2mnP0c9zfWkrYaAAAUiYQADzflvqfllAAaZ6SbDnkBatj7EdbF6XVWxYkAAAAI4erPF2XVWswk3UW41AABETz6zLz7xoRz9PFJ1Xitt6zFkyAUpeiJiUsUauz0MvL9Ty+HP2R36AYef6Hn8Ofrjv0qtESyiW9ywK8/XHby9+sergpfOTyfZ8b2OWbDtt43s+Nyx6e2O29Bq5eX6fmcOfsjv0RMJQF5iTPSJUZxpReXISaqX0UvQimmeZvW1dMdc9spROqFKXpEeV7Hj8seppW/XXPtjvE8/RgaJhbjQViwoCkTCAAeb8t9T8sAoDTPSTYc83p6fKc1q2PsR1sXpdVLliQAAFInLHtza01yrUamcSzNBq8nTTTFlSK0UGWmPUK2rZF6XHD3cUnaNXm6eXqzQ1AFL0RMSlqXNZ6Bl5fqeXw5+yO/QDDz/Q8/hz9cd+gGdeevKegOtA8/XLXy9+sergpeknkez43s8syO23jez43LHp7Y7b0Grl5fqeXw5+yO/REwlAXmJMtRWemMl756GQi61Gl89CmembO9bVrHow3il6XtClL1i3jez43LHr2ieuubfHeJ5+jA0tFqral1Y3ple+emoFtImEJgJHmfLfU/LAKA0z0k2HPOmYLVsfYjrYvS6qXLWZrEzUWZZZu1rNTPTLWHP0c9nQLc4lmaDV5unm6cxnpm1oNTPTLXJS9LK65ajh7uKO0auemWuQpVxSl6ImJSxRq047GXl+p5fDn7I79AMPP9Dz+HP1x36AcNL04c/RHfoB5+uO3l79Y9XBS+cnk+z43scs2HbbxvZ8blj09sdt6DVy8v0/M4c/ZHfoiYSgLzEmWorHbHMtpnpWQjWl86aY7FM9M43ratY9GG8RTTFdlLVW9LjxvZ8blj17RPXXNvjvE8/RgaXraqxTWaZbZMzpnpQW0iYQkQDzflvqflgFAaZ6SbEc8y6szG1bH2I62L0uql4WKac2VehpDLXn1OgW83Tz9Ejn6Oc6BbnEszQavN08/RmMdueugW8++HRmKXpVdctRw93FHaNXm6efozGWuFbTE2qXoiYlLBoDLy/U8vhz9kd+gGHn+h5/Dn6479AOGl6cOfojv0A8/XLXy9+sergpeknkez43s8syO23jez43LHp7Y7b0Grl5fqeXw5+yO/REwlAXmJMtRWO2OZbTPSshGuemdV2x2imemZvW1ax6MN4jn6Oc6Ylbhvy9UPG9nxuePXtE9dc2+O8Tz9GBpetqwvTSL47ZE6Z6UFtImESAHmfLfU/LAKA0z0k2HPO1KBatj7EdbF6XVWxYi2UaSVEU0JKC9LilszUFZz1BmWtWwqqaFSumegrbIvYFItJYi2t89BS2ZqBS9ETEpYNZahXk7WYGqBnz9jMDVAwjoZgaoHNfZjQbyiUcXZKQNVx9jMpcoLa8vYzA1UTCUCXJXLUVS6SthaLSitoWtxK10CJi3PUkjPUBbjsSOHstESauWkpGWsCS3O1kil4IsAW0iYSQAeZ8t9T8sAoDTPSTYc8gLVsfYjrYvS6guWoMtREhSNABjsDDcAUmwAy1BjsAMtJDPRJWwtaaqRIx2ABS9ETEpYNAZ03FbABTPcAAYR0AADJqAFbDPQAHP0CtgAyjYAImEoEvMSoKpcVsFJsFLilwrFwrYZ6BFNABS4ZcnoDLSRneQpcRIZ2sGegrYAKRMJIAPM+W+p+WAUBpnpJsOeQFq2PsR1qYEqlsqLKiyosqLKiyosqSyosqLKiyosqLKiyosqLKiyosqLKiyotVIiRKosqWyosqLKiyosqLKiyosqLKC6guoLqC6guoLqC6guoLqC6gvFZASZrC3UF1BdQXUF1BdQXUF1BdQXUF1BdQXUF1BdQXUF1BdQXUF1BdQJiQADzPlvqvlQFAaZ6SbDnkBatj7EdaASWEiEiEiEiEiEkhIhIhIhIhIhIhIhIhIhIhIhIhIhIhMABIqsKrFqsKrCqwqsKrCqwqsKrCqwqsKrCqwqsKrCqwqsKrCqwqtBAQmVqsKrCi4ouKTYVWFJsKLii4ouKLii4ouKLii4ouKLii4ouKLii4qAADzflfqvlQFAaZ6SbDnkBatj7EdamJWTBdwAAAAESCCUJJQJFoAAAAABAlAlAlEitqoRKWDQAAAAAAAAAAAAAAAAAAACJhKhLTBZc3SoqWAAVsAFbBWwAKyWVFlbAWgAACCUCUCUCUSUCAAeb8r9V8qAoDTPSTYc8gLVsfYjrUxK18n2ar5l+/I5Y6kYc3rYnBb0ZPOduhxejlrTk665nFXtZnBPcq1jVC0AAAACMdhzW3giLgSK2qkTEpY8tr1Hk9B3PIseqxyOtx5noPNk9FEhnyZne4Ene83rt3GqAAAAABBmaMJNmWhKtiYmEqEtS8r5/J6mkvmxt1nn8/t5nl9HZoeS9Wpx006zz8PYqcmPp0PP9fHanB31zOCO9Jw+jW1oaoAACJgzz6Bz63FLgmJKBAAPN+V+q+VAUBpnpJsOeQFq2PsR1qYlZKrZEgAAAAAAAAAAAAAAAAAACtqpExKWy1NZZ9I5bdAynQccdo5I7BWwVz2SYR0Iw0vBLzGZ6by5PTeXc9EdNAAAQkVWFZkQkImEqEtMSoKAAAAAAAAAAAAAAAAAAABQIAB5vyv1XyoCgNM9JNhzyAtWx9iOtTEqz1LS4AAAAAAAAARDPM0srVhaAAAAAAAraqRMSlok1z6aAAAAAAABlrEnjbbV4YpesmNOq52SejoAAAAAAAiYSoS0xKguddaGdrBW0mc2GnN045nE3csYNxg3GDcZzqt5m6TBuMG4wbh2Yb9dhqgAAAUCAAeb8r9V8qAoDTPSTYc8gLVsfYjrUxKyc69DLUAAAK2kC0AAACvL1cuM9lbV1bC0AAAAAABW1UiYlLBo59DQAAAAAAAAHFbG/HHcO2wAAAAABjJsrZUTFlQlpiVBQABgbuexscknW8lzz6zyR6zyR6zytLfReVEnrPJHrPJHrPJ9HV1G9AAAAAAUCAAeb8r9V8qAoDTPSTYc8gLVsfYpjrUxKyFAAAApel5AtAAAArydfHzz0aYbulh0yraklxaAAAAAraqRMSlg0A5+jmzN7VtQWgAAAAAefatuHPuHfoAAAIiVLoFrm6ebM2vS9ImKqEtMSoKAABWZDPRJzuhHNPQOeOkc7oHPHSOd0DmnoHPvKgtAAAAAAoEAA835X6r5UBQGmekmw55AWrY+yiY61MSs8/RC00Cl89JAtAz0zvlI0AFJLi0CvH2cfOadGG7dh0ypekk2z0VS9C4ApE0kuLVbVSJiUsGs7RJbl6ubM2vW1BaUyzOgaoAAAHnXrbhz7h36AAAM9M5M+jn6IDVc3TzZm16XpExVQlpiVBQAHN0jkt0hx9lMzyXqOWPLeoOCnpLfLeok8vr6b6th12AAAAAAAABQIAB5vyv1XyoCgNM9JNhzyAtWx9lEx1qYlZM10VsZaZa5SNAM7UvlYaFbQpaqXFoFePs4+c135+huw6ZUvSSNM9JVL0q4DPRFL0F89JVbV1ImJSwaEE83TzZm9q2oLaZa5Yz0DegAAAPPtW3Dn3Dv0AAAZ6ZyZ9HP0QGq5unmzNr0vSJiqhLTEqCgDA3csnS5LnRS/HmbvLcseo8zW3ueZEnqaeP6OtdA66AAAAAAAAAAomEAA835X6r5UBQGmekmw55AWrY+yiY61MSs56FrYMtM9MphFlhbnatsrFLF6XlUvSy4tArx9nHzmu+G7diN5ml6JGmekqlszUVS9LopegvS8qtq6kSJYNM9BRcUXFFxRcUXFFxllvlz1qu6ZouM2iKLqouOPPfPz9upd6ONFxRcUXFFxRcImEqEtMSoKAAAAKSXYo2YSbMdakWgAAAAAAAAAAViYSYkAeZ8r9V8qAoDTPSTYc8gLVsfZRMdamJWYnJdJz0MtMtcmemRsKztS8WpfOyb0vKpatlxaBXj7OPnNd+fobtS1dZvS9LI0z0ljPTI2FZ3zvFqXpYvnpKrauoCWDRhY1AAAAABTLXLnvoHTAAAHNTljx+nrpSyaTyRL6047evzhqAAAImEqEtMStefqLyT1DjnrHJPUOS/QHH2Mzx3sMZ8zL2B4/pbLQ6aAAAAAAAAAAArEwkgA8z5X6r5UBQGmekmw55AWrY+yiY61MSshQMtM9MmemZqKztW0Wpeli9Lys9MjUUZ3I4+zjxNd8N24Gs3pelkaZ6Sxnpmais7VtFqXpYvS8qtq6hEpYNAAAAAAAAAAAAefT03Dr5z0SeY9MtbHbkFAAAImEqEtMSudsbrpOWR1OWh2uWp2OSTqy15cxPHrzzt0+X6WrcdNAAAAAAAAAAAAViYSQAeZ8r9V8qAoDTPSTYc8gLVsfZRMdamJWQuWoUtKFLgKrMoVsK2BS4CqzKKZ7xJlpMrVZSthWwKXAVWZQrYVsCtq2RIlok1ja4kAAAAAAAAAAAAAAAAAACJhKhLTEqCgAAAAAAAAAAAAAAAAAAAViYSQAeZ8r9V8qAoDTPSTYc8gLVsfZRMdamJWQqJGG0iMdxS4YW1DPQY7BTLoFLhjbQM9BS4Ytgy1HPvIrnsK2Dn00DLUYbgraqAlg0Ax2qLABGW0FNIkArXSCQAVrpBIAMmtC4GekGW1bAEZ6wRYETCVCWmJUFAAAAZagDn6ArluK2DCdgx2GG4Z59AAx2BlqKXDHWQw3AFYmEkAHmfK/VfKgKA0z0k2HPIC1bH2UTHWgSqWyosqLKiyosqLKiyosqLKiyosqLKiyosqLKksqLKiyosqLKi0ABKosqLKiyosqLKiyosqLKiyosqLKiyosqWyosqLKiyosqLKiyotEAkialsqLKiyosqLKiyosqLKiyosqLKiyosqLKiyosqLKiyosqLKiyoTEgAHmfK/VfKgKA0z0k2HPIC1bH2UTHWgEwEwEiEiAAAAAAAAAAEiEiEwAAAAAAAAAAAAAAAAAAAAAAAAAAAAAAAAAAAAAAAAAAAAAAAAAIkAAAAeZ8r9V8qoKA0z0k2Q55lAm1Ln2UVdbaaC6guoLqCyosqLKwXUF1BdQXUF1BdUWVguqLxUXUF1INIqLKC6guoLqC6guoLqC6guoLqC6guoLqC6guoLqC6guoLqC6guoLqC6guoLqC6guoLqC6guoLqC6guoLqC6guoLqC6guoLqC6guoLqC6guoLqC6guoLqC6guoLqC6g8/5X6j5dQUAAAAAAAAAAAAAAAAAAAAAAAAAAAAAAAAAAAAAAAAAAAAAAAAAAAAAAAAAAAAAAAAAAAAAAAAAAAAAAAD/2gAMAwEAAgADAAAAIQAAwxxDDDDDDDDDDDDDDDDDDDDDDDDDDDDDDDDDDDDDDDDDDDDDDDDDDDDDDDDDDDDDDDDDDDDDDDDAAAAQyFfPPPPfffffffffffecYQQwwwwwwwwwwgVEPvvvvvvvugggggggggwwyz//AP8A+/8A+8vvvvMAAgAAAAARztvOf0RfZXEZffffff1QQQQQwwwwwwwwgAEDPvvvvvvvggggggggghCE8/yvynf/AP7766IqJoAAAAAAFB5fzzAAMOOOPPHHHHEEMEEEMM888888464zz7777rLLKIIIIAA444888e//AP8A/wDPPPHFJLIIIIAIIAAAEEFXwL333333333333333k93333333333333331qf10000000wwwwwww38wwwwwwwwz8QwwwxwIIAAAAEEFXyrhrDjzDzzzy+L/jymvjzzDjzzzzzyLTzzypXT/jDDjzzzt1x37z1fjzTjjzTjilDDjzTyoIAAAAEUBXyr29wxwxzzz7Tzx/6muy3ywzzzyyzx17zzypdz6wzyxzzw2VajT71e7dSijxSi+yAqj94moIAAAAEFFXyrzJL7zzzzx+9Gq+emvzDzzjTzzzyl1bfzype4ZLrzzzzpnzbzbf1ei7KiOZ+iqTZ6aZSioIIAAAEElXyqxxy7zzzzwrQ89xymvyxzzyzzz72jwPrTypdjb77zzzxb7S6h7D1ejweqvzq2lL+ijxSgIoIgAAFFdXyrvH77TDDzz9XzzTSmvxe/61w7zrADYSTN2pfrvvDzzzzhDTyhwz1ezxyyzw42wrSyzxywK76gAAEEFX6rzzzxzyzzzzzzxzym/zzzzzzzzzzzzzzzypfzxzzzzzyMA7yuDT1+zzyzzwTyxzzjyxzwL76gAAEGxX8r77777777777bLLKpNoIIIIIIIIY44444qYo4488sMMMMMMMMMNe+c88888/wD/AP8A777rL4Lz6AAAEEFX+IIIIIIIIIIIIIIJIIZL77qoP77764444454444489//AP8A6wt//wD/AP8A7zzzzzzzzzzzjjjimvvqAAAQd1fytPNPMcd/PPPPPPPOOOOPOLS/NPONPPO8cfPPPPPPNNNOPfsNNOOPO8cfPPPPPPOONNPPAv8A+gAAEGFX+pyYz4133zzzzzzzyyzxyyj2ugJ5qjZR40vb77zzzzTxxx34RoxrhQ51vzzzzzzyzwxyzQP/APoAABBjV/qw8wwwwwwwwwwwwwwwwww09r4088888885wGu888888889+QUwwwwwwwwwww+4wwwwww8D/wD6AAAQQVf6uPMMMMMMMMMMMMMMMMMMNPa/GOvPPPPPPDsDPPPPPPPPPfkHPtttuuutttswDcMMMMMPA/8A+gAAEEFX+qjTDDDDDDDDDDDDDDDTvD/2vjSZLrDDDDDG7LDDDjbrDD35TzBBDCCDDBBDalvDXDDDDwP/APoAABBBV/q8cwwwwwwywwxx1x11RyBW9r88r8dD8884VVuex+e/9z89+QU4wwwwyz4ww+0v8/18888D/wD6AAAQQVf6qPDDDDCFUjfTDDDiiTDJzfK+PCzDMajjDjNTCDjHTjIzPflXPPNfPNazPPPv8D3F/PPPB/8A+gAAEEFX+qjQwwwiQbMIQww4Dxuok5zyvzyPDAPAHnPB3CWzDXLAvD341w1Ko834+M4w3T3Bqcw4Txf/APpAABBHV/q4EMMO0sMbMNCO4OFYMkMc8r88r88D88p88V8po89+8D89+N0NtMaOcPmNMJfnwalNTt8X3zpAABBxV/qs/BHtHJM7MvOMHLNYMHJU8rscjwwDww3wwdwlsw1ywLw9+FcONMdNcPmlJtfnwan97N8Xz/pAABFDV/q8hHJMlJM7MnZMbLNYMnJ88r88r88D88/88V8po89+8D89+V8ONMNOcPmcKsfnwan4bN8XjDpAABBBV/q8SgUMkUIEIMIMkQkVIkMc8r88OMMuMMuMM+MO+MPvMOM9/dcLO7OPnMvnMnKoXfMXvf8AFww6QAAQQVf6vPLHHPHPHPPPHHDP/jPHPPK/PDPPHPPHPPHPLHPDHPPHPf3fLPDLPDLHHLHPHHDDPPPPHwwqQAAQQVfy7jvrvvvv/wD/AP8A7/8A98+8PNdtIsIIIIIIIII44444444444o8Y4IIIIIIMMMMMMMMMMMMMOoMOEAAEEFX+8444444888888888888888+I/8A+++++++++uOOOOOOOOOe/mKKyyuCi+zzzzzzzzzzzzzCCCBAABBBV/W08888888zz888888488849b8888888888888888888889D90888088887z388884www8rCCBAABBBV/WU06u2206OtX88888ow0gw9r80w44006/0888888884001D5SK2+WqyOMKt28888cMos8rOKBAABBBV/Ww088888888888888888889r8s8s8ccteL8488888IQQ09D9888888888888888888888q++BAABBBV/WM8888888888vf888888889r8sMMMMMMMN0icsMMMMMMM9D98IgAcu/wD/AP8AG/8A/wD9TzxTzyr74EAAEEFX9bDjDDDPDDDDCHPDDDDDDDT2vjjzzzzzzzzwjzzzzzzzn70P3zzzzC3FGHiPFGXxTzxTzyr74EAAEEFXdbzzzzxXzzzzy/bz/Tzzzzz2vxzjfzzzzzzwPzzzzr/zz30P3zzyzysyRhxgyQnxTzxTzyr74EAAEEFVdbyQkwyowwcwx6Uw210Ywtz2vwxicwIwwwwyMwwww0www30P3zzzzy4MMINHxSjxTzxTzyr74EAAEEFVdbjBnDBnDJnDDZnDHvVJuH/2rzihfwfzzzzwfzzzz3zzz30P3zzjjjrNaPajxSjxTzxTzzb74EAAEEFVdbzxUvxXv9Xzz5Xr3/tZWlf3Lyyzzyzzx3zz7zxzzxzyzz0P3jzzzyvJqHyjxSjxTzxTzxZIKkAAEEFVdajhnTJmXNnDDZnPHu1LiF/1LjzDDDDDDjDDDCQMfrDDDD0P2zyyxzs0cvyjxSjxTzxTzxYIKkAAEEFVdbzxWlZWn8Jbj5VX3+lZWlf17zzzzzzzyzzzzy49x7zzzz1/2BjSjzqyijyjxSjxTzxTzxYIKkAAEEFVdbyz55w7755w7vf7755w7773bxQxwwwwwwwzzzzzzzzzzz3/AN88888swQgwgwQgwQwwQ08WCCpAABBBVXW8sscccsc888sco88scsss9W88s88s88kc8088w88084U9/wDfPPPPPPHPPLLHPPPPHDHPFggqQAAQQVV+/vvvvvvvvvvvvvvv/wD/AP8A/wCMr/8A/wD+9888888ccMMMMsssvs+sMMMMMsMsMMMMMMMMMMMMqggqQAAQQVV/9tssvvvvvvvvvvsstvvvvvvvvvrjjjjjjjjjjjjjjighjvzywwwwwwwwwwwwwwwwww0wwww6QAATTWU4wwwsstvvvvvstskghkvvvvvvvvvvvvvvvvvvvvvvvvvnv/8A++8888888888888888888888+kAAAAAAAAAAAAAAAAAAAAAAAAAAAAAAAAAAAAAAAAAAAAAAAAAAAAAAAAAAAAAAAAAAAAAAAAAAAAAAAAD/2gAMAwEAAgADAAAAEAAAQQRDDDDDDDDDDDDDDDDDDDDDDDDDDDDDDDDDDDDDDDDDDDDDDDDDDDDDDCBCADCAAAAAAAAAAAAAAAFATCuMMMMQQQQQQQQQQQRTXff/AP8Az7zjDDDCBUQ+++++iCCG+/8A/wD/ALjDCCCBO/8A/wDT/McoIIIAz3/32oABRLeWheEL5J784YEEEEEOn3333/8A7jDDDDCAAQM++++6CCC/+/8A/wD+sMMMMDr6ne9fsMQl5E1f1f332oABRMuugAxz9/8APvfNNNJNxz195zz/ALzzzzzgogMMsvutrjimss88cfzzzjrhiso88/zzzWQniss9/f8A+oABQAAKjX//AP8A/wD/AP8A/wD/AP8A7337q9zzzzzzzzzzzzzzz33D7/fff/ffvvvvLnj9jnjjDjjjjq5Djjjns/8A2oABQAAKj3z3jzDTzzzyUf7zz9cC7zDzzzzzzznPzzylY9XTjDDzzz2GLH3yurzzzzzzzyCWxzzzzSv/ANqAAUEoCo9s9cs8sc886H88v3/XUc8s888sOu+qM888pUcfssMc888AwWII+rq+9888888Zmc+891ur/wDagAFAEwqPfF27/PPPPFrqtzRf11PNPONPPONOnfPPPKVPw6x9PPPLnvL/ACfWurx+ny7XXylz/wB7388r/wD6gAFACAqPbLPH/PPPPG7HbeNP11HfPLPPPOUI/wD5XzylSh/89zzzz/vx+xtWurzy31/wX5fnXzzzzwLb+IABRB8Kj33j3XjTjzy3bzy5z/dSTzenPZyhc7jNYX2lTnDfbzzzz6ZrTgCyurzzzzzy5zyZTzzzzwJIIIABQAAKr2zzzwxwzzyxzzzzz/tTzzzzzzzzzzzzzzy1zzzzzzzzw88bzmIOuLhzzjzxzzjzzTzwTwYIIIABQAAKsIEEEEEEEAAEAgwwxJ8z33nHHHHHX33333n4L3HDBSwwwwQAgAABhq00000kHHHHDDDTzDYAIoABQAAKt4EEEEEEEEEEEEEFEEVH33moO000133333233100wxzzzywPwgAAAFHHHHHEEGEEEAAAASYIIIABQB8Kt3zzTjLL/wA88888888EEIAQuf8ANPOPPPMcs/PPPPPPICCBIc3PPOMPMcs/PPPPPPPBCCAPNgwwgAFAAAq/XJyLjP1PPPPPPPPKAEEIBPu/Hyx1e9Hfvd/e/PPPKEEAIQ/I3Z6dLTvfPPPPPPOEEAENFwwwgAFAJwq/cOPPPPPPPPPPPPPPPPPPOPu/NPPPPPPPOMWiPPPPPPPPKQvFPPPPPPPPPPPMtPPPPPPNFwwwgAFAMwq/eOPPPPPPPPPPPPPPPPPPOPv7ODzDDDDDDDjHDDDDDDDDCQqMMvuutttuuuq8svPPPPPNFzzwgAFAAFq/bEPPPPPPPPPPPPPPPPOfOfv+PK2tvPPPPK6vvPPNmtvPIQrDDLLDHHDDLLGvMfOvPPPNF/8A8IABQAAav3xDzzzzzzrzzvPccvf+6tr6/wA8rUt288841XuU6CO2dpcpK8U088887j+88iD9wUQwww0X/wD4gAFAAEq/aLPPPPOJoD/3PPPt/fPL/v8AOzytTxr7fyLyfytbzzfzfwm6nwww0wwU2owx4puM8Qwwxzv/APKAAUAAWr9oE8884EmQy8887PeN6pfs/H80rU8h85gc8b8//wDPH/H/ACH7Xz7oDzUalHfznfrSnzz/AMcr/wD6wAFAK0q/ePPPPb6nKrJeJvbXuvHvLP8A3zytTynzznzxfz//AM8X8X8p+184/wBPnhKVdfMVl9Kf9Z93K9sqwAFAAAqvbLPYXFrFCvHvPKrV+vFvrP8A2xStTyHzxnzxvz//AM8f8f8AIfvfO/tK/BKVQ85Vl9KfVClHK8vqwAFBDQqvbKPDPNLFCvFuPNrV+vNubP8A3zytTynzxXzxfz//AM8X8X8p+tc7+0o/EpVE+cWX0p9cqUcpiCrAAUACCq88mYs8cg444c44080+408s/wDfPLfPLfPPfPPPLn/Pv/DfCf8AXy/42p/XzX3zWXT3HDUs9ygIKsABQAAar3wzzzyxwzwzzyzwy37ywzz/AM88s88s88M88c88c8Mc8ccp/wBfPPLPHDLLPPHDHDHLPPHPNAg6wAFAAAqgkMAEAAAAQQQQUQQYcUfTaeG9fPOOMMMMMPPPPPPDDDDAKA0ATTTTTTTDDDAABBDDCCABKyhowAFAAAqlrDDDDPHffbTTTTTTTTTTTWHzfdOMMAAAAAEMMMMMMMMMIA2BRffYTbcfPPPPPPPPPPPPH/8A8MABQAAKoDzzzzzzzz//AM888888wwww+M8888888888888888888885zV048888008/x/8APPPNPPPPIP8A8MABQAAKoDTlsftPzs9z/wA8888sM8cYq88w144w0x778888884048wJDB7zHfjDb/sZcl8888ggkw8Az3DAAUAACqA888888888888888888888qUsc8MM88MfK486888skcsIJDV888884804848048048048BDDDAAUAACuA8MMMMMMMMMMCFMMMMMMMMq88M8888888/kf8APPPPPPPPKQlfEKBLPTRSTVzRTTdKPPKPAQwywAFAAAqgNPPPPN/PPPPOPfPPPPPPOLvOOMMMMMMMMMOsMMMMMMN8qQlfPPONOP8AfvTH/f7zyjzyjz0IKsABQAALYDzzzzxbzzzzz1bzlzzzzzz7zyzr3zzzzzzxfzzzz7/yj+kJXzzyzz0KJLJY64zzyjzyjz0Y6sABQABJYBxxXzzbzz/zyzTzvy17z2T7zyzj3yfzzzzyfzzzz7bzj+k5Xzzyxz09ek8jzzzzyjzyjz376sABQABJYjTyjzyjz37zzhzy/fnZ3vv73zyz3xHzzzzxvzzzz57yz+nxXzzzTD08kcrzzzzzyjzyjyH76sABQAAJahxygnyilf7zzxT+v+j779f6Xzwwwwwwzswz4wyUwywwwwnxXzDDzT8GlJzzzzzzyjzyjwFIIMABQAAJYjzyj9ai9/7zzhye/ebYvtv4XzzzzzzzyTzzzxkur7zzzz35Xzwywz4y17zzzzzzyjzyjwAIIIABQAAJajzyir6itend7xQCv+r6j9f4nzzzzzzzzzzzzwy/93zzzz2BXwTzzj25PzzzzzzzyjzyjxQIIIABQAAJajzzwyzw68wy2J5x48yzx4/6GjTyzzzzzzzwwwwwAAABDD0BXzzzzzjzzzzzzzzzyzzyjxQIIIABQAAJajywyxwzzRzTzzwjzTxyzyz4HzwTTxDTyBTzDzzzywzwjz0D3zzzzzyxwxxzxxzzzzzzzxwIIIABQAAZZzzDzzjDzzDDDDDDDXnnHHXTbnHHHXn33323/wD++++80880+caSyyCBDBDDDDDDDDDDDDFqCmCAAUAAGW+3XTDPPPPPPPPPPSymOOOOe+OKKSyyyyyyyyywxxxRFPbzCyGOOMOMOOPPPPNNNNNNNdNddNCAAUMMeQgCCDzz3/8A/wD/APz3zTDHT+++++++e+IGKKGECIFBBJBBBBhCCCQQwwwwwwzxxxxxxxxxxxxxxxKAAAAAAAAAAAAAAAAAAAAAAAAAAAAAAAAAAAAAAAAAAAAAAAAAAAAAAAAAAAAAAAAAAAAAAAAAAAAAAAAA/8QAPxEAAQMCAgUICAUEAgMBAAAAAQACEQMQMTIEEiAhUQUTMEFxgbHRFBUiM2GRwfA0QFKh4SM1Q3JQYCVCYpL/2gAIAQIBAT8ARMLXbxWu3itdvH/oEKNiFFoUbFbIU52qJRfEkjBDH/l9YTE79kOBMA7E9Ecb1shVJoLySP5VOs5zgDvnq4Jg1XkR32egICOKlSpUqSp3/wDFO/ZMMhOMAlHQQ7Suf1+B+nysXGbPJBBWi6DzVZ1bWmZ/czvuWF8gIU3MaJUKFChQo2DjetkKMtOs3FGqd+q3f4pjYO7/AJcCNmIuCRgnOJMnojetkNxjYqSpKkqSpKkqSpKkqSpUqVKlA2lSpUqVKlSpUqVKkqSpUoIqVKlSpUqVKlSpUqVKlA2lSpUqVKlSpRdCBUqVKlShc3rZDcY2cq9V7S1rBvPFUKjqjZcN8x0NXSQ12owS5amlO3lwCjSmb5Dv2VHSG1DqncR1WGNihptaA4gQeiq1C3cFSqlxg7ARWlaTUpvDWRvWiVnVmFzuPQOcGDWdgtM5WqMMUhu4lHlPSyZ1/BUOWqzTFUaw+RVDSKddmvTO6w6Pdti5vWyGz6eqJBQxs5VKTKgh4lMY1g1WiB0GlVTTZDcTuCoUBSbHX1m+kUdcazcwwVCqKrA4IY3Gg0hGPz25HBSOCkcFyyP6GsOIXIrZolx4n6bARVbRmVSHOVGi2k3Vb0GnVzUqagwHiqegNazWeJdwVM03sBaNxWmcl0qzSaY1Xft3rRNIfodff2EffBAgiQhY4Jrg5ocNt7g0SVXrFpDXu1Tju8EyqS0Pj2T8wgQRIs5waJKh7953D902m1u8BC5xvWyGxcTiUMbO6Krv0lgPVJTqkPDYxWvU1ondMT3GfJCvUgE9f3P38PijD27utaNo3MzJmUMekqO1RK5VfraJPxC5Hdq6KSePkmPDhIuMEUbzsnBaLo9Tng57d1qJ5iu6i47nb2/W3Kuh1HaRr02kyOritCDxo7A8QQELmkJkEhAuY4BxkGzqm/VYJP3iv6o3yD8Pspjg4SLZ6k9Q8f4Wl09Z4PwVARTARYWGWfLyXOOODSm0yTrPx/YffG4ub1shtCGNnbEbWk+w9lXqG499ixpGqRuRY07iLjHoq+VUnBrJKquDmSFyl+D7wuS/wh7fJUMqmwwTrQoUdAWgmdgbDmhwgrmnYFxj7601oaIFp5t+/A+P8+Paqj9UbsepMbqNhVGyU0QI2hc3rZDZzgQhjZyc4NxQfLS4hGsAmVg4jaewPaWuwKp0+bYGzMXiwxvzgXOBAzvVSs2kNZ3gT4L0+j8f/wAu8k3TaTiGid//AMnytWyqDzfeoPNLlFpOiQB1rkxpGiEEdfkgDzRTCWskKm4uElDBORdHUg4ESFzvwTX62zChQbxYdAQCIKbSY0yBaNsXN62Q3GNndNNhj+SGCPQvGk6x1C2PiD5qNL4t+R81S52P6pHdZ+tHsYqK/EfI+aArTvI+R80PyQub1shs6I3IY2hQoUKFChaqhaq1VqqFChQotChQoUKFChQoUKFChQotChQoUKFChQoUKFChQoQFoUKFChQoUKFChQoUKFGwb1shuMbEqVrKVrLWWstZay1lrLWUqVK1lKlSpUqUDNpUqVKlSpUqVKlSpUqVKlSpUqVNpUqVKlSpUqVKlSpUqVKlSpUqVOwb1shs5oAQxs7Z5xnFc4zigQd46cI4dAXAYlc4zihUaevpBY7RcBiVzjOK5xp6+mFzetkNpQxs7YK9HdxXMOVJhYIPThG8bNWkXkEL0d3FCg6QtYcVrDigQcOhFjtVaReQQvR3cUKDp6YXN62Q2cyBKGNnflgj0Wl6/MP1MYKaBrDWwRFCDHx/haIH8+3UxkdGelnoRc3rZDYuJQxs78sEbExvK1gRPQQqNUnSHhzI+PHpDaQpCkKQpCkKQpCkKQpCdUa2NYxO7vTTv6AXN62Q3GNnfkw9pwNtbfAQRvpzaYe2SQcd31QeW5/n94IEHeNp7iBAxK0Uf+RLThLvqgSww7Dj5+f2b6XpDqLZY3WPAIVmx7W7t3IEHeNk9IcFpVdzCA374LRnk7jiLPqNYJeYG0Lm9bIbjGzuhkC+uOretcfYK1x1L2j8FDuK9tag696IBxWoOowgABAQRvyl7wdljTjezd4KppZp1G03Nx6+rYJjeUwSdc/YWjf3M9rvqiJ3FTzeOXw/jwRqNAmV7b/gP3/j7wXKA1GtDfiqJmk2eARpMO+FpMsqsipA4YzsHbLgMVzhO8DctGJ1Ic7WI64i5wWlbzKp+ydf59n8edqrtcYS3x+/v40XFzATjsi5vWyG4xs7oNYnKhVb6RqYgjHqmVqDq3LUBx37BIAkoEESEa1MODS4SbvpNruBdg3DtQa4HGQgjflL3g7L6dUcKwaDuXtU/iP3Hn49qBBEizvbdq9XX5ff1to39zPa762qZTK5MbTaC1k99uU8G96oe6b2C3KPvR2fXYOwKrC/m53xNxquqipG/AH4J2Uqh7Lu3x+/C53BaWIY1UhuTCXzTggDdv6+xV8qp7jHET9/tsi5vWyG4xs7br1Xap1BMfe/yXN62ff8Or77UWNNTeOpSaebDj5+fz47BIAkp451pDtzfHy8exU6NINGq0KtSpuqMkcfBaxZmw4+fmnmfZb1+H3ggABAsEb8pe8HZfT/AH47vGxYQdZiOksB1P8A24daY3VEW0b+5ntd9bVMh7FyZi7utyng3vVD3TewW5R96Oz67BtUqNptL3HcFrOfvbuHHy/n5Ih2vqtKY7WEqpv9gdfgn+8CdlKYCaZIxCBBEi1XIRx3fNcoiA3vTBuVI+0VXyp25jXcPs2c4NEuMBAzYXN62Q2cyAhjZ2y5waJcmc5WnXGqJw4+SrMHNFo3W/y91tHoc1TApn7+n3uRrMbnMdq5wuyCfBMpHnC97p+HUOxPEtIVIQwBVfeM77UaLKZcW9ZuNjlL3g7L6f78d3jd76fpYlu8bpvo39zPa762qZD2LkzF3dblPBveqHum9gtyj70dn12DaqYaqZloJX+ZP9gl/V1+apEPHOAzPh1J/vQnZSqGVU90t4eH3u7rO3vaO/6fVcp4N703AKjmKr5U0AsAKpk6sHEblVOu0iJb4qnlFhc3rZDaShjZ1nkhpIxQqAMBeYTtKGu1jBM9fUm09+s7efvBUhGtvneq2Q2/y91qOQKtqQNcTvHzs0f1Hb+CdlKp5AqvvGd9qYgu39ae8MaXGwRvyl7wdl9P9+O7xu/8b3jwvo39zPa762qZD2LkzF3dblPBveqHum9gtyj70dn12DatkVPIF/mVQw0kKkSW70/3oTspVDKqpcHNLSBx+IQqNJjApsOeXA/Bcp4N703AKjmKr5UzKENZz3NIgbt848exVRDICpZBYXN62Q2LSEMbOtXfuLG4kfstH0dlNgACdue0dtqfX2qtkNv8vdajkCqGI7bNzu7k7KVTyBVfeM77U8XdqqmGFBBG/KXvB2X0/wB+O7xu/wDG948L6N/cz2u+tqmQ9i5Mxd3W5Twb3qh7pvYLco+9HZ9dg2rZFTyBf5lVyFUcif70J2UqhlVbMEQCN60cNEwInf3rlPBvem4BUcxVfKmZQme9KrZFSyCwub1shsSShjZ1oHTgku3YbIRvV0enVILxepo9Oo4OcN9zo9Mv5yN926FRbV54D2rESIKpUKdKdQRNqtFlXc8SgA0QLVNHp1CC8TsGzmhwgoAAQFqDW1kQCIKa0NEBFgJ1kRKa0NEBOYHGTZrA3BVqDK0a/VZrA0yE5ocIKAjcgwA6yc0OEFAACBYXN62Q3GNnfkHN1hCAAEDZCP5g/lhc3rZDcY3hQoUKFChQoUKFChQoUKFChQoUWhQoUKFChQoUKFChQoUKFChQoUWhQoUKFChQoUKFChQoUKFChQoUbBvWyG4xvKlSpUqVKkKVKlSpUqVKlSpUqVNpUqVKlSpUqVKlSpUqVKlSpUqVNpUqVKlSpUqVKlSpUqVKlSpUqVOwb1shuMbHDoCYWsOK1hx6QI/mD0RIGK128UCDh0pvWyG4xsegqsLxAXo71zDvgmiAB0YR6B9bVMQvSPgm1pIEdMeiq0y+IXo7vgqVMsmeiFzetkNxjY4flgj0DqTXGSFzLOCFNjPa4L1jSmACvWNPgU3lGkTBBHRn8sLm9bIbjGx6R1SIkxJhCZg9CEeie3WaW8U3Rq7HTqoNrA6upvXolZzssT0Z2tIa91MhmK5jTOJ+a5jTOJ+a5jTOJ+a5jTOJ+aFHSY3zPb/K5jTOJ+a5jTOJ+a5jTOJ+a5jTOJ+a0ZtRtOKmO0Lm9bIbjGx2gZ2q+LP9l/7dCEeka93pkTunoHvDcUDIm52q1QUmF56l6zZ+kr1mz9JXrNn6Sm6eHbw0r1kz9JXrNn6SvWbP0laPpbazi0COgFzetkNxjY7TMNrSjAaf/rzWgvdUoMc4ySPrZ5hu2Eb1yREJuUdA38b3/TZJjeUHA4Wr4BU8oudpzQ4Q7BejUf0hejUf0hejUf0hejUf0hejUf0hei0f0hei0f0hMo02GWiOgFzetkNxjY3pkRF2OGW874vpWDf9vNcm/hqfYfGz8pTHEzKq5ChhZxgTYI30jqTMos6rqu1Y2m/je/6bNXIVQym1fAKnlFztaRTNSmWDrXq2rxC9W1eITuT3kbo++5eravELR9BqU6geSN3Ri5vWyG4xsb083d9btzjvs1wcJCOYX0rBv+3muTfw1PsPjZ+Uql19qq5ChgmmQqmUqmce1BG+kdSZlFqnvBtN/G9/02amQqhlNq+AVPKLna0ioadMvHUvWVXgE3T6juoBesavALRdMfWfquHSC5vWyG4xsb083d9UT7UWbnHenGBKo5UcwvpWDf8AbzXJv4an2HxRIBhPylUuvtVY+yQhgmYKplKpdfagj0OkOIqiDeBjetz/AKxETqyOMRG/bFjtOcGiSdy5+l+ofNc/S/UPmm1GP3NIP5A3rZDcY2N6ebu+qqmMEME3OO9VMFRyo5hfSsG/7ea5N/DU+w+KcZe3vT8pVLr7VWwQwTCdaFUylUuvtQR6HSfejZqcq6UXEh0DsC9I0tzg7X3gePdHUvWeltO9/wCw8lRealNrz1gHbO1Wp86wsnFerB+r9k7k/Wxd+y0fQxRdrTPSi5vWyG4xsb083d9VWQwTc471UwVHKqpjeEMEHgmFpWDf9vNcm/hqfYfFf5B2lPylUuvtVbBDBNzjvVTKVS6+1BHpn8iUXOJDiF6nbjzhXqOlMlxTGhjQ1uA2ztaQ5zKZczFN0nSTiP2WiVq1RxFQbuzphc3rZDcY2Nw0AyE5odjYNAMogHFAAbgi0OxtqiZT6YdiJ61SpNptDWiAFqiZRE7ig0DBOaHY2DQDKIncUGgYII/mD+WFzetkNxjY/lgj/wAcLm9bIbjG8KFChQoUKFChQoUKFChQoUKFCi0KFChQoUKFChQoUKFChQoUKFCi0KFChQoUKFChQoUKFChQoUKFCjYN62Q3GP8A0o3q5CoKgoDf/wBKP/Uv/8QAOhEAAQMDAQUFBQcDBQEAAAAAAQACERASMQMEICEwMhNBUXHwFCIzQGEFNEKBkcHRI6GxFSRQYOFS/9oACAEDAQE/AKSFIUj/AI6fn39KAk5hANMCc+OP+YgxO7BAn5F/Sj3NmRlNeSQD3oklok44UNBhWiFACgK1FoUcP+KKCKZtkaHYx+fnSeNCtXbO10hp2xEf2qHBpBKc4OcY5r+lCDAxE8UG4JgT3/8AiJ4AeH/QAI5r+ndAUBQFAUBQFAUBQFAUBQFAUBQFARAikBQFAUBQFAUBQFAUBQFAUBQFAUBHKaFAUBQoUKFChQoUKFCih5c81/TutT3EEBvetNxcOPJfqwbW8So1Tkwo1W/VM1A7hg0OKjXfwPKYyeJT9MASNw5TVq6jmuAC0Xl7ZPIJAElfZuho7UCXHiO5DYdnxb/lav2XpuH9MwVraL9F1rxQ8s81/TQtirU5jXZTWhogcjVeWjhkrTYGCuoy4SMhMfe2UcV7BnK+zD/Whfajo1Q36bhymp+k15kpjAwQORrvudaFsgdomZieBTw9riHZC2b7Q1NIw8yFtGi3adLh5hERwKNQZEjfJgStR8cCYQeYu7kDNCQBJUF2eCDQMb7+mkmreU/jqtCLoICudMSu0cshaWnZKOOYxtxhfZ7bdoj6L7TbdrgfT+U5tpipymoVjdK0tN14LhTVHa6I1AOI4H9qfZ+0sbo2vdEFbVadZxaeEo1s8FJaYNC7jAXvhAyJpl3ktZslaYhoUEcWq49wQbxl3Jf07rdyd7V91wfS0RCgVOKzv6XUtRpLoCYCHQVsP3n8l9ofeB5fytXqqcptJUqd6KSYjcO4QCIKtOJQAHAU6T9CnGAmiBCcJKGOY/poTVqJAyg7hKLwg8HeIBEFNbaI3TithVhRELT03ahhv+Y/yvZNT6fqP5Ttl1GiTH6j+aaXUp99T762JwG0yfBbe4HaBB7v5RPvpwDncU9oB4I5TVp6Qf8AihO0HM1OzfwKGwkk+9iO7xWts/ZiQZ7uYeRlBoGOe/p3W/IHHyRym8lp0I94GfMfwp2bwd+o/hanZz/Tn86GY4L+p9EL/oj8w/poagwriririririririririririririririiSaXFXFXFXFXFXFXFXFXFXFXFXFXFXFXFXGgMK4q4q5SpUqVKlSpUqVKlTSVKlSp+Sf07oEq0q0q0q0q0q0q0q0q0q0q0q0q0q0q0q0q0q0q0q0q0oiKWlWlWlWlWlWlWlWlWlWlWlWlWlWlWlWq1QrVChRSFChQoUKFChQoUKPkH9NIq3duHirh4oEHHPchnkEgZVw8VcPHmGg3iQMq4eKuHj8o/p3W0mvZldmU1sDnuQzWVNJo9srsyhplQVaVBHJOKCkqVNHtldmUNM/KP6aRVvyzkM8rZre1bfiUZj3UO1nj9P/AFbRb2Tr8RyTQfOP6aTVvyzkM0yoPJ1NONFpDp+nhyjQbkqVO7KlMY582iYQ5z+ndb8mCDSeMJyGas24aALXCZVod0/oiIzvMAPE4C1z/sg4eA/ZEB3EZ9Y3Nn0Bqn3jA8UdJ08OKIipoOa/Udpslp4nh/P7KBMjBo1jnmGieY/p3W8y4K4K5cSoPiuKjxREq3wUQnoZrtPUKB88HcUzZg9jntdj9dzKeY90LX+4DyH7IGFF+M/5/wDUGOJiF7rfqf7La3uMcUzpCGo7xTdp0WNLdQcTihoN8AnCLQ0cStRzXOuYIBqVtPBrR69RC0eIs/T19f4o5x0hIPFOAB4ct/Tut5Ek4Xs8aJecz+atHcrfHcAngEQQYQ03kF0cBVuodIEDJz5IlpGE9DNdp6hXV1HteLTC4P8AoUQQYNG+6Lu/upr/AHAeQ/agdaZWptx2ozERTau5afQKbT1ihxQY3OzdZfHDFX6jmDsu7J80cLT46fl69edYngtr6vXcmcE6Gw/gSf7LUwhx0wfD1/PLf07rd/S0hqEXmAr46OH+UNVw90eagPxn1j+NwAkwEDYZb1J2rqE+8TKbtD2S0fiUB/Tnw/hNEe8USSZNHoZrtPUK6/xBQOBEOQ0HEXfh8U51xpr/AHAeQ/ajsFbLk02ruWn0Cm09YocUGKMY57g1uSoDerPghqG+DhObaYTOHveCd1o4WgQM4RBBg00+qfBbT3JqZkrUwtLiLfGgBcYG8Kv6aRVu6AThPGm2LTPr+6bqWvvdT8VNXXGs65yGk53Tx8lYB1FHVFtjRH17ymm0ynOucXDvTuptNTWdqQHd1XoZrtPUK6/xBX2x4/oDFdf7gPIftR2CtlyabV3LT6BTaesUOKDFHEgSE0yF+NN94Wd/ctQFpsPd/lO6kcLTwn8Yd40bwaT+Xr9FtXchhMyVqYTTABCePekd6JOkLh1f4QJdxO6Kv6d1tGgFwBRYS4hoTdGWF5I4fqi6RAwnPDogYT+mn4qM6Vp3ybTHCheCA2MI4TcBO6m0c8OiBhMaXOtFHoZrtPUK6/xBU/Hrr/cB5D9qOwVsuTTau5afQKbT1ihxQYo/CbhfjTjATSSJKd1I4WnhNewAh/5IsIE9ydIaAfNbV3IYTMlamE3Cloa0gyePDw/lahkJuN0Vf00irKA2i4+vXen6j9U3ahlEkECje9P6afiozpTiRig6ijhNwE7qbRvenEgSKPQzXaeoV1/iCp+PXX+4DyH7UdgrZcmm1dy0+gU2nrFDigxR+E3C/GnYTMJ3UjhaeE/IUkYXav1Oo44Lau5DCZkrUwm4Q60/CbjdFX9O6z5GZO69DNXabXGTV2m1xk17Nt10cau2rVdp9kTwq3TazFHMa7KAgQKO02uMkUOKDFCJQEKBMoiUBCgTNAAMIgGgAGE/TD80AARAOaQJlESgI3RV/Tus+QIkICN16Gfljigx8yKv6d0GFcVcVcVcVcVeVeVeVeVeVeVeVeVeVeVeVeVeVeVeVeUSTS8q8q8q8q8q4q4q4q4q4q4q4q4q4q4q4q4q4q4q4q4q40DiririririririripUqVKlSpUqVKlSpU7gq/p3QJVpVpVpVpVpVhVhVhVhVhVhVhVhVhVhVhVhVhVhVhVhRaRSwqwqwqwqwqwq0q0q0q0q0q0q0q0q0q0q0q0q0q0q0otNLSrSrSrSrSrSrSrSoKhQVChQVChQoUKFCjcFX9O63PJkKRzH4Qz8scUGOVICuCmeUair+ndbnkPbIXZldmUMct+EM1isUc+DC7T6IPkxHMOKDFZU1mr2ly7MpjSOUair+ndbn5Z+EM8gtByrGq1o4r2lvgvaW+CG0sJ5JxQY+WNRV/TutzzC6F38l+EM8pwkEIabwcKHzELsnk45JxQY3tQEtIblWa3oqzW9FWa3oqzW9FWakd/6qzW9FWa3oqzW9FWa3orSDg33t45qKv6d1ud4Gd7U/D5rv5L8IZ5gce2ieQXAIcUcUGN57rWyvaR4L2keC9pHghtE4C9pHgvaR4L2keC09YPMRyDUVf07rc7zcbzuLm+a2xjWbQ5rRAocb78Jua6hQxyB8feBBxTUTcI4oMbxAIgrsmeC7JnguyZ4Ls2eC7JnguyZ4LsmeCaxrcDkGoq/p3W5q0G2atBtms8Yqepvmtu+8u9eFHYThAC0+oI0JgUfhNzXUTcULoMbw+PuuwtPFNRNwjigxvajS5pAXszvFezO8UdncV7M7xWnoOa4EnlmoxV/TutzVvwvzqz4Z86EEcCjmp6m+a277y714UdhPwPJafUEUDKdhPGPJPwm5rqJuKO6t4fH3XYWnimom4RxQY3tRxa0kL2l3ghtDj4L2l3gtLWc90Ecw5qMVf07rc1b8L8130Z8M+aJhamUc1PU3zW3feXevBQcp2E/A8lpn3wEU3CdhP7vJPwm55Oi0HTM72l2PsRmJg+E75xQY3iQOJXaM8V2jPFBzTg805q3FX9O63NW/C/NMEvCKZ8M+adhamUc1PU3zW3feXevBN6XJ2E/A8lp/ECKaBYT9U7Cf3eSfhNzydD4Z3WfZ+zhoBbP6rsdma0ts4evr9V7BsxHT/crVZY9zR3HdOKDG89tzYXsv1R2ee9aejYZnmnNW4q/p3W5q34X5rT+IEUz4Z807C1Mpgl4RygCRKPU3zW3feXevBM6XJ2E/A8lp/ECKZ8M+adhP7vJPwm55zPtXUDQCAV/qZ/+Av8AVtSODQnOLiXHJ3TigxvahIaSENTV9BaL3uPvc45q3FX9O63NZ4QgYMigMCKEk5Q4GaAwIRbxlPe7UcXvyUDHChJKBgyKAwIoSSn4Tc/LHFBj5Y5q3FX9O63Pyz8Jufljigx8sc1bir+ndBhXlXlXlXlXlXlXlXlXlXlXlXlXlXlXlXlXlXlXlXlXlFxNLyryryryryryryryryryryryryryryryryryryryryi4mgcQryryryryririririririririririrlcririrlcrjuNxV/T/01uKv6d2FChQoUKFChQoUUhQoUKFChQoUKFChQo3oUKKRSFCikUj5tuP+pf/EAEgQAAECAwQDDQcDAwMDBQADAAEAAgMREgQQIDETITIFFBUiM0FRUlNUcXKRMDQ1QEJhgSNQoUNisURwwSRg0QZjguHwc4CS/9oACAEBAAE/Av8AaMAnJUO6FQ7oVDuhUO6FQ7oQhvJlSuC7d3Z64Lt3dnrgu3d2euC7d3Z64Lt3dnrgu3d2euC7d3Z64Lt3dnrgu3d2euC7d3Z64Lt3dnrgu3d2euC7d3Z64Lt3dnrgu3d2euC7d3Z64Lt3dnrgu3d2euC7d3Z64Lt3dnrgu3d2euC7d3Z64Lt3dnrgu3d2euC7d3Z64Lt3dnrgu3d2euC7d3Z64Lt3dnrgu3d2euC7d3Z64Lt3dnrgu3d2euC7d3Z64Lt3dnrgu3d2euC7d3Z64Lt3dnrgu3d2euC7d3Z64Lt3dnrgu3d2euC7d3Z64Lt3dnrgu3d2euC7d3Z64Lt3dnrgu3d2euC7d3Z64Lt3dnrgu3d2euC7d3Z64Lt3dnrgu3d2euC7d3Z64Lt3dnrgu3d2euC7d3Z64Lt3dnrgu3d2euC7d3Z64Lt3dnrgu3d2euC7d3Z64Lt3dnrgu3d2euC7d3Z64Lt3dnrgu3d2euC7d3Z64Lt3dnrgu3d2euC7d3Z64Lt3dnrgu3d2euC7d3Z64Lt3dnrgu3d2euC7d3Z64Lt3dnrgu3d2euC7d3Z64Lt3dnrgu3d2euC7d3Z64Lt3dnrgu3d2euC7d3Z64Lt3dnrgu3d2euC7d3Z64Lt3dnrgu3d2euC7d3Z64Lt3dnrgu3d2euC7d3Z64Lt3dnrgu3d2euC7d3Z64Lt3dnrgu3d2euC7d3Z64Lt3dnrgu3d2euC7d3Z64Lt3dnrgu3d2euC7d3Z64Lt3dnrgu3d2euC7d3Z64Lt3dnrgu3d2euC7d3Z64Lt3dnrgu3d2euC7d3Z64Lt3dnrgu3d2euC7d3Z64Lt3dnrgu3d2euC7d3Z64Lt3dnrgu3d2euC7d3Z64Lt3dnrgu3d2euC7d3Z64Lt3dnrgu3d2euC7d3Z64Lt3dnrgu3d2euC7d3Z64Lt3dnrgu3d2euC7d3Z64Lt3dnrgu3d2euC7d3Z64Lt3dnrgu3d2euC7d3Z64Lt3dnqLYbTAZXFgua3pOOFmcULlWeYf7J7ufDHeYY4WZugMbFqZI1/SrKCHRdf0nmmoEMOqe8ThtzldC5VnmH/duSBByM/YlwGZAxl/Qq/sgZ/J7ufDHeYY4WZUJ+jfVSHfYqy2SHHnGhukIWtzXc6344PMWzwoUNsRspP/AMrQttrG2VrWwXwmzLusnuhQ2ljG1EiRJ5lC5VnmGB5j1mVpgAdBb/8Aahi0VAujQnM56Wf/AHdui+NvmyQYUZ0LSEgkKI+1bmxIboto08B7qXVDWFaN0IVnjaKiJEiSnTDE5Jm6FnfZHWmZDG7UxrCg7pwosZsJ0OLCc/ZrbKahbp6KLaWRBFiuEUyDROTVa7dpNyH2izPIOrXzjWoW6sFxhteyKyrJ726irTb4VmeIZD3xD9DBMqz26DaIb3tJbRth2otQ3Ys5ImyKIZMhELeKrRujAs0XRPqqpmJCc1G3RhQhD4sRz4gmIbRrVhtjrTujaNbxDDRJjub/ALU0seO52gobDaZVOE5lQYrzEdCitAiNE9WRF8SI2FDc9+y1PfaIkzEhUQ/p6fyrPyziNm98UMexpB43PzBQ7TNonxnOeWijXfEDyz9MgO+4moEe1xYLXiFC/wD9o1Vu0gAKs89CJ4X5K2guspAJAmJy6FYGBjH07M9Q6E3aVs5EcejjDw9eZQ47wJtmQ1pOs1aquZG2Ra4eXGlxZcxKgWqIIbNIZAEA1dHSt9RnNLmFsh/bnxpKLbI0IETFTS7m2k+JFdY7S+eVQbLUtNFg1jWwVgcd1VOrOZTrTFeGhz2sPE1D69aFojOiVB4LgxxMOWWsalEixYlmZEhmRdE4ngrNFfGtL3mYhlgpafHHu58Md5hjhZlQ3wmtk+HUZ5zUHRx9z4whWQlwMy77K0Q3xXh8NpcwjVJWaHOPBa6DpjDbN6ixrMYziLPIV5JsjaGyEhVlgMJro5qsDCCdvUmMZDbSxoaOgXbqRGwbbYYjzJrXGatVobuoYVmswc4V1PfLUArTaDwhFhxbUbLDaBTSNb/yrLRwfbtLDixGaTWPq8VZ7TTa7PDs9pNpY7Nr262DxW5fvNvP/vI6tyreObT/APKt1rg22yQ7NZ+NFc4cWWyjEbYd2IsS0amRGCl8lCiufaLdbrOybKJN1bRVpiiJYAd+PixDImG0Sa1Snu9D+1nUWI2x7tGNH1Q4kOTX9CsMZlo3XtUSHslg19P/AGpDebHVCiQ3lkyWva2ahxa7fVEa6HNlMMO+rpv3Qd+i1lLjW4TkJyCtVpZGs0RjRFqI1fplQnVwmupLZjIi+1sLpw9K+qKJNZzJvK1y3uH/AKY0WvWmiTQJz+5vAtEOLFZDMWkPJAZSc/FWcPfaZxTFJY3UH0/8Yn5K2WyJFivY10oYOXStNEDy9r6PLqVji74gw4nPzpzg1syjEYDKa0jOlAhw1YnCppB50AAABkPYbufDHeYY4WZUPR1/qzp+ys9qimKGQ+Kw7bW84Q3jGjRA2K+AxjdQy1o2lrbIIljqbGA/VcedOisis47eMBqIULlWeYY5A5hZItac2g3BrW5NA8BdIdCpaDMNE+lEBwkQCPusskGNGTRr+1xAcJEAj7qQGQ/7ViQmRW0vExngZAhw4jojWyc7M4WMbDEmiQnPAyDDhxHxGtk5+0UIMNsZ0YN/UcJE47TuOHOqs5DelpUPcaKXfqOYG/ZQYLIEOiGJBOaHZrQjpMkYTT0oCU/v7fdz4Y7zDHCzNzIlDXCnWfq6FZ3hhfN9M29ChRNG6dNQ6DdC5VnmH+ye7nwx3mGOFmcULlWeYYJKSkpKSkpKSkpKSkpKSkpKSkpKSkpKSkpKSkpKSkpKSN8lJSUlJSUlJSUlJSUlJSUlJSUlJUqlUqlUqlUqlUqlUqlHVfSqVSqVSqVSqVSqVSqVSFSFSFSFSFSFSFSFSFSFSFSFSFSFSFSFSFSFSFSsr6VSFSFSFSFSFSFSFSFSFSFSFSFSFSFSFSFSFSFIINCpCpCpCpCpCpCpCpCpCpCpWWLdz4Y7zDHCzOKFyrPMMHN+wO/Y3fsbs7hn8mcrm+0dtYt3PhjvMMcLM4oXKs8wwDK4xobTIvE02Ix+y4H5MkATJknWyE3KbvBb/wD/AG/5Qt452H1TLTCf9Uj98TsO+4PW/hC1QnGQdn9vlC4BVD2DsDiGtJOQW+4PW/hMtEOI6lp1/JZJ9rhty43gjbTzMW/XdUJttadppCa9rxxTPE7O4Z/Jve1gm4yC00PrjUmuDsjP2jtrFu58Md5hjhZnFC5VnmGAZXQILItdXSrO0MtjmjKSjl4iUNcQYg4v2TI73mYIFXWyEk6O98JzhqAaD91pXGzPiDa16uhViEJti16siZ/laaJVQKJzOv8AC3xEkNjXT/KNocDPOQI1ZHWEIsQuZOQ40j99SFpeWzkNeX2UBxdpKjOTubHHtDYI6XdCEONajU48VMscJuYq8UIbBkxvojChnNjfRRLEw7HFQfGsrpP1tUOI2I2puB2A5KBDEQumHES5kwSjM8VaHFkBxaZFNiRAZSJqdJtermRtBonKQcCWyK3yQXcQ0if8J0SKKNTRNw51Dilzy0iXtXahezLG7BaPd3+ChsDyZmSsvvLVaHFoZIkTdLUhGiNHGGQLteckYzpgOEjMZFNtTi2ejzlStJE0zGkN1zmokSIIr5F0mkeCNppbOnrfwtNEEQtIE+KAJ6lvp2VGvX/ChPc58ScpA6scaM2C2Zz5gokd8U8Y6ujCHFpmDIqBaa+K/awuzuGeHn9hz4Qo8LSsAnKRmhZCBKoEDLUoEIwgRVMc3swZhO2sW7nwx3mGOFmcULlWeYYBlc6xQ3OJmQoNnbBMxMlSRY0iRaJeCpHQFJBjROTRr+yDWjJoTobXSmMlS2UqQqGylSJeCobr4o156kAG5ADFHi6GHPn5lZ4BjO0sTL/OJzQ9tLhMLjWON0sKBDgCMr3YRZI7cngflMskURA4kZzRAcJETCkCQehOgMIMhTVmQtGyqqkTQgwwJUCSbDY0ktaATj1zGpcaWQn4rXPLUuNLIT8VrnlqXGlkJ+KdM8ytBNY8FZ+VTMsbsEVtcJzRzhCxxhk4eqgWV8OMHOIRAMp8ypE5y15LQM1UimRnqWhh6+INeaEJglJo1ZIwobnVFgJWih1VUCZRgMoLWgNn9k2zwwwNIqQaA4uA1nFEiCGwuKe8xH1OTGOiOpaJlQ7K1ktJrKDGtyaEWg5gJ9lhuy4p+yiQnQjJ3rdZo1YpdtDA7O4Z3HK/nvFxv57xlcdSMYB4ZPjFRLVGbHoAEvBOjhj5O1fdTncMsL3thibjJVxYmw2gdLlvcHlHOemtDWyAkE7axbufDHeYY4WZviRtPFsbYILH9MSHqyW6YiNtz9KWl0hsiV0LlWeYYBl8pF/6i10DIakAGiQyxxoelhlvorFF1GG4+F7vmrZy34Vl5cewd8tbYlUSjmagCTIZqDBEFkufnKe2phCgxNIyfPz3vYHtpKiMMN5aUxxY8OHMgZgEXuzuGdzxNhAMioL62a9oajdz3i43894yujPOqGzbd/CiQxCszqc+lC2PlsgnpVl/VY8v1zKpdZ9bOND6vQmPa9s2mYQywRIoh/dxyCZCNVcXW/8AxeMk7axbufDHeYY4WZvO6NqJYTF1s2dSjRokeIYkR03G6FyrPMMAyujx91W2h4g2dhhz4p//ABTN1LeLdDs8aHDBc4TEuZbobqPgRxZrMyuMf4Td1LXZbQ2Hb4QDXfUFula32aCzQy0kR1IJVjtNoFuiWO1Oa9wbUHNElZrU+1WiIWS3szig9Y+zeaWE9AVhbNz33TRtNImYUQDwTo4aZUucZTkFp20tLZuqyAWmbow/Xr5ro0zBfTnJaqWhoOkmhkJ53O+Ympq2ct+FZPeB7B2G3bsOcYsCywyaQaonQrDusYkcWa0wtHEOR6Vbd1DAtG9rPC0sZWfdeJvoWe2QNE52RW6O60SxWnRNhNcKZ6yoMVsaCyI3JwmrZu26BbHQYcNrg3VMn2bjU4u6VYmTiF3VvcdBap/S/BbGcQP6LrK6cAfa92dwzuOSfCNVcM0v/wAqdo6sP1Wmcw/qsp+4yvFxyRtMLpn4BMjMibLtfQue8ZIkNaScgoIJnFdtP/wrT7u9SVi2HeNz4Ra7SQtTucdKhRREHQRmL3xtdEIVP/wocKjjONTzmVz3jJO2sW7nwx3mGOFmcULlWeYYBldHjNgQHxX5NE1uNBdaLRFt8XMmTVZdf/qWLV0ukv8A1EBvaCeetGyNt25sBsQlrg1pDhzGSi2fQx3QW2h0S0RW/qRXfQxWPdCxTZZYJI5mzGfs4/IP8FYOTd4p9UuJKf3Vm0mvZpqM0/8AVjiH9LdblD1WqNPPUoTQ6G59VMnkgpkw5sm8xLQehMdWwO6bqRVOQne7DE3RiTivhWeuDBMnuq9ZKLao4bpYUFjoNNVRiSVljOtFlZFcyguE5YY1vojPhw4D4ujE3lvMo+6cKFZ2xmtfEDm1cUcyaamg9Psn5pmatnLfhWT3gJx1ppM8TsNpsVrsBtBhgPgRAQT9lY90LPaLRDhx7MGRxqa4hGBZoUR1pLGtfzvWvdjdVj4bZQIP1LdWEI27cKEfqAC3Ntu9bDaYUXbgZD/991EgubBgx37UZxPsnibCB0LeUb7eqssJ0JhqzJvjw2vbxuZWeKHtkBKV8ZhfCLRmt6Rft6qzQ3QmkOvdncM7jleQHajkoJocYLubZ8LgokYM1bTuqFonRNcY/wDwCAAEgJKJCET7O5ioLy6bXbbc7xko36j2wenW7wuj8g5SVk2HeN74IfJ2y7rBStA54Z+60UR/KRNXQ1NY1gk0SF3PeMk7axbufDHeYY4WZxQuVZ5hgGV27EK1WkQ7PAhksJm5ygQW2eAyEzJokt0LDaIduFusYqdztT7Pb91Y7N8QtDCaohMKATDZUWjitCZYIhsEes/9VHHGP/ChQrTHNigGyvh73dNzzl7N4qY4dIVgdre29rGtnIZ5p8JkTabNaNpZTLi9CfDa/aCAkJC76r3YZxbLBtVl3vEe6I5xhlo1GaiwIhs9lsABpkNK7mkEBISGHTCw2q2aVrv1TUyTZ1fZPgvhf+mzDcDXRl+VD5JvhidtJu1e/NMzVs5b8Kye8BPzTdrE7BmFG3/YmWiFED40F4lWdclAgWq37oQrREg6KHDl/C3XNttFoMFsGIYDeqNpWe2WuAxkKHuY5rPyrZAiu3es8RsNxYKZulqW6m5sWJugHQWEti7RHMt2LI+VlZAhOc1glxR4extVrg2RlUR3gOcoW2zmzG0CJ+mMz0KHbrPFDy154gqPFKhRoceEIsN02HnUC0QrSyuC6ps5TvDQ3IXR7XAs0tLEDZp9ogw4WldEaGdaa31A0Gm0rNH1poxGNh6QuAZKc0x7YjA9hm05EXOzuGdxyv51Eh6QZycMitLEZqfCJ+7VVGiamt0Y6TmocJsPLPnKN8b9OI2LzZOvnJszkoAJnFOb/wDF0bknKSs2ybxlh57xknbWLd34Y7zDHCzN7IMSI0ua2YF8LlWeYYBl8o//AKa2VfSVn7AXu+UdtJu0i6RQdMp+aZmrZy34Vk94Cfmm7V08DsL2NiMLHCbTqIQ1CXtt1GsMQERtHHEN0gRqcFpGWiyWhkV0OCRFAdFYJtcU+NFa+02d0fTs0BfVLZUJz7PZhZGT/wCqa0wz0T2luQwQ4EZjcmx3AYbZCO/nRYLoT38QPhv5uhQoli3jCtDoVAhuNLM+N9labO5m5keJEbQY0RrqB9OtOc58Dgwk1Mcaj/YNY/4W5fwyz+W52dwzuOV/PeLjeRPUclDdoXaJ+X0m5/6z9ENkbZ/4vicmVJQcjeMsPPeMk7axbu/DHeYY4WZvfaYcCM1ggtlDcrQGh7aWhs2AyF0LlWeYYBl8pHg6aHLn5lZNIGFrxqGXs3YaHZ/f/lHSflCvnmmB4InOUsDhxsieiS/U+6nEnLWv1MteS/UmehMnRrzvdtJu0nbSZmn5pmatnLfhWT3gJ+abtJ+abtIukqhc75SPZ4VpZRFYHD/CbAhNhaIQ2iH1ZalDs0CExzGQmNa7MAZrQwxRxG8TZ1ZJkNkOdDQJmZlhtNgs9qcHRGcYc4T7BZokNkN0IUs2R0JtgszYboYhcVxBImVoIWldEoFbm0k/ZQ4bIMNsNgk1uQudncM7jlfz3i4386c1r2ycJhb35hFiU9E1DY1jZNF7tlUqHeMsPPeMk7axbu/DHeYY4WZv31Glt+oCe9z3VOMzdC5VnmGAZXGLrmGzYMymNfpKuNSeYlRC4M4gmU9xEQa+jizTnmvU7opHSmucXO43MVCdOYM5hRHlkvvq/K0z9ez/AOFpXZzGXR91pXynxdS0zmz4wOtQ3lxM+bUfHE4ylLMrSnoyzxF8i7VkFW6dMhUmmps73YZnoUz0KZ6FM9CB+174sRrpCESOlaeL2BWni9gVp4vYFMixHOk6EWjpwOzTc07NNzTs03NWtrjFEmk6lZWOEcEtKfmm5p+abmnZpo13OwEVAhERgNcQAN5+nxUCNpqtWSiaSRolkoZkHyrkRqn0ptej11SmOlSiBjHEunLWmmbQZS9i+c2yK0vgmxC6fgmxdWtaUz5lpjLUObA9zg4Bq0yY6oHxwOzuGfykvau2sW7vwx3mGOFmcULlWeYYBl7EicvthAliLZrRj74qJk/daP7mfSgJCV7v2N3yj4rIZk50lviD1lvmD11viD1lpoLtVWaAAwPjwobpOdIrfNn6w9FvmAPr/hb6g9dNtEJzpB+u52dwzuc+kprpnLAXEOyQiZdOAuIdlqkhF1a/yhlgMSRKaZjAXycUHzMpYHuLSeiS0n2wO2sW7vwx3mGOFmcULlWeYYBl+wO/Y3fKFrXZtBWjZ1G+i0bOo30WjZ1G+i0bOoPTCWNdm0H8LRQ+o30Wih9RvotFD6jfRCGwGYaPS52dwz9rL2cvYu2sW7vwx3mGOFmb97wq6RCJlzzP/hR2NY8UagWh0roXKs8wwAqpVBVBVBVBVBVBVBVBVBVBVBVBVBVBVBVBVBVBVBVBVBVBVBVBVBVBVBVBVBVBEzvmqgqgqgqgqgqgqgqgqgqgqgqgqgqgqgqgqgqgqgqgqgqgqgqgqgqgqgqgqgqgqgiZ31KoKoKoKoKoKoKoKoKoKoKoKoKoKoKoKoKoKoKoKoKoKoKoKoKoKoKoKoKoKoKoLO+pVBVBVBVBVBVhVhVBVBVhVhVhVhVhVhVhVhVhVhVhVhVhVhVhVhVhVhVhVhVhVhZ4t3fhjvMMcLM3m0wS6qTpn+0FRniI8UzkGhuu6FyrPMP9k93fhjvMMcLM4oXKs8w/2T3d+GO8wxwszihcqzzDBJSUlJSUlJSUlJSUlJSUlJSUlJSUlJSUlJSUlJSUlJSUlJSUlJSUlJSUlJSwSUgpKSkFJSCkFJSCkpBSCkFIKQUgpBSCkFIKQUgpBSCkFIKQUgpBSCkFIKQUgpBSCkFIKQUgpBSCIvAUgqQpBUhUhUhUhUhUhUhUhUhUhUhUhUhUhUhUhUhUhUhUhUhUhUhUhUhUhUhUhUhUhUhUhUhUhUhUhUhUhUhUhHVi3d+GO8wxwszeyzRXtqkADlUZTT2OhupeCDdC5VnmGDm/bOe4Z/tjsr25ftjs8W7vwx3mGOFmb3BpcHGGXQ3Boh8WclaRS2Cx22G6/wDi6FyrPMMAyUR4hQ3Pdk0TMk+1wYYglztUUyYtMzTmD9YbVc+M2G+G12cQyGDSs6VpmdK0zOlaZnShEa4yB+YmOnNTHTgF3PcM7o9shwIghuDy4icmNmoMURmVhrh5hLDGjNgMrflMBOtDGNiOfU1rMyRj0zOlaZnStMzpWmZ0oRGuMgfmHZXtyR1CZTN0oD3NHHDXGTXlsmn83MitfEiMGbNRvbFa+LEhjaZKac6lpcchrUKI2LCbEbsuExg0zOlaZnStMzpWmZ0oRGkyn827axbu/DHeYY4WZvbEeydD3Nn0G+FyrPMMAyRExI5JkF9obEgc9kYWt809X8BaTTwDanEthxozWvPQwf8A2o1EPfbLK79HQTMnTAcrRDMBlk3uKopcTxjmaVufozZQWOLnE8cuzqudslOrOoSA6VxmhoHG6ZoV0Ea/FSimfNqVmrr4+c/kzdFhkmbej+URFp1Vfb/9NSIhmbS8zyVBls5/xrVDnEyZTzfhMqoFW0pPr2uL/ODnuGd1sMt04X/UCB+keMZdKtT/ANCC+FG0tpDpQy36ulHQmz2SuI6Top0pJlxpc6iu0UO2Nsrv0BRkdnpUqG2jRPghugcSyE8u/KEFtmfYYkOquJxXzdtakRZ3WFkV7/8AqzEFU3a51ZSVqaIkDdGrXREBH21BF0CBarGWPAgccTq1TUR4jb4oiGk2pgqafBWqGGWyHAkzQCHNoivIBM1ubPemuIHio0kGeq5+wfBOD3ahqHTzrjCkDX0krjaM6nz/AMIiKftq1SKs9VQrzn8i6G+okc2z+c1RFEwJprYlQOuSOsZyTK/rI/F7sr25KJLROqBIlrAQitgwIWgtLY8IkAQIgm5Ssz3Wl9rilkZsQgcaRaOaSFlhWm123STMqZa8uLmtI+PvQRiwsMGf6j6QXIa4VmZFig2YxXAkOMvsJp+ihttmgd+m2JDOozl0qLHZFt8ocQOAs7pyK1u3nDfo9FvcECI+lpK3NnvTlA8VGkgz1XO2SnB51DUFxgGga+klCrRu1PREU/bVzFWeqoV5z+QNzmv0pc3nACax7QAJ6stepUO4u0cjmhDcA0a/vr+6hVEGrwTw/wChw/OB21i3d+GO8wxwszihcqzzDAMrgACSANeaobTTSKehNhQ2spbDaG9ACpGrUNWSDQJyAE876G9UKhvVCob1QqG9UINAyHz/AD3DO50Nj9tjXeIQhsbKljRLoCj2VsWJCdxQGvqIltak1jGNpa0BvQAmwYbAQ2G0A5gBUjVqGrJaGFVVo2VdMlS3XqGvP7rQwqKNGyjqy1LRsAlQ30T4bIgk9jXD7hAACQyvob1QqG9UKhvVCob1Qg0DIKY6VUOkKodIVQ6Qqh0j5N2V7crhBhB9Yhsq6Za0YUNzw8saXDnkpCZMhrzRhQ3ModDaW9BCMNhZQWtLeiSENjRJrGgdACbChs2YbR4BOhQ3tpcxpb0EIAASAkL6G9UKhvVCob1QqG9UINaMh827axbu/DHeYY4WZxQuVZ5hgGX7Zz3DP5S0vLIOrPK5ranAKja+yoFEwcrrO8tigcx+Sdle3K6Y/anbWLd34Y7zDHCzN/F0jxXRTEDQAxuStWtjDqPGcKgJTuhcqzzDAMkclN8ueck3nz/P7Tz3DO6oAyWkZ0/I2lhiQpDO5pLTMLTPnPV6IvmwNpGq6zwy6KDzD5J2V7clmFoz+1O2sW7vwx3mGOFmb99ktNUNjn8zi1RIrokqpaspCV0LlWeYYBl+2c9wzufDqdNaI6+MJnPV8lIKQ6FFZDcAHKQ6FIdHybsr25XVN6f2p21i3d+GO8wxwszihcqzzDAMrnMJOpNEp6pftPPcM8BMhNAgiYKn8jaITokQS6FC1Ch2Y/n5R2V7ckdYWj+90x0rV0qY6Vq6VMdP8rV0qY6Vq6Vq6VMdK1dKmOn+Vq6VMdK1dK1dKmOn+Vq6VMdP8rV0qY6Vq161q6VpGaXRa53DL27trFu78Md5hjhZnFC5VnmGAZXTHT+1c9wzwuYDryPSE3TCPrqITXBw1e3caRNWirTGeasgrY4HmyQdI0uz6en2M/ZOyvbldWPlzkbja2Tq0fHTX1Nmhl7d21i3d+GO8wxwszihcqzzDAMrnNqTRKf7CZDNaRv90umSBa7Izvc6Woa3dCa0jMzN3PcM7n6SrijVLpVLuZrpc3jdFdRCc7oQtcWfN6IsDtfP0qbm7WsdIQMxMH2u2/8Atb/lWr3gqxZPRbUJFAlppcfA4zqGsqLDiRIlTZyQLwNbZ+C0g55jxCBnkcbsr25XUff5c5FHU0o5oapdBTdkYHxWMcGnM+zdtYt3fhjvMMcLM4oXKs8wwDK6YCBn83pR9M3eCr6WOWlZzmXiEHtOTh6pz2tzKm92QpH3QhjM8Y/e4sa7MKhw2Xn861+plIeKa0N/8389wzw2n3d/hgLNcxqKrLdsfn2bz9IzKApEgrV7wVYsn3ETEiplmp2zzHDXVsCf35kGa5u1lPiPLzxj6qzkugNJzuMNp+kKjoe4I6QDmKg2hz4tJGB2V7crtIPkIMbSl3FlLG7ZKdlJHMoa2SUIzZ9xgJhvdUW5ZJjq2B3snbWLd34Y7zDHCzOKFyrPMMAyudDqKAl7ebZymJ4dI36RUfsv1OqxcfqN9VUeyKr/APbd6Lju5g3+Vom/VxvFSvLGnNo9EGNbk0DFqwc9wzw2n3d/hicyQnD1HoVndE0knz/PsCZCZTB9RzN1q94KsWT8HJeT/CqCL9cm8Yqie2Z/bmvdtFWX3ZmCI4MYXHmTbWyrk5TwOyvbkswtGPaktAmuM7IUhUhgLhn0lNiExA2Q14zkVLj+ARzKaOKFs0u5sjfyh/s/yom2VB1TH59k7axbu/DHeYY4WZxQuVZ5hgGVxcAZIGftXPa3x6E6otJdqHQE0McwcVqoA2XEflfqDna7+FU85NA8SqAdt1S1fITA502E/S6WrPmKrIzb6Jrg7K7nuGd0R5Y7VKSMRwMpjV/N1o93f4YrQ8w4JcM020xHPAdIiamWbWtvTjPHdLmGd9q94KsWT8D5yUKFED+NOSAkJSwO2irL7szBafd3oZ4HZXtyu0n29pEk5haXSmoLRCbRVO6JsFc8xza1MYjkhm4o5lN2QhItkmTlI8yJrNIy5ytQUTbKGprHeydtYt3fhjvMMcLM4oXKs8wwDK4tqzQEvZue1gm4geKm5+zxR0lNYG/+VGeXQyIev7qzE6Ol2ftCQ0TOSa4OE2mYuraPqHqocZkQkN5sJ47pfSM8PPcM7pa5qkdAutPu7/DFbPdiofKN8bqSzZy6qa4OGrA90hqzOSa2kSvtXvBViyfgimUJxHQtLE659U3W0YHbRVl92ZgtPuz0M8Dsr25XUDFFiCEyqU0x1bA7pwu4wL/wFC27omwVD2woeqberidqaU0cQJ2ZTdkIZKJptM2jY574m2U0VQpJhmwdPsXbWLd34Y7zDHCzOKFyrPMMAyuc8NKBn7IuAEyrbN2jJ6dQWknsipUz2zP7cydrYQEG/pgFB0jS/wDB6fZTVodXAdLZHOrKxroAJCoZ1B6KTer/AAocGl7jl0SQfrk7Uf8AN73cw2imgNEsPPcM8Np93f4YrZ7sVD5RvjeW65jU5NdMyOp17OMa/TBaveCrFk/BG5B/hc3YHhgdtFWX3ZmC0+7PQzwOyvbkslpJ3zU0YnM3WU50hx5OnzJsTX/apqamnn6RzqJLRqFt3RNgqHthHVEB6dWKLsS6dVztopuyFzJzjUdabsi6JtlQ9gJup7h06/Yu2sW7vwx3mGOFmcULlWeYYBldIFAS9iSAJlTmZu/+LVGhaSRiGX2CAkJXRuRcoHIhEAiRUzD2tben2DnBo1qkv28uqogDoZByUFrWQgG5X2Ll43iiA4SKmWbWtvSiQBPmTB9RzP8AGLnuGdzolGYMulaX+0/e60e7v8MVs93Kh8o3xwOAcNaMTR7eXShEEbUMufDaveCrFk/BG5F/hc3YHhgdtFWX3ZmC0+7vQzwOyvbldIdF8aJomVSmh+qxpmQDzIAASCjcyhCYcCmmRoOf+b2a+P0/4UXYULbuibBUPbCeKmkJpqaDhdriNHRrudtFN2Bc7bKbsi6JtlQ9gJ+ql3Rge9rBNxkEDMTGB21i3d+GO8wxwszfDhRIs6Gl0r4XKs8wwDK57qU0znPm9gXgZlceMZypbzTTW05BRua+NyLlA5EXwIbmOcQfwg+ZlKR6ME1GiukNEJ/dMBlU7aufsFQti+xcvGvMB2nDhs9GPnuGdzoYc6ZJ6Foh0m60+7v8MVs92Kh8o3xwxWB7JOMlAhNhgydPDaveCrFk/BG5B/hc3YHhgdtFWX3ZmC0+7PQzwOyvbldWfte98jIiYTHVC6NzKDzpwnlmMk11QT+MaPW6LsKFt3RNgqHti5upzm/nC3W9x/FztopmwLnbZTdkXRNsqHsBHjAhMdNgnnfE0cXiunLpTCKZNyGB21i3d+GO8wxwszfxZtEQkMk2nOWXN91a6v0S+ddOueed0LlWeYYBldITyQEssb4gbqzd0BNhvNsm9urO+M+inizvjci5WfkRfBiVl3FkiA4a1xmf3D+Vp4dUp61U52yPyVo+salbWucxtIJ18yGVzzSwlQnVQwZSvsXLxr3tfv8AYZGUsfPcM8Np93f4YrZ7sVD5Rvjht+0xWHl/xhtXvBViyfgjcg/wubsDwwO2irL7szBafdnoZ4HZXtyulfF2goWzdG5lB57nkQw6JJQX6RlcpTui7Chbd0TYKh7YufqLXdGGHsT6ddztopmwPC522U3ZF0TbKh7AuGqIR067jxzSMucqKJSAUHI4HbWLd34Y7zDHCzN8OPEhbLv+USTmboXKs8wwDK57iDqOvoTTOfOnGkTQMxO/JVOfsah1k1gbl6qZ00r7Vk2+NyLlA5EX2XN95gtMSuWu+KSAJXxuSd4Kz8iL7Fy8a8k6YDHz3DO6YHOq29Ya7rT7u/wxWz3YqHyjfHDb9pisXL/jDaveCrFk/BG5B/hc3YHhgdtFWX3ZmC0+7PQzwOyvbldWenwvi7QULZujcyg89z3UjJMfM5arouwoW3dE2Coe2LjrEimRmuiFgnMXxDxD99V7topmwLnbZTdkXRNsqHsC4jW05STpk0jUOcoahIBRcwoWRwO2sW7vwx3mGOFmcULlWeYYBlgeJsITNgLSN6fRaaqYhtJPSoDXPJ0uuXNfpDvmjmvtWTb43IuVn5EX2XN99R0sua+O8sAlfG5J3grPyIvsXLxr3RCLQG818VxaNWDnuGd0RlYRhuM8td1o93f4YrZ7uVD5Rvjht+0xWLl/xhtXvBViyfgjci/wubsDwwO2irL7szBafd3oZ4HZXtywxdoKFs3RuZQee6NkFB2jdF2FC27omwVD2xcdQQc2ritk486m8Ztn4IPDsiiWl4bVrGuV7topmwPC522U3ZF0TbKh7AujwhFlxpSQy1XRswoORwOzxbu/DHeYY4WZxQuVZ5hgGVzpz1TyTedWgygkTzUBopyrPRzBCGTtH/4jJSkoL66tQF/+tvtWTb43IuVn5EX2XN95f/1AZIeN9q2WoZXRuSd4Kz8iL7Fy8a9/vbb476GjUChlfz3DPDafd3+GK2e7FQ+Ub44bftMVi5f8YbV7wVYsn4I3IP8AC5uwPDA7aKsvuzMFp92ehngdle3K7jS574u0FC2bo3MoPPdFyChbRui7Chbd0TYKh7YudslN2hcRzyVMPS6XXVe7aKZsC522U3ZF0TbKh7Aui7ahbF0XMKFkcDs8W7vwx3mGOFmb4sCcQw4EFxozcNc1aLO6zvAOThNpuhcqzzDAMrqgCnODWzOSiVRITnnUFA5Ft9l+u/8A1t9qybfG5Fys/Ii+y5vvPvgvtWy1DK6NyTvBWfkRfYuXjXv97bfatgeKGyL+e4Z4bT7u/wAMVs92Kh8o3xw2/aYrFy/4w2r3gqxZPwRuQf4XN2B4YHbRVl92ZgtPuz0M8Dsr25YYu0FC2bo3MoPPdGyCg7Rui7Chbd0TYKh7YudslN2hdzYHbRTNgeFztspuyLom2VD2BdF21C2Lo2YUHI4HbWLd34Y7zDHCzN8eIyK6sBwcdrXqUSI6K6p34A5roXKs8wwDK4tmU5odmE6kDjZIAAarjxQSmhspt57+IYh6wvdRUGu/F7yGt15ISpFOV7KSJtvk2v8AuF7yzUHXukGmeSbTTxcr2UHWznzv4mk/uvfRqD+fBz3DO+LVPVP7S6bntrYW9KFgM9b8MWHpYZbkmWIteCX5YY9n00tcpKBZtC6qqeGNZtI+oOkoEHQg65zwOFTS3pW8P7/4Q1DA6wzcSHqGzRww0c2CIzSMLTzoWHXrfgdle3JHZMlS7o8Pte9lSYKRc9tSY2m54qCY2m5wqbJMZSZm46xJMYQ6ZuOsJsMh1+i1/a91icYmo8VDULnQyXIahc9hLphN1CVz2VGYTRS2Vz21JjaRgdni3d+GO8wxwszihcqzzDAMryZCZRaIjpgzHOsgiZCZTpRdnP7oAASFznN2SmQ6c5Tuc4NlPnTYYqnm3muJAGtSEUhw/N7iH7J4wyTGhoucRlOU0xnGqPNkZ3OeGZprAXVCVN2QTgIuzn90ABlc4h4kDrTG0j73OcBqJzTIYqnql9NxMkIYL56i3Bz3DP8AbHZXty9hMTvqHTfPXK+Y168scxKdz3thML3mTRmb8sAcDlfMXhwOWF2eLd34Y7zDHCzOKFyrPMMAyvewvfnxb3Me58p8VNaGiQui1U8X8pkKnWdZvbCcSHPN4Y6ISX6vspSuiB0uKUxlDZXiHx5uM5ZXHJNhl2uJ6LK57HudKfFmmtDBIXRA45T/AAmtpFzy4N4ommQzOp8ibnTpNOabDrdU6fg7Dz3DPC8vDwW6xJVRQJc/gmTkZ9OB4JLZT9UYkTmb/GE6WZlPoVcUt5/TDS6rUXbX/Ca95IBH8YIk9GZZoVh0ubAclVEaNVRUOdPGzngiTqEp/hVRHahq6dSGQne7K9uWEsmZzTW03GH/AJmmspM7jDzQhyM7iyZnNNhykTcWTM1o/vc4VLR/e45LR/e6PB07WtqIE5mXOnbnv0ZDYs9WqY+0lZoZhWdrHAAjoREwtH900SCImJKgkzJ/hNFKOsSWj+6a2nnu0erPJNbTgdni3d+GO8wxwszihcqzzDAMv2znuGf7Y7K9uX7Y7PFu78Md5hjhZnFC5VnmGCaqVQVQVSqCqCqCqCqVSqCqVSqVSqVSqVSqCqCqCqCqCqCqCqCqCqCqCqCqCqCqCqCqCqCqCqCqCqCqCqwVKoKoKoKoKoKoKoKoKoKoKoKoKoKoKoKoKoKoKoKoKoKoKoKoKoKoKoKoKoKoKoKoKoKoKoKoKoKoKoKoKoKoImd4MlUFUFUFUFUFUFUFUFUFUFUFUFUFUFUFUFUFUFUFUFUFUFUFUFUFUFUFUFUFUFUFUFUFUFUFUFUFUFUFUFUFUFUFni3d+GO8wxwszihcqzzD/ZPd34Y7zDHCzOKFyrPMP9k93fhjvMMcLM4oXKs8wwBSUlJSUlJSUlJSUlJSUlJSUlJSUlJSUlJSUlJSUlJSUlJSUlJSUlJSUlJSwSUlJSUlJSUlJSUlJSUlJSUlJSUlJSUlSqVSqVSqVSqVSqVSqVSqVSqVSqVSqUReBNUqlUqlUhUqkKkKkKkKkKlUhUqlUhUhUhUhUhUhUhUhUhUhUhUhUhUhUhUhUhUhUhUhUhUhUhUhUhUhUhU493fhjvMMcLM4oXKs8wwD9sNwz/bDle3L9sdni3d+Fu8wxwszihcqzzDA1EyEymWyzRXUsjw3OPMHezDgZyIMs7yQMyq29YKtvWCrb1gq29YfMOzuGf7Y7K9uSJDWknIKHuhZYr2tZEmXZcU31t0mj+qU8LIjYgm3plgrbpNHUK5TlcHtLywOFQ1kYdIzrLSM6y0jOstI3p+Udni3d+GO8wxwszihcqzzDA3JRuQieUqDCjWmw2aGLM1g4p0tQ5lpo7YVstOlcdE94YzmX6tmi2Y74fG0xk5rvDMKy6aNBhWp1rLS862HZ8EbRE4LtUTSGtjngHo1phjRLdF/WcIcNrXUDn1KDHtb4cK0DSkudrBLaJdCiPtGhj2gWl4LI5a1vNKajxo1iNpa2K6JKGHNL+YkyTX2mE48tSYbidKW5yzEkwx4bLHHNoe/SlrXtOWsLc+EWx7SdLEMopEic9QvjmTzITKbXrLvwEHkubzatYKL38aWvX0Jr36Sl2XSofJj2pui1tPFylOSMZ4bzf8AlVP2vHUmGps+lFz6pBv5wOzuGf7Y7K9uSj+7xPKVudptBAqjwjDoHFA1oB43NFs08XStf1tUqpST/wBZ1tfEjvY6EZMAfKkSzWliUbbvcas+fpTWugbyjCNEc6KQH1OmDMKG+0PhC0VSi17To0hnlSoro0WLanEkGG6TTpqKPwoYiR7fKJFdJsJji1jtRKqiRRAZpYgqtL2kh3NrUV8Syi1wWRX0iiTiZlk81DYIO6cOHDjPc0wyS0vn0a1bat8RXVuc1jdmHFpdD+8udBkOLunBfpInHgVTqlPJWqK/9W0wzE4sSQe6LLnyDVCgs4YjGp86Wu2z91vg8Cg6U6WunPXtK1FzY0aK6I9zGHOFFkYf/wAUNYRyKdVk0flOqDGiZJ6ZJ5iT4oNMlDr1VTy9pEaXES8D4IGLLXV90BEcBVOcx/hQi5zZlPr+iX5wOzxbu/DHeYY4WZxQuVZ5hgaiA4EHIpjGw2NYwSa0SATYMNgeA3U8zd91BsNngPrhw5O5tc5IWCzCNpRC40556p+CfufZYj3PfCmXZ6802Exj3Pa3jOlMoWCzCLpBCFU5/afgt7QTDcyjiudUR906BCc9znMBLm0nwUOwWaFOmHmKdZnqWgh0Q2U8WHIt+0kLNCbHMYNlEOZne6G1xmVoWLQsWhYtCxDUPkTrEsTs7hndb9DwhCFoqLNGdTZ5z+yhx41nhnQsJhvjhkIRZ5SWntb42gh6GtjQXuM5fhWiNFtkGziTGzjUPaZ5j/hWhz2w7c2HSxzIbZuE+hWXS6BulLSZfSrEdJEtMbmdEpb4DUrAZutX/wDO5Otdpc2NHhNh6GESJOzdLNRt0IgicTRw2Foc0xQePP78ytNtjQ4tP6UMUggxJyceiaYS5jScyLoxkxaYzAbM9KMWRIq1jXmjFcA0nnz15LfJzkZeKs7qufV8hEeWFvRzoRnEu1DpHgtM6kkNHPLWhEdVrAlMBHUMppjw/IGXTe7K9uSImJHJMsVlhvDmWeGHDIhq0MLRaLRto6slbLHFjxSWw7MZiQc8cZqZZobIbWlodJmjmecLRMIaKBxNn7Letn02m0LNJ1pKJZYEWIHxILHOHOQqGh5fSKiJTWhhCX6bdRqGrnUSEC2JQ1mkeJTcJz8VZLC6FadM5kGHJtIbCUWywI7g6LCY4jnIUSzwotNcNrqdmYyRsdmc8vMBhcczJOgQnxGxHQ2l7cnSyRsdmMQxDAh1HMyT7JZ4kTSPgsc/pIv0bOhaJnQtEzoWjZ0fKOzxbu/DHeYY4WZxQuVZ5hgb+2OzuGdxgA2pseZmG0yUaAI2jmZUPrUayF8bTQozoUQikkCcwhYYbYcFgLv0n1z6SnWRjnWgkn9cBpUCE6FBodFL+gkKzwRZ4DYTTMN5yt5PbEiOh2p7A91REgn7n1GIGx3shRDN7BzqLYjEmGR3shubSWZj8dCiWEkUw7Q9jKaC3MSUOGIUJsNuy0SFz21iS3v/AHI2YHMz/C3qPt6LewPR6KHD0fyEposac2hSHQqQOYYXZXty/bHZ4t3fhbvMMcLM4oXKs8wwNWQWkbq15oODsj+0uzuGfyj3UMLjzJ1rik7UkLRHOTj6LfMbrrfEfrH0W+Y3XUO2RA7jmY+Sdle3L9sdni3d+Fu8wxwszihcqzzDA1ObUwt6Voj0pjKefml8oZDNVDqn0VY8PEfJuzuGdztbSqHdXw+yhtIJmJf8/IWj3d/hdBOeseslNlEg7WDNVAGVYdqOuaiSrMrhl8i7K9uWCLEdDLZNBB6St8tqApdr+y300hxaJ0tmt8BpLXt4wzlr1dKEdp6fsZZrfTP7pdMkLXDOU+nLmQtDZgFrhMkXWuK+FTQZTW+43W/hb7jdb+FvuN1v4W+43W/hb7jdb+FvuN1v4W+43W/hb7jdb+E2PaHCYePRaW0AHjjV9lvuN1v4W+43W/hb7jdb+FvuN1v4W+43W/hb7jdb+FvuN1v4W+43W/hWW0RIkWlxnq9o7PFu78Ld5hjhZnFC5VnmGBvy/wDU8AhHnaTCl+bmbPyTs7hn8oQHAg5FOsLp8Vwl91vGJ0tUSyPhsLpgyTbHEc0GYE1vGJ1mqHYSHTeRLoHyTsr25YC0OlMZLe8OUqf5WghyPF2tR1rQQ+j+VveH0fytDDlKlCDDAlLmlmtCw83PPO6PA08tcpLeA659FvAdc+i3gOufRbwHXPot4Drn0W8B1z6LeA659FvAdc+iFikJCIfRb0n/AFT6LeA659FvAdc+i3gOufRbwHXPot4Drn0W8B1z6LeA659FvAdc+ig2YQX1VE+0dni3d+Fu8wxwszihcqzzDA35f+ofBM+IuuZs/k/JOzuGfy9sivbEDWukJKxxXvLg4z+Udle3L9sdni3d+Fu8wxwszihcqzzDA1HJUulkfsoYIcZz9gCS4j2n9Q+CZ8RdczZ/PyTs7hncclpT1tXN91DeXE656vT5O28v+FYNt/h8gYjpphLmzvdle3L2MWK9ryG5BtWS32BrLTLmWnqY17RqLpa7ra9zaKXELTRO0d6rTRO0d6rTRO0d6rTRO0d6rTRO0d6rTRO0d6psWIXS0j/Vfqav1Xa0YsUEjSO9VponaO9VponaO9VponaO9VponaO9VponaO9VponaO9VZ3F0BpOft3Z4t3fhbvMMcLM4oXKs8wwN9m3lD7T+ofBAyt7z9lZ4pisJd0pmz+TgcZD2xzuGd8ry9080wzaPkLdy/4Vg23+HyDtoqFsXuyvbl7GQ6FQyZNI1/ZSHRdFgtjSqnqW8oX93qt5Qv7vVbyhf3eq3lC/u9VvKF/d6reUL+71W8oX93qt5wxkXeq3lC/u9VvKF/d6reUL+71W8oX93qt5Qv7vVbyhf3eq3lC/u9UxoY2kZD27s8W7vwt3mGOFmcULlWeYYG+zbyh9p/UPgv9dE8FYuTd4pmz+TgiZIZe1OdwzxHNQ9gfIW7l/wrBtv8PZOdSEIgJlhdtFQti92V7cv2x2eLd34W7zDHCzOKFyrPMMDbtK7pChvLjruh8+Ju2faf1D4L/XRPBWLk3eKZs/k4ImSnkL35Yi6WB2dwzv0v9p+6a+rmlz3HNQ9gYZ+ztvL/AIVg23+HsouymbYwnaKhbF7sr25exc+KHvOuQcAB6LfbuqHfdqdFM4XHpc76brf9GGgVSMx+U8SOCwE1uH2+Vdni3d+Fu8wxwszihcqzzDA26Q6L2GQKzwjacmmYwnJQ8sP9Q+C/10TwVi5N3imbP5OCJkvrF8TLFEywHO4Z3mG0lNYG5XHNQ9gYIuymbY9nbuX/AArBtv8AD2UXZTNsYXbRULYvdle3L2r4bIm0Jre0Hswt7QezC3tB6gW9oPZhb2g9mFvaD2YW9oPZhb2g9mFvaD2YTIbGbLZfKnPFu78Ld5hjhZnFC5VnmGBuEbJTdkYfqcmbOE5KHlh/qHwX+uieCsXJu8UzZ/JwRMl9YviZXz13xMlPj3uzuGeI5qHsDBF2UzbHs7dy/wCFYNt/h7KLspm2MLtoqFsXuyvbl7V8RkPadJb5g9oFvmD2gW+YPaBb5g9oFvmD2gW+YPaBb5g9oE1wcJtMx8uc8W7vwt3mGOFmcULlWeYYG3ab+0/dNfUcrhslN2Rh+pyZs3h3GNxyUPLD/UPgv9dE8FYuTd4pmz+TgiZL6xfEyvbtm+Jkv6l7s7hngDmuyM7jmoewMEXZTNsezt3LDwVg2n+yi7KZtjC7aKh7F7sr25Y4xdOI0V62cWXTrVMVzjVVqcBqOYTmxa3uE9oU6z9lpLRLU0u8WyTqyYU66ucjIXW/6L27QmENHq1I7RllfYxKB+flzni3d+Fu8wxwszihcqzzDA27QiUplNYGm4bJTdkI5JpmL/qcmbN7ds3HJQ8sP9Q+C/10TwVi5N3imbP5OCJkvrF78r27ZviZL+pec7hnghwy3OWUlomdVaGH1AtEzqrRM6q0TOqtEzqrRQ+qtDD6gWiZ1VomdVaJnVWiZ1U+GwN2UGNmNS0TOqtEzqrRM6q0TOqjAhHNgKEGGMmBaJnVWiZ1VomdVaJnVVrAZTTqmrLxosjrC0TOqtEzqrRM6q0TOqtDD6oWiZ1VomdVaJnVWiZ1VoYfUC0TOqtEzq3Oyvbl+2HPFu78Ld5hjhZnFC5VnmGAYRslN2QnbJUPZv8AqcmbNztsJu2bjkoeWH+ofBf66J4Kxcm7xTNn8m4OndEyX1i47JX0fm9u2b4mS/qXnO4Z/IxNhDaHs7XDc+mkTkrNCe2LNzZD2zsr25e1iRWQtsymt9wev/C33B6/8LfcHr/wt9wev/C33B6/8IODgCDq+ZOeLd34W7zDHCzOKFyrPMMAurb1ggQcjcNkpuyE7ZKBky/6nJmzc7bCbtm45KHlh/qHwX+uieCsXJu8UzZ/JuZz3RMl9YuOyV9H5vG05NMxdEyX9S853DP5GJsIbQ9jEtYY6lomt+nqfyt+nqKHanQ2ylNb9PU/lC269bNSBDhMZezOV7crniqG4dITLPs1Q26nz1gZSQszmwHDVUWykFo4joIa5gEidQ1apJtmc52sBo8NaEFwY8aPo1ata0cYHiCkT1AHZQhRnQi15mZjP+U6DEEJgDWuLSTLmTmRXRYb5Di//jdbgTRIKl3VKpd1SnS5m83VVLuqVS7qlWYFsBs/mTni3d+Fu8wxwszihcqzzDA24wzMylrTGFp19ErhslN2QnbJX0fm/wCpyZs3O2wm7ZuOSh5Yf6h8F/rongrFybvFM2fyVMVSTOe6JkvrFxyK+i/6nJmzdEyX9S853DO4zlqTw6Z2vsmVV65/f2sTYTdoexOZupbo55851rRs8JDpREiRdZvd2+zOV7cv2w54t3fhbvMMcLM4oXKs8wwDCNkpuyE7ZK+j83/U5M2bnbYTds3HJNMmLmwf1D4L/XRPBWLk3eKZs/ko8qEznuiZL6xcdkr6Pzf9TkzZuiZL+pec7hn83Fs72vMhMLQxOo70VMammg+ipjzJpdr+y0UU/Q5CBFJ2CobNHDDej2Zyvbldp4XaN9U2Ixxk17SfFOe1g4zgPHDPBGjNgyqnr6Fv6H0OW/ofVct/Q+hya4PaHDI/NnPFu78Ld5hjhZnFC5VnmGAYRslN2QnbJX0fm/6nJmzc7bCbtm45L6PyhkLv6hTTML+ofBf66J4Kxcm7xTNn8lHlQmc90TJfWLjslfR+b/qcmbN0TJf1LzncM/2w5XtyubAcARMAapDwKZBpcXFxJmZfZOY6bXNIcQCOMt7OJzb+P8I2V1QIdzk/yt7RJy4stfPkhZjVxiCJ6/7lvSJ1hPrc/gt6OkePJ3Mehb2dW06mgcwOV1shufRS2a3vF7MpzIhn+m9b3i9mVBaWQWtOcvmzni3d+Fu8wxwszihcqzzDAL4VUzOf3ndRqKGoLmVHFlfTrP3QEhcWzIKAkZ30cWV9OslNEgjxXzORWg/XdEqzGShQ9AwzcmTpVPGmgJXOFQVOud9HFlfTrP3QEhc4VKnjTvOdwzuJktK77f8AlMeXHXLKf7Qcr25fthzxbu/C3eYY4WZxQuVZ5hgHzFDeqPRUtGQHyZzuGd9DeqPRAAZD9oOV4y/bDni3d+Fu8wxwszihcqzzDAMDjJvP+FVFql/wmTLRPNOnQZZyX6jdX2UIuI438i6cX76jNQzEJ42XhdErm2kHVrKY97iOjwuiVSFPSqos+fWehQ3FzZm4vdNxAMubUmF8+Nc5xr1AyGepQy4zLrqogeTI0oRH1ieqZyldFnqlP8KuJPXq19CbOkTzT50GWam4O1VU/cTUOdPGzndOKDzy1pjnl0iNXTdEnVqqy1S6VVF59X4QyuOdwzxCPMZJjqhOWBxk0lafLVza/FMih/Nge6lq02UhOYmgZieB7qQhEm5oHOJ4XxaXy5pIxpEiWWB7y13NJaf+374HGlpPQtIQ6nU4/ZMcXTmOe85XjL2ryQ8SP/3fW6naPj0m6JPRulnJFzp7R+/21pkywTuc41Ok/LNNc4uGfhc9zg8y6MlU6e0Zc33uiVT4pI1Kt2rWft973ue1+rWL4jpOADtahOLmcbO6I5wfxScsk0zbNcyER82zB+8xec8W7vwt3mGOFmcULlWeYYB85ITnLX8gc7hniLGuIJGKkHmCDQDMYCAcwqQOYYZA5hBoGQGGSMJh5vTBIHMBaNk9kYaGylSPRSvOV4y/bDni3d+Fu8wxwszihcqzzDACphTCmFMKYUwphTCmFMKYUwphTCmFMKYUwphTCmFMKYUwphTCmFMKYUwphTCmFMKYUwphTCmFMKYUwp4JqYUwphTCmFMKYUwphTCmFMKYUwphTCmFMKYUwphTCmFMKYUwphTCmFUFUFMKYVQUwphVBTCmFMKYUwibwVMKYUwqgphTCmFMKYVQVQUwphTCmFMKYUwphTCmFMKYVQVQVQUwqgqgqgqgqgqgqgqgqgqgqgqgqgqgqgpjHu78Ld5hjhZnFC5VnmH+ye7vwt3mGOFmcULlWeYf7J7u/C3eYY4WZxQuVZ5h/snu78Ld5hjhZnFC5VnmH+ye7vwt3mGOFmcUM/qs8wWlh9oz1Wlh9oz1Wlh9oz1Wlh9oz1Wlh9oz1Wlh9oz1Wlh9oz1Wlh9oz1Wlh9oz1Wlh9oz1Wlh9oz1Wlh9oz1Wlh9oz1Wlh9oz1Wlh9oz1Wlh9oz1Wlh9oz1Wlh9oz1Wlh9oz1Wlh9oz1Wlh9oz1Wlh9oz1Wlh9oz1Wlh9oz1Wlh9oz1Wlh9oz1Wlh9oz1Wlh9oz1Wlh9oz1Wlh9oz1Wlh9oz1Wlh9o31Wlh9o31Wlh9oz1Wlh9oz1Wlh9oz1Wlh9oz1Wlh9oz1Wlh9oz1Wlh9oz1Wlh9oz1Wlh9oz1Wlh9oz1Wlh9oz1Wlh9oz1Wlh9oz1Wlh9oz1Wlh9oz1Wlh9oz1Wlh9o31Wlh9oz1Wlh9oz1Wlh9oz1Wlh9oz1Wlh9o31Wlh9oz1Wlh9oz1Wlh9oz1Wlh9o31Wlh9oz1Wlh9o31Wlh9oz1Wlh9oz1Wlh9oz1Wlh9oz1Wlh9oz1Wlh9oz1Wlh9oz1Wlh9oz1Wlh9oz1Wlh9oz1Wlh9oz1Wlh9oz1Wlh9oz1Wlh9oz1Wlh9oz1Wlh9oz1Wlh9oz1Wlh9oz1Wlh9oz1Wlh9oz1Wlh9oz1Wlh9oz1Wlh9oz1Wlh9oz1Wlh9oz1Wlh9oz1Wlh9oz1Wlh9oz1Wlh9oz1Wlh9oz1Wlh9oz1Wlh9oz1Wlh9oz1Wlh9oz1Wlh9oz1Wlh9oz1Wlh9oz1Wlh9oz1Wlh9oz1Wlh9oz1Wlh9oz1Wlh9oz1Wlh9oz1Wlh9oz1Wlh9oz1Wlh9oz1Wlh9oz1Wlh9oz1Wlh9oz1Wlh9oz1Wlh9oz1Wlh9oz1Wlh9oz1Wlh9oz1Wlh9oz1Wlh9oz1Wlh9oz1Wlh9oz1Wlh9oz1Wlh9oz1Wlh9oz1Wlh9oz1Wlh9oz1Wlh9oz1Wlh9oz1Wlh9oz1Wlh9oz1Wlh9oz1Wlh9oz1Wlh9oz1Wlh9oz1Wlh9oz1Wlh9oz1Wlh9oz1Wlh9oz1Wlh9oz1Wlh9oz1Wlh9oz1Wlh9oz1Wlh9oz1Wlh9oz1Wlh9oz1Wlh9oz1Wlh9oz1Wlh9oz1W7j2O3McA9p4wyP/APUT/8QALRAAAgECBQMEAgMBAQEBAAAAAAERITEQQVFhcSCh8YGRsfAwQFDB0eFwYID/2gAIAQEAAT8h/wDI7Kk3pvTem9N6ICM23CPFnizxZ4s8WeLPFnizxZ4s8WeLPFnizxZ4s8WeLPFnizxZ4s8WeLPFnizxZ4s8WeLPFnizxZ4s8WeLPFnizxZ4s8WeLPFnizxZ4s8WeLPFnizxZ4s8WeLPFnizxZ4s8WeLPFnizxZ4s8WeLPFnizxZ4s8WeLPFnizxZ4s8WeLPFnizxZ4s8WeLPFnizxZ4s8WeLPFnizxZ4s8WeLPEniTxJ4k8SeJPEniTxJ4k8SeJPEniTxJ4k8SeJPEniTxJ4k8CeBPAngTwJ4E8CeBPAngTwJ4E8CeBPAngTwJ4E8CeBPAngTwJ4E8CeBPAngR3V7iDr7bq+s1M/wDxnfbYVSHVUwlyIKhpTJc2RuVHeh9ZqO//ANY2kluFuJZQm34czTV9aE4SRelsxCSv2t9sJmU7WSQppLOd42RGs+RDbU5OSDXF/wCjbMTK1B2x9ZqO+NwypULkO5FxlfXBEgenEZcQUFrzIxqRJJuSgjCVDSDQEBnEyOlfX9CpnyKxkJQssKlEP5FvXlUZqZHAv1A8buiio26KzyIW4nWpZzHdZCOoCsN86f8AyiqJieZV4SyEpmS9aWLmoRLLwmmrchJ5CytjAzu1FVN9CjaUh0iU0b0piyLL7iDcOaOWVU4dIK86qqmUuNRFqdp06WiOpXAotAULvXHkHjkNFiqNtplo0qm5C5nZZJVLNRMO4japnbVWWc22I1M9qc36TCGuUiVMqn16VJic5MYJws/gcSLZNZKHFxtpUgqiSfIt6DSKmlVlU09CNTC5NZvEkXp2lprhPmO5KRpSRUp5f5t9sINy9jQWAow1SU3vbIWMPStsMYsIJqidr3HK6yqIWg7CYWNFR3xvs1dvO8XM9PwwsJayWiYsR0iYdJD02GUYa4FodW+Yxo1EpqvrIRUlaJ9xIdUUr0E+kJR046jU2jTmpUSuwyTftCM49BmPdghUCRlqai2qT3rIkplFOxVrVqEUZ/8AylUCSlabmHFmZeVWHVPqtTGClCZ8Bpt0PXpg1XQSpqKkaxgJ1FaYiW4Ux/orUqLJzKm86QtBjh3Sh3HjCNgKkqtxOFShJTt1ElHoyn1VLo11E+J4VKXsaqF7xyma0QlMM+PP3gkDSupNjJDighqEQl+ffbHET3yJ2hpQFFfsMnTYXB1S49qFASWSRveo2TqLnXqz6zUd+p2A+UJJISS4GqbhWbUwQlMJVHjbp3oCSVklJSiEPYTlQ10VWbcYSRJIkiSWSJKHmhKkKZhTqbcQSRWAsqL/AOVQk1NJs1n0al5zr0tM4aG7cvoSb9WCyK3BXXP6O5cegiaqk22IiKakKq0nMCTCoqxJcO7n/RFDNP62+2wj5GumbiPGoErpZXyQVtMdWfWajv8A+M77bq+s1M8VIiRIkSJEiRIkSJEiRIkSJEiRIkSJEiRIkSJEiJGK1kSJEiRIkSJEiRIkSJEiRIkSBAgQIECBAgQIEBJYrUQIECBAgQIECBDqADk/CABXMcxzHMcxAalGKXM5jmOY5jmOY5jmOY5jmOY5jmOY5jmHFmcwxqcxzHMcxzHMcxzHMcxHcalH5d9t1fWajvirP4CzFW/gMmGa/g+z+nfJeha/2bfbdX1mo74MsYPqNLqSZpN4f6cCCaspjM2DXL3DJriQ9hbCjqsWDFbDe+4VaxoVX6m6Cdt+DLhmsGpwiWb73CbJayj9JtJLcIoTNhkz1Ys/3z3IVUmSU26vjws/pwO6jGttV0l1JKKF4/Zt9t1fWajvgyxg4e9ayyq/yRzATak69hRRKFoFe7fsQyUizMhwkihDJk9xtXmauiXS4XHeBUUuHEtS4QcydYSl/gyU7qCRPcRbInQ3NaE9rSJs9TitdxlFeHRZdcIu2FJjU7eiENRhYgL6gnlm3uhaV8foxDZK+OizBisXeCMMe6Q2axlRZzYZERFVyI8TIVIqdh+/EVKajcpo8pP+kZEMnIOJUaF+3UtKsxP5WxWmGnXlwzWHcywAWh874KFUtGXEMiU8s6IHSmokuyN6jnbYsIjmJVcVcbihYSU3No/0eyWUqCd5zKxonOalXBUG5z9B2E1rSl3RkhHKim6ydeu6FvUJDwFl0zRaiEsoFkeT6fjws4O3UVsHbqK2Jy1MwmvsTAoOrO4r2LhzRoOwhWweWOeKkNNPdfmt9tjD0eP1mo74MsYIDOcwhsaxSWNG02lKs9CSzKYdBLOdegkUwkpvuI0RV0XCVJBKySsL0RDJ02yEqBCiIjISURKOUsjI6O/BdCjRKOpbL3om44SuWeYShQrdL5IBpdqe4X+jypZSnjYsGKw1KaJBKNnQ03hGckYWgxuBJux6CdQ1gqV9du4ILTKbZlxoDXVkTaIzrYmTiLwJiooq5J35bwJy1F5J35bwEmUIyclTU0JjONXZiRLXry4ZrBsCmBSWY8MQRKmzKKJylbMbZkoq2InESjS+gkpVDpFDqc7DfOrRWXNLgswiaHYQDg25a1EwFQb16spvLUfGS32ECQFXpqbCiFOEXJcoW07gipTJLPCv25quj48LPSf0xswsx/p0jOwfBdAe6sSSzFtR6KCZVaNhFjB5c4tCyGT/AFf2L15o3C9hXS0F+a322MI4baYUPmLK6yBbTD6zUd8GWP1GamVv+hZVCKEutbS923III07vjGxYMVv10hCszaP8GXDNfqQqPU5FNUs4SIqq/qEU0eT0ZBtRaJo8WdMpmSxZ6l1BhVtNTj8eFnBk8Co9B8Ond8P6Y2YWY/06RR7SejU2/W87ciFQh3qQSToHm5uIhKMLGDy5wUJRlu7Hpyyllxxsfmt9tiz7slKQZjLOIw+s1HfBljBc11CugjawipN66CjseZqpWUalsXqbb3hi/R07YpzE8JWopTuK+Wwa57W3491xkyXSjCDTarGguBDNhVWoibLclVWFwZ8ShQq3oZCqttApgJPaK4WLBit+q0V2JHZlridg/wAGXDNYwSMIb5NRpqN0JRxM5F1nMWS2EZTkkWrYW4WTYtRidOgxLyZy+f4m4Teg19dpJ9slOXj7suiZK7Q+MIpqjp7OI5po5tyPPCJpHSacVmDpSbhCThPzmOoQ9SjP6dA8KESyMFSm2RHYf3gWMIyQ+gmhdU3WDyP+MXIWzzCf6M2Nj81vtur6zUd8GWMGZROCp5e5M/8ACr3Ko4/wmCxkuILxWKANygFo7+4+laVtXF/j7+fX2M27UoSe4Jk8+bJDwLklwPsyKPJEmmcixGZ8sWvUJJjBpi3kY2LBitgjKdpTbWRnBT79bbE2gzhhMwsulrr1NEl77sh9iKxqbyNkU/kW1xOwY5UMYVN9WXDNY6OcJvrwKZcpZVW3QhtE2/Ql1IUsrw57jlIU/wAtjaAlbM5cR9ZjBG6i0TVfefxMuRskbBJWNRR4rblnoSIJTVzjecWNoobauVD6ez0ixqllDQ5krWzzwWDOKbbXDTzKwudSFBNELpsWbospobt+gpK3sg6QV8OFYxEGNptcLLmk0OJ6bjuRP7GGbGx+a323V9ZqZ4MsYVEBEo2/0XV3zczJJnTb1TRqPOkcxm2NU7ytEQDNt6Ty4IoOEWGjT2/HuqIgZvR4JJWQxeJvLaj5NTLMaR1h6CHqRasCFIhKywvisWDFbCE5VFVreUD8N4FUZU7sQhEJUS6UvUo9liLMy7vDzqZR3O1/HVeLXStridgz4S11ZcM1g1ItRXtHIaJrOQ/VcWolWcjpQqJYbVsWkTSt7nQpZbDwq8yKzcCj2bfyOtmrmF+FRabmOvCJkt8QOrSLjYRVVEL1QvnaWD3FGoNVwaktwuFhG3zwk3XngQW/ZqGem3KHBISO6RqL0qzYPD48LPSf0FoaasXkKqTzpkGRm/GQjpquXZZjQtnt6icqVg0e6EUsUq1pW2QeXJVhUjlxsYPLnHNjY/NL7bFtPNf5rj9ZqZ4MsfqTRnJ9HcTSJpyn1twhc8bFgxW/RvFodBA6CMVtcTsGfCWhtK7IPNdGXDNYoFqyM0IkIoSovzXqpjzK5HVytWSaYgYymE2tFCtG1cJH+jtXTKOmsSrqqseSZTRbPRKGkzESm5lIKOdRegE2uT1oOy4fHhZ6T+mNmFmKJollDQxD9/mtMGg1wCooQ8uRZwaxyY2MHlzjmxsfml9tjI1tzWbK1bj2QO7EtYfWajvgyx+orQasU0WRK/W029uizBitglNo4ba2gsL0TrD/AOC0yj6dxB5A5efQ5zaUKpZlejWi3t2IFqO6otr9yIuhk9ic56MhUSu6+N4tdMra4nYM+EtFjgtCGhiY4wy4Zr9LRrkqvAk7lGiy9CiDCJ9QmmSmsaXYQLI0SJbu+lPdwVobWjHSdsbXYJ4VgUtWzG7kib0EZPRoYfHhZ6T+mNmFmP8AQelGZMkqEBDiLB5ciy+BInGxg8ucc2Nj80vtsUtFXCiq/oY223bw+s1M8GWMGSYoE/1qRbNFO8gZGCy3wG17j03aS1VRSN1Uvaueg1m4SuUAk7HwEzKjJ7o1/wAI5nJrCozJu4nPYS8TnEjpENsqNUtUR6JfY+PfqfAibIUkibS05+psymRVueLBGQjGxYMVsN6b03pvRjvDFhTWq55Y8seWFHch0K8ojjQV5RWrRW7RXlGsgzpCIFQ6tCN2CONBG0oI40YryjI0eGXDNYLazDUUcD3f9RJ7WlFeuZzZjWTL1UspcXMSVFRWvK6V3uUluKbT/wBK3JKYeX4WWgJuGo2E7hxDOu0lgJQ3uNTuLpPY0MObVipM0M1X2kVUsUETKbiBpLpbvf8AwYw4oyp1dn9NqVhSj9mX23V9ZqZ4MsYW60tLNK6UzhXcvqUqq005TRTid1b9TVhtuENEL3HIUtLLGxYMVv4DLhmuqE2nFrfkTEmubf2ZBk9mbf2ZNpy26EiSVqdEA0Oh6luEpCRLZjb+zE5ZtZQ8Pjws4StnCsSyo89EVUlHcbRCbJe/19EbUvkIEim4lkNKOI26IO4aSGSvV9DVHXRIy89eiiFEuCmZoMv0JfbdX1mo8GWP4CzFW/gMuGa/SeTzCPGDxg8YEhyktdJ1LrVjwQ8EPBCBG9V0OzhC06o6WjVV0wtOmEJE20r/AK0vtsWtqyauI0bUiM5cOYlYfWajvjCoZD+CAAAAAAAAAACpr/AAAAAAAABFUEjFJn/AFVVVVVVVVVTcpxS5/wABVQUAAiqqqqNyn8q+2xY3XJKd9yPhUWMzhYfWamfRBBBBBBBBBBBBBBBBBBBBBBBBBBBBBHVBBBBBBBBBBBBBBBBBBBBBBBBBBBBBBHTBBBBBBBBBBBBBBBBBBBBBBBBBBBBBHVBBBBBBBBBBBBBBBBBBBBBBBBBBBBBBH5l9t1fWajv/AOMr7bq+s1HfFUVIENCGhDQhoQ0IaENCBAgQIaECBAhoQIaENCBDQhoQ0IECJEhoQ0IaESGhHQjoR0I6EdCOhHQjoR0I4qrIm0R0I6G0R0No2iOhtEdDaNo2jaNo2jaNo2jaNo2jaNo2jaNo2jaNo2jaNo2jaNo2jaNo2jaNojqsZqs2jYNo2DYNg2DYNg2DYNg2DYNg2DYNg2DYNg2DYNg2DYNg2DYNg2DYNg2DYNg2DYNg2DYNg2BJR+VfbYoSUkyJNFNxgReTw+s1M8VZ/AySiUSiUSiUSiVi7v4alEolEolErG7/AArJKJRKJRKJRK/Q19tjBeSIqIh8aZjEjb4hTQ9/9w+s1HfBlglumQJcIjKJMi82ExVtyNKJTGDsna6zif66PsR9CPoR9CLwH6bwla4NpKXYtUaK3JJhKXrbqO7o2KfKzT6ELXMQ9/Z9MlGrQpq3CJ+1Saw+Nb9TcKWfQj6EfQj6EX4PzvCVr1Kxd6FkxkJVbLlNDZ2wNxc6o6qcXxvRdVKEW4NiV+HNo8bKT6EfQj6EfQiPKv0Hbpla9Cv+eX22OngOhJfD6zUd8GWBD0SyhoYlOXPUf2PcmhPI4gRfJVEefSPWKkPWCnoLO6+rkmVw/WUrLjDs2JKyw1eg1a1CZ8tRJKuaZvkaaOaEQ/8AvJSJLldf1Vj7l7Lf2Tm86rMSthZze9CurlVDopSb4LBWR0mVarUkhpQqkabXNvZxgr4O7o2uLJe00UqU90Q4fI0qRF9DWu61SVorQax801pm7XxE6DRSqpNSlSoxhaNkY63dfVEgn1eRtA8UdwWBybKDKZLP3FtGXkYRwxkUsXa1XN8lFB0MkUqKXeMWmGK3/gOOLlcrYSZcDWrXuJ+robgtj+z87vhGW6Ksvp7EBij2anKunAk/LOs78itqUjzWQlTYeSsWCsulc5XzDUWGgitCK2WcrfQkzGU+if8AwYW6tS2MyBErzS1aq7gdUH9EpV2iVMiMJn5wkTzaDqxnVK6JTJSFZja7gzSdDJFK0u8Yduxi2K3OfoOmuVisaiMhobdK1XcSOroxqFsbuv6TXKLnmvoIqVw0CzkjqgU2eaz/AEWaJlclH9SMwaYcd4zGWmhNGktuhKElM7ma/PL7bq+s1HfBljBMA7iVyGPhaDU57qpP0G1s3bFhmzxpZK+PjDxh4w8YN5Sn+mz0PQ9D0PQ9D0PQ9BLB3dG/TYK0TH+gECghUxPTuL+zjPwRYreKT5G2rircDY7zLxy/U/q13EmfJo9gowhSnCTKxsPJTEJCSWSx8YeMPGHjBvKU+BqunueWPLHljywmnZ/haPQ9D0PQ9D0K9asap7qvcWgdOra9RLQQ7kXFpD2VaXoZCJnR7D64VDQSaE0K60ShBV1lWl6CEgiyWPjDxh4w8YNJSnx+g6noeh6Hoeh6Hoegl+eX23V9ZqO+DLH8Y7v1tqbwzq0L3GIcxO80bLlRNcJUa4L86kNfrruKv8vL7bGttUYqq5VyEg9QxAmoth9ZqO+DLBfq1wOBFpFPcnGRNBUrsV2K7FdiuxXYrsV2K7FdiuxXYrsV2K7FdiuxXYrsV2K7FdiuxXYrsV2K7FdiuxXYrsV2K7FdiuxXYrti7ujc7dYkpJ5/0WmqjmNRppw00zNxaxF2nCChAsynBWk55b/WVqROzOBt32wjcjdkbsjdkbsjdkbsjdkbsjdkbsjdkbsjdkbsjdkbsjdkbsjdkbsjdnqz1Z6sjdkbsjdkbsjdkbsjdkbsjdkbsjdkbsjd/oS+2xhU2TTSv99SD0LSUXth9ZqO+DLH8Y7ujuxKVDcVG+TgY2Kf5hC0IWhC0IWhC0IWhC0IWhC0IWhC0IWhC0IWhC0IWhsI2nsQIKHKyFDZ7G09iFoQtCFoQtCFoQtCFoQtCFoQtCFoQtCFoQtCFoQtCFp1rapr+u7Ekkit+5L7bq+s1HfBljCZtFByWDdFoepG7I3ZG7I3ZG7I3ZG7I3I3I3I3I3I3I3I3I3I3I3I3I3I3I3I3I3I3I3I3I3I3I3I3I3I3I3I3I3I3xd3VoY1kQoNbEP0VG6byPIZqsXl+wqSLVCetFaMbSuXaKXrYmjVatyi3GFepMou0kozGNRMmrlepZpratya9N62Jo1WrcotxhXqTKLtJKMxjUTJq5XqWddq3Jr03rYmjVatyi3GELou0kozGNRMmrlepZ12rcbjoXrYTZpZrVGv3kahxX3Eov7kc+5HPuRz7kckckckckckckckckc/oS+26vrNR3wZYwgcQnSRNNSnK/iXd19megMa0B10grBOu350tayGSTYvTYkI6k20Hegsn4US/5l5/bCFoRsQtCCFoQQtCFoQtCFoQQtCCFoQtCEQtCCFoQQtBFYJiugi7U6SRT3d0W+P3JfbdX1mo74MsYP0RD9xkjhS5hEEEEEEEEEEEEEEEEEEEEEEEEEEEEEEEEECWhatmf7hAslfBkECnSm60iZb2X0XGDu6Nc0oTk3+Ck4FUZtRX5wapq0ISW60ERUtC58dXyhFYrY9T1PU9T1PU9T1PU9T1PUVyalNx2q+DvkKyASLr1f8Ap6nqep6nqeo6c4VqxSTot0g97RyG/wBEELKXwep6nqep69atYu0e+EIhEIhEIhEIhEIhEIhEIhEIhEIhEIhEIVekOmNEXJL/ACEnyIvQIRCIQz3RIRCIRCIRCIRC/Ql9t1fWajvgyxg7x5SIWn7UxVkrhG7f7Jqz9J+DWOQi7ngaiOyzZkrUv9iTV1ML6UzrZnwUTb2b3zHoLaVbu13i7vw7K2CXL31nyWES02/4SomaEr8LabPtuLTYR2q+DvlghyJTEzJOZy2fTKjmfqRNVvvLhDZd8PNmF8GUuTVXJrvDn5HyX7MhQh2jIVvwLKk1LWv6D1H1nsB5TUzvhEhs0Q6eg8ZFxtu9qUwicv15fbdX1mo74MsYIlbygrJctuWQtCFoQtCFoQtCFoQtCFoQtCFoQtCFoQtCFoJ7I1MpIWhC0IWhC0Q5IZtf7KqwbNslc7j/AJNX0GsKjKe9RM5k33YglZELQhaFzPI7dCIWhC0IWhC0IWhdFJIWmLu/DsrdDnM7Bjbsg17/AMCHMhK4xyvY0WmHar4O+WLSahqUS7q6vqwnCaLhsuWSr4j6nHuGfM+eiV6EmgvrlWvwK0mJ2ZuOt98IWhC0RC0RC0RC0RC0RC0RC0RC0RC0RC0RKURspNI1mpY6mOYyEAhC0RC0RC0RC0RC0IWgqtZDki3DvjIMiFS2L/UhaELQhRZL7v8ABFaLjnSQtCFoQtCFoQtCFoQtP0JfbdX1mo74MsYSppImd1F0yUStSVqStSVqStSVqStSVqStSVqStSFly1kq2M0N6q+WTtBpB8R5LuT8oqLLcZvgzhsdvYUFChIlakrUlakrUlakrUlakrUlakrUlakrUlakrUlajUbaJImERXIM98vJLzmL4O7o1yVByt4oNEu6Y2U74TwymLFdCuhXQTKsikmXaKILf+h5JkroV0K6FdCuhLl+56FdCuh2qO+RXQroV0JKRpgmetyLRElkiuhXQrodwz5HyV0K6FdCfpFjkroV06ldEKj3OtsJWpK1JWpK1JWpK1JWpK1JWpK1FUSymIqy3JWoyvEwl4kxSmoJWpK1JWpK1JWoynXIi9xHsd8Q9AgWhpqGRcYnqiZdCeIUCShJDK8MpCzh8P6iVqStSVqStSVqStSVr+hL7bq+s1HfBljBdxxoV1W27t/jgDdWgyzZqvhEm1d3a7JjGzSxCbtTmvyPLUkzYjqMzQ2ldjvlhrTnV08u+p6dLu6OFhTqUUrFqW6GVujuV8nZ/nC4rz/4JA3/ADoZFVSQQlPV649qvg75dDL8TtCQ5UoaQ7tdHcM+Z89HaFjn8K7PfqkJqohC1ahJNenaE+jqfB0JUNVHpl1MmHkiOa8SzumL7RZEqQQsUmXmmiSPY+f1hfbdX1mpngyxhCL0ljpJqGnBJPJPJPJPJPJPJPJPIxMhLMgptKWzuzIc2uS9SdbNhBdgC3JyqprIaq5o0/6J5J5J5J5J5J5J5J5J5IIYytCZZ8E1BtsSwJVkQercpqFp6OnAnknkYktspbcQUmhPJPOLu/DsrdHcr5Oz/OM8vc15KJ7GvGFkVD50Xbo7VfB3y6O94dq6O4Z8z56O0LHP4FbSNuyE6NpKl64SiBARMG2rLljIoGhRGbSVtMmQIECeHV7VmRQVlAy9hKGRMidZXV/olEolEolDTu0HEHcsj6YmoCSU8SOvSJQxMiZZbR/slEolEolEr9AX23V9Zriyxg7xJiFhL8LEyEsxxVPVN+WSNNpEilpZKMO1PnjEiUywbQ08/wCiadmn1yBuFqXFGT/RLPNVgeG2muLO79NkYJRmz9yuRpd2TIyWva0adTu6NTAGqo5VZSi+vB8MmoJRKJQ3vr5Oz/JKJRKIZ6HoMWqcir5Id74+xKJRKJR2qO+RKJRKGXr8HXoiUSiUdwx+58kolEof2ixySiV1q3OWmuKZ1yILBFLQgQktFgoWJTuOY2Us9GDcKXYWpr27D5D4OhKFL3XJCOa6eAH/AEGqHcsX2UKx3p2/QlW1UPh9I4IQyU7P9EX22O6MRj9Zriyxg15hNDIIS0UPQl6EvQl6EvQl6EvQk4FCl1FBmTycwIuJd27stpzJehL0HdjIfL1+SXoOqagVSeUsxcltUS9CXoS9BwUtCcxVWFCMS26rORL0Hy8hqaEvQl6Ghz/tkvQnYmDCuaiXoS9CXoS9D0wd3R5AijInu1u7m/2Ohlbo7lfJ2f56XSIeZcCur6e1Xwd8ujveHaujuGfM+ejtCxz+BXRNldqaO+EioCxWaJxxFSeRixip0VmgTLDTs1oxoaodeJPPsN3DdhPI2sMU8j6Zb6/9J5J5J5J5G2aE++o3TP2O5Y3sonkf3R9exPIxNrCprMNRYvRCj5J59iefYZFodE1KUOwiefb9AX22LgkdsWiu5ulWyPUmSEr04vXWH1mpngyxg3SaTqISESW3XAwbrXmJu5VVLFaSSbzx7Q+X84oipB5ZkYVNEWuN2f6NUsdysbT4exBuXNvb2E3EBYnCm0wrFKGxY9z/AG8XkYN2WfW7vw7K3R3K+Ts/z02uUMuLf09qvg75dHe8O1dHcM+Z89HaFjn8Kw0VMe0L3PSszjcVSzEXldh8h8HSlylD4f1dFi3m+QdjuWdiw707fpS2/R/v+sGbmwtr4QhlISVjuv0RfbYp2olRw0oNZqbDGWN6t4fWa4ssYQG0kOSqE0epKNZEelmV2K7DcJcJcnyS/omYVd2dWZ9SLFdiuxP1WVjIrsTyLE8vP5K7FdiXtFdiuwrPR3K7FdifEVyKxkV2JZYn6jK7FdiXq/2yuxXYXkUixXYrsV2K7Yu7o2wk0U2JUnRoVb9DK3R3K+Ts/wA9PZMv8+ntV8HfLo73h2ro7hnzPno7Qsc/gV2dYE1SprZfbCdmPkZD1UzJ2Y2kbSTsx6Lp1HOVCKyJ2Y2jMbRkTsxspjZROzETlUahm7sXmTsydmOiSrQ9RUSSVhulmdyxsl2ROzNLmPluxOzGyhspk7MmmybPMaMP6ECJUBIfKyHysydn+gL7bq+s1M8GWOhyi5SqVTRjS4i3pUS3rFEh+s1ajOk45IqMe9Zlh2h8v5x+Fi4s8T3jV5iqsW7x49z/AG8UTSksUFtFRVSxd3RwCTSvX0aG7Uul1tb/ADBcMkoIRCIQnvr5Oz/JBCIRCOyZf5kIhEIhHao75EIhEIX3+C+yIRCIO4Ync+SEQiEL7RY5IRC/EvaF7npXujsMPkPg6UnleiJBpoWNLdf8mtGmZH1NgOx3LOxYd6dv0pQOuHTqSlScOyO6/RV9t1fWameNjBeeLYVpUNKaJlsjoRbZXkCSlGjH/QoIUJcD8oPIrqV1HMK5f0V1K6k7ubKxcrqTuZEr+vyV1K6kr2hXUrqNWQORXUrqTvZkoVK6kr4nczZXUrqdz/bK6ldSV/IrqV1GPVDzJNHri7vw7K3R3K+Ts/z09ky/z6e1Xwd8ujveHaujuGfM+ejtCxz+FbHOOZzwroTsZE5UzJehLKSykvQnazJ2MiXoSyZksmRL0JWjREvQlbyNPmS9BDaZW1ZiumwS9BtxY7lkrOSJehOzmO7WRL0JWiVol6EsmRLJmS9CdrInazJen6CvtsWu0eHG3oyF4usChtcZPD6zUzwZYwaBN1YxPhBKgi91pwLC1jdyWLs4/rHvWZYdqfL+cfhY9v8A1j3xYxbvHj3P9vHs+ju0xd34dlbo7lfJ2f56eyZf59Par4O+XR3vDtXR3DPmfPR2hY5/IvaF7npXujsMPkPg6Uu3O/wdwrrB2O5Z2LDvTt+lL4D5MOyO6/RF9tjLe8o5egpsoosE0WH1mo74MsYVydJ9BOlMk5HqdVKiQqFlBHI6azCUlqYzIjkjkUB/sRyRyTXV1kRyRyMjm7HmLtGkEckcmj7vBHJHJLli9YI5I5FXWpu7smRyRyTKbhXMWCnTBHJHIiGpaip7kckcjoJxFUkjkjkdMg1JsRi7unoNP/own+kIkgIY2RXQroV0K6FZasxIxpphIroV0K6FdCt1/UStTEaFdCuhXQroNjklVMYlUYroV0K6E/WSC6tISBJURXQroV0KICbmIL1lmK6FdCuhYckuRq5UnaCuhXTqVW0XRQqOGSyTgnYc6auUfMnYcqi6HK5uydmUfMfNu7J2ZMB3wBOzFnqqaKNCdmVCh1EhuyJ2Z6MTIp2ZOzGVok5nMoFDoTsxgasygUOhOzNVAkdVCdmOwDE7D4tXRQ3dk7foK+26vrNTPBljFExQQEn53wJJCShIW9kJXErNpuos/kjQktsHW3XVYKxpUo1ksKsXQiwFqKufqwlTQimeHWSmVp2EklCwVxoiYqQtJJ5xglXIlGVaW7HSpguTe7gyJlFGda4NpjbhK4wTbQ4Oi+sQwiS2wZqG2kpiom0k14wgoDoEGdMl13GC4zm4RBuYc1l16Hd/Laym2pqsU5knVCadsIU3Cjh4tEjOrti1VJRL2JnBtK/RQSo7YLsqyzITTUp0wbSS7CaalY3EJzYbhS7CZZzScbm/SV9t1fWameDLGKYm2b/glCpg5NUqn/RAyFhZomnTVAp5qMTg7E2NqjTV8HMUuUWMqUc120yElijBhNSGoFZh5vF8mEa7BG2ScOLke+QkkSVlggwSla1DLLg6ilFJZ7i9RxEvBxcjOuRxGP8AcMkU0kZZapAvUt0O7r1EOga3Elqa0rtv7jRL1CYv0PBr6wyyYzEyUZvfTphrKmPzP9DY2OHDTzOnS0tG1Nt0/wChwtPPJEf70ZropBANY0s3lr0SnEzGQoldxp197FVJuS6jPojf6MvvuTEh0VPPX/g7bkhtVX41bRbzYjwnphInW4SMu2CW2m7krJz6YXvTVibAlKyWC3M7jflTLCElMKZZvq44/wAwk2i4oxlW3H+YTgrWJWFl7wK0roQPJrOkE0CJVtyZVK6jeHc4zKMTbZqBoEG16CE1SrbsJLqUD00aNUJTu02wk0T2qEp29v0VfbdX1muLLH8Y7v8A6rVX23V9ZqZ4qKhkMQh0gECGBAgQIECBAh+wAAAAAAAEMbOSH8WAAAAAAVVVVVVVVZLGyf6NVVVVVzYXMcxzHNhcxzHMcxzHMcxzHMcxzYXMc3XVU3Kfyr7bq+s1M+iCCCCCCCCCCCCCCCCCCCCCCCCCCCCCCCCCCCCCCCCCOqCCCCCCCCCCCCCCCCCCCCCCCCCCCCCCCCCCCCCCCCCOmCCCCCCCCCCCCCCCCCCCCCCCCCCCCCCCCCCCCCCCCCCPzL7bq+s1/wDGl9t1fWa9CSRIkSJEiRIkSJEiRIkSJEiRIkSJEiRIkSJEiRIkSJEiRIkSJEiRGoeF2RIkSJEiRIkSJEiRIkSJEiRIkSJEgQIECBAgQIECBAgQIECBAgQIK45ggQIEMCHUAEMCBD9wAAAAAAAACA1Dj8q+26vrNei3+Mv/APqjUfbdX1mpngywQxkJVbF23BCX+Nmk4iDs8W0IXLPIHkDyB5D8z/Av5Q1eHCJbGp6bMdsc6eTh2mL9LmxtJmlNVXRGtQ3ca4NuFrMpO3TtDaG0E1xH8TthHUr/AJ1fbdX1mpng8D7DQRHKnyJQcpKssl1WJVZm9YJjcoQ07qCoJIWsCmbVruJxzOjChfAl6JSq3ZxQiSs0J2cNFM/2UUrIrVVUVuUYt5bmXpmVInC80klIHc6MNGVSkFsdgRmHS+LJRYSNiOzdEqJzklYSouKQ8iKSzJwiOx/OZls3JzL72HhptEtONn2g51y0ZJr+hqX3LjIVjWnadFrOCv8Aw5yyupXUrqV1K6ldSX1L99oOti1FtpWf6J8tBLvQHBUt5iWoUM5FG99+bcjog21LbIlQdGhbP6hpjdJIlR6taigjgoTX2J0VfEnCzsV0TwYeKmO0XyWZhUI8U1/0ICcAobOzTo+CIr2oE1BoXXJISkWVxt5JqtiN6kM8/L7CDpNIVRtRjQtVlHbDPQcmJljWvcxqmWH7eupI2aipPN/fky/C7YVxVdHMeglCs/b4Hey6C2r3GqnLhLinyQtVU6Rk3/4KUlLl6ma/O77bq+s16LBRUohojaBoEKLphV5O5Q4FDNoNpsQYQhqhqySL41FaG1iYkjoITWiwnxCFS4askjca32dZTPuVEhPPQOHrvZshoUuiG9hZEZusMq+RofpbGEFTafubD9zYfubD9xEhKy/K8JJETGs6Mpiuo2hE3qbAmI0dHKq9YkbGIu2o5hJ6ERhW4nNpegTjeUGp2rTYke4o00doznMY9bf0C1kZJbcKU8Iu85rWpshElEaEExkCet3UauiUQkpJBtJyvfB1BxLG28tUtQtdyMaKScKEiiWYDiSMdtSGSuZT+Z2wYNJt+mCImXkcUJf6NyoVx5kpqSaugTtKHbWmZZLMlXEZlEvBWXSqHIllDTGhElAmj/IJefkWoZ6/9BxQWyK6I2k1MmkZdDeFNGZ1LORpLEsEKNGrSyFSUT6BrvkeyMlBaNyIo96B1lqW2+CzRaUxk755+ALxqRal6oVUGqF9WWKaA3uO1xJSnMfxPpShQlC4xV/zu+26vrNTPBln8gdQN9KG0/6HLthJGbXkoEJUmVR5kStUqutM+41HSTokmqe5JpqiRNL0G/ENx7ifHNV6l8olHsiUM7w7qSO1CSUCUXaCTDrBTkUUmzJtYc2iwvqD6QJYUj1FVOZK2gd42CZQ9rfmywaXJPkQ1HKNp7CShKXHQrfzqs+26vrNR3wZYNpjbhI2TJKHzrR/Pmmxkkb2odEiXlQpcIb72RXis8hHm9kKdTvT8MIhaELQhaELQhaELQhfpLnjnjmuhWxWKxzWLti8c/0GfbdX1mvRYTU4hBta3UZbDHqjoSmRC0IWhC0IWhC0IWhC0IWhC0IWhC0IWhC0IWhC0IWhC0IWhC0GXMEeZmqnugIWhC0IWhC0IWhC0IWhC0IWhC0IWhC0IWhC0IWhC0I6jSAs0KNKULanZV9ybiitbtSNyNyNyNyNyNyNyNyNyNyNyNyNyNyNzW4IkkVU3c5kbcpCVEuf8KwYpPe3Hsi55WszglNciNyNyNyNyNyNyNyNyNyNyNyNyNyNyN/wrIBMNwxRvTYTEudYomSZmQ8vNZEzCqpSQO1RU5ko4FW3sF4/sTzLSUSjUNMAllaOMNchND60PrQ+tD60PrQ+tD60PrQa6BsG+UEn6g+tD60PrQ+tD60PrQ+tD60IAkqti7Yu2Of6DPtur6zXos/XvXsGmNZi9GW1o2u/8QaypRDJeXkzHn2MildBTakwzzrFFsnqfsrelKV8f2bM3bSI4gS05FRm2ie7vVyl862Q2pqcTN9ONLsgoY09Z/oakpbVM6PIb0t9CUTe3OCIW+wsecq9U5xnOSSJPYSRzU2/h5xnOM5yGGWori7Yu2Of6DPtur6zUzxs/XXa/wBnZf1h9jf+LJvCopmOXokmp/hFzxzxzXQrYq2KzxzWLti7Y5/oM+26vrNeiwSXS0FHVNToc0q+42kSlZd3JG5G5G5G5G5G5G5OSiI3I3I3I3I3I3I3I3I3I3I3FqZf7Ow/ojc3M3yRuRuRuRuRuRuRuRuRuRuRuRuRuRuRv1m0O5SpdiowruaNoomlB8q0KlSpUqVKlSpUqVKlSpUqVLXE7AVKlSpUqVKlSpUqVKlRd0oiRIZKSv5lW0qk3LXelhoqWTJO8OPSsL1EyiSL9j7/ABgpqGZh9alKUpSNcaBUtTlFS0wcXdalKQpTk5a7xzWLti7Y5/oM+26vrNTPBln65Xa/2bSM+wrBSoUPsb9D5kKqT/SqGiIwkKxjTv8AoWOJ2D9DuCzz+dWyZRyoYlIT3PMUohEzEYQTaQ8cyriZlUILArI8YcWKZixTMTExYxzWLti7Y5/oM+26vrNcWWfrldr/AGfJ+MM+xv0W+Sxx+rdzn9FWOJ2D8SJGU0a6e4LPP6a5kolEqSUSiVKJRKJQrYq2KzxzWLti7Y5/oM+26vrNcWWDs6wKy5FLte1O4wpk6TTLYroMxXQroV0K6FdCVsroV0K6FdCuhXQroV0K6FdCugpsZf7Pk/GCSyeQroV0K6E40zFzIK6FdB3DkUwqFdCuhXQroRaldPwG1T0H6KwT3VRDdEjVcjFJJJKIakkkkkkkkkklridgJJJJJJJJJHo5H9wkkkkf3BqOSfzKt81giubKc2QqYm5GrXKUkehBdsRNZb+zhZ6yXqS9SXqKZzI2yJcmUNSqTDdiXqS9SXqVCcVRirYrPHNYu2Ltjn+gz7bq+s1xZZhaopagklMJKb4SFicJ6Wh3I6V9NwaX56V2v9nyfjDPsb9Fvk+HGxyKy6bQrL8FSit5dbjF1VpV2WFznpXzlHL+OxxOwfitcnf9PcFnn9NWijhacYipjRFToIiFLileMVbFZ45rF2xdsc/0OfbdX1mvRZ092uqLss+bpucF/npXa/2fJ+MM+xv0W+T4cbHIrLBK2SdVjaJQU0j8ZXOelW+Tufx2OJ2D8Vrk7/p7gs8/pq0UUrTiAVMQAqYAI6jM1grYq2KzxzWLti7Y5/oc+26vrNeiwdFJCqcqspRfWJYpLNTmiUN76GQSiUSiUJ+yx17iUSiZGSJQylwPXySiUSiUJr0P9nyfjBG+jUlEolD08k+ySiUNRyJqEShkcolD0EqBP4CeNLheHglXPSvnE938aObaI5opC/Fa5F6TuC1+VciKTK6bmTsRDPRqUFXQTnVhkeqIuQyUcjVqPdeo6JEeGg71be1cLPWQ9GQ9GUMkU1lDQkk8C2DqpQh6Mh6MdVTUs8FbFWxWeOaxdsXbHP8AQ59t1fWa4ssHVCSljvcYGp9csO7WEaGY+d4rss+bCVrjbnBf56V2v9nyfjDPsb9Fvk+HF01jUVl0+0ZPw01c2UVjRG2Jw2xtjbG2NqJdg2xtjbG2HFpDmQ2xtjbG2O4shNCC2NsbY2xthYqXJg1OJ3ZtjbG2NuQWLbG2NsbYmDbm2LL9Fc8c8c10K2Ktis8c1i7Yu2Of6HPtur6zXot6e7WE7A+TFdlnzdNNzgv89K7X+z5Pxhn2N8JrpbC3yfDh2hlCsun2jJ+tPzHefjRu2pME9iFn+osrXGVqT1MFslD6mPqYq/6H1MfUxNmaz6FbFWxWeOaxdsXbHP8AQ59t1fWa4stwg3HF8xu0htXh2w7tYTsBlDUVsF2WfN003OC/z0rtf7Pk/GGfY3wvwW+T4cO0MoVlg8O5KlhaMn60fMd5+Fxk1dybUOOie44PdmWzaj+tGLLpaq/Q2mMyKJjuSWLMD0KX0FSdmkeWZuKuqRejqS1VtTm2onwLvQ1UcoOvPrUmJHyWxZM68ImtGrVHVexNDDYleKZL4IssVSc3/jBRId7I8QeJGufkgeIPECzVp1o+hWxVsVnjmsXbF2xz/Q59t1fWa9FmD7GhKdrf4WghQRmQJ76EBPYIpCVEQJeyxe4gUUGBKuBK+SCCCBL2P9nyfjBE+jUaErkWogSnkj2SBfaIp5EqIgS9liiBaCKOutAnczKUuhu8KPS4sm7Va9I9CupXUrqV1K6ldSupXUrqV1K6ldRXIl6hXUrqV1K6ldSupXUrqd1hRImyVCr203LjrAbTzvcc8UNOMJXdfkrqV1K6ldSupXUrqV1K6/pbnjnjmuhWxVsVnjmsXbF2xz/Q59t1fWa9FvT3awnYGUKywXZZ83TTc4GOa1E5R4Spia4Ltf7Pk/GGfY3wF+C3yfDh2hlCssF2WfNhaMn68wtPwyxvcprBmjPvjQSq2um4bjbc3sQKHlQVjmH6GtKlxzFo3qDJCbKXqgTTUqq6IJpNqXbolSNkHj0eBRV/rRaJJWGa6FbFWxWeOaxdsXbHP9Dn23V9Zriy3p7tYTsDKFZYLss+bppucCLtsE4bsNmYu1/s+T8YZ9jfAX4LfJ8OHaGUKywXZZ82Foyfy1a6lkjbipnbgqqATKQnXQjeY04HXYJUuSlUs0oUSEmK2mUqmlCCmzKqVVK8/ZH1isqnrqxsStlmcqL2UF7sC2spe5R9Iy1WVM/TBXKjMwJLQy9IbUbYLbFVYZroVsVbFZ45rF2xdsc/0OfbdX1muLLceC/U2KiZKm4jQhptlqSuZyVKk5A6IqO0Qa3UVHLUErmcilJIqS3g2IbIERJtqIKUQ5ciIsqt4GzUvd7lRsFizoKjTaaJXM5KlScgdEVGolYl1lesdtChNaVZiyljWBBGRJJJJJJJKJRKJRKJRKJWpK1JWpK1JWpK1JWpK1JWpK1JWpK1JWpJKJ/a3PHPHNdCtirYrPHNYu2Ltjn+hz7bq+s1xZb+vfByclJ7L9eGk1DqhJiKNVoJSBTeFf8AfgghELQhaELQhaELT9LoI5I5II5I5II5I5I5II5I5II5I5II5I5II5I5II5I5II5I5I/Q59t1fWa9FvRMuPQkTEi0rNuwZ0sZjOVSIG3JVTNVjDU4iHA8IFEPLKLqXT7sZbJ7sHqorDPb5NTTq6Yv/zCBspUmlmosQ2XNbE4+CDcVosEWGydy8I2k03aIrgqv/CAoQal0T4wuNnzCT09xxMqDZrhXbJdJV9imU1cKO4uMzFiFUZ54CYUsrY0/wCFVJuS6jPCCvk0xMKREzR0RT7XD15uhTOMJq0zjjUk1m8afhpuFLHyxbq6OKXMjFLS6IOuk2Jn7J6KDlJMnE9Eg1EjsTkXc/4IWlmp6KiomV8kOLDd/wDOmz00k9Z+oUgnc68f70K0bruKalPa5xQTlJ40XmEwRzSFKsQhiKIKv6dLhitCjVXtg7MWqEnRWxCthAx2kkoJWxLtss7DsLt8I85amVVahObSc2kX98JtN5EypexlGSrjXhQSkm9DyJOeMWmqRZUVHi5sJsooI7SMywrIaOo5TXdxuGcTsRJK6exb/Y/Q59t1fWa9Fv50ot0RFvw5W3RX9eLqGKItq0oiOi40obvQYkRKS6ISBxaVYTUpU6It0NxNDatKsMpS4XTDRC1KCScwnQ3k2GrNqw3I7G3ToneAkTbSSm/8/XPtur6zXogN43jeN43jeN43jeN43jeN43jeN43jeN43jeN43jeN43jeN43jeN43jeN43jeN43jeN43jeIjcvCzkibxvG8bxvG8bxvG8bxvG8bxvG8bxvG8bxvG8bxvG8bxvG8bxvG4bhvG8bhvG8bhvG8bxvG8SUWMFGbxvG8bhvG8bxvG8bhuG8bxvG8bxvG8bxvG8bxvG4bhuG8bhuG4bhuG4bhuG4bhuG4bhuG5hNy5/LPtur6zXpgggggggggggggggggggggggggggggggggggggggggjqgggggggggggggggggggggggggggggggggggggggggjpggggggggggggggggggggggggggggggggggggggggggj80+26vrNf/ABqfbdX1mv8A41Ptur6zX/xqfbErUlakrUlakrUUqy/6HjJ4yeMnjJ4yeMnjJ4yeMnjJ4yeMnjJ4yeMnjJ4yeMnjJ4yeMnjJ4yeMnjJ4yeMnjJ4yeMnjJ42eNnjJ4yeMnjJ4yeMnjJ4yeMnjJ4yeMnjJ4yeMnjJ42eMnjJ4yeMnjZ4yeMnjJ42eMnjZ4yeMnjJ4yeMnjJ4yeMnjJ4yeMnjJ4yeMnjJ4yeMnjJ4yeMnjJ4yeMnjJ4SeEnjJ4yeMnjJ4yeMnjJ4yeMnjJ4yeMnjJ4SeEnhJ4SeMnhJ4SeEnhJ4SeEnhJ4SeEnhJ4SeEnhJ4yeEnhJ4SeEnhJ4SeEnhJ4SeEnhJ4SeEnhJ4SeEnhJ4SeEnhJ4SeEnhJ4SeEnhJ4SPBFtD//ACJ//8QALRABAAIABAUEAwEBAQEBAQEAAQARITFRkRBBYXHwIIGhscHR8TBAUOFgcID/2gAIAQEAAT8Q/wD5Gwioxa9SIiIKqwBmuAT+Y/c/mP3P5j9z+Y/c/mP3P5j9z+Y/c/mP3P5j9z+Y/c/mP3P5j9z+Y/c/mP3P5j9z+Y/c/mP3P5j9z+Y/c/mP3P5j9z+Y/c/mP3P5j9z+Y/c/mP3P5j9z+Y/c/mP3P5j9z+Y/c/mP3P5j9z+Y/c/mP3P5j9z+Y/c/mP3P5j9z+Y/c/mP3P5j9z+Y/c/mP3P5j9z+Y/c/mP3P5j9z+Y/c/mP3P5j9z+Y/c/mP3P5j9z+Y/c/mP3P5j9z+Y/c/mP3P5j9z+Y/c/mP3P5j9z+Y/c/mP3P5j9z+Y/c/mP3P5j9z+Y/c/mP3P5j9z+Y/c/mP3P5j9z+I/c/iP3P5j9z+I/c/iP3P5j9z+Y/c/mP3P4j9z+Y/c/gP3P4D9z+A/c/gP3P4D9z+A/c/gP3P4D9z+B/c/gP3P4D9z+E/c/hP3P4T9z+E/c/hP3P4T9z+E/c/hP3P4T9z+E/c/hP3P4T9z+E/c/hP3P4T9z+E/c/hP3P4T9z+E/c/hP3P4T9z+E/c/lP3P5T9z+U/c/lP3P5T9z+U/c/lP3P5T9z+U/c/lP3P5T9z+U/c/lP3P5T9z+U/c/lP3P5T9z+U/c/lP3P5T9z+U/c/lP3P5T9z+U/c/lP3P5T9z+U/c/lP3AoIRAFyM/X5HX1eI0Rzd//wCJeQ1fX5HXhfF1ldGcDHBRZzpyy7zAawmXTCpS2KrwueI0TM7/AP6x6YM1UE630Vn+L4MZAC5YmHP1ILE53RFaUK52QEtn/H5DV9fkdZSCYAvFzl7+pJRisOICXiTClhhhSmDKlc6IBRQgAqsBSpxLk7zMIvClzfX9TxGiZnficz7v0+Qq2+xB8haA9BYGPR4VJwOLgIac6x3lAzqMqBPfb3hKp15HJxFQDPjYLRfU2V3g0Jt+8Vsclgv2ExcAtcD4ihgQhjTTszDGadsytzecwOOIGociY3UZCBVGmDj0mC15JLq7u6lRc4JNFDbgXSucp4+RWZ2dWzAe7clsvyN3/wDlLf2NylWhQcLXFGGOgqr2i7ExKRyeKRWXC2tA5rlUGwUC4hjQWm8jldQFmddKthX54vrmb4CwerGnLCYKODJVsUBVbfblxZ7kt+pYJ9wGsVE7FltYjhbEcjDGAwsmAy5QDIbaZjk9K1MF1fTnL5AEFixFMacBgXCNrDzBeJeDFI5YXvyj4YpY9rno+VHOEcJQxRledBkMWG+AdxNKLYlVqg3byio/UVY47atU0rHOHSpcgjY0oqdT0lcWCEF0Xe0WwrzwIfNUMbhxWrRiVUVgcUGqkCnQtoVzajSOTUDxqyhkXzvBIYXN8XcxMawLTdpgyr5GDi10pF/pA2JvURSNQfYPX5DV9fkdY4ACxTrpKuz6eQWbIEqJvB0AnI1ycoummBCQKgxclxqKISLsEpoZYi1lL5+7rpWi5md+Io4L+F56W7ZwWYqA3ObRwXwB6orlMZjvG4Q5pni/BzlCqQxBalFz5G2cvuGQYYAllYMF9TKF/WheBZR4whiC6XNV4PmHRVIcgySdV33AYiisu1x4PsBEIg1ivjWUsLZwYsZkLPv1ha7DRWXVQpwMsUh00CpmsWdaXeI0jZ4uKjDNuS3FSnigQPJr4/8AyY03CrB2g1eyCplSVMNthBmMzwwUWNY8VEHZP2gFyKNVmIHwpiwBctpXvBXIYxXMTk8br5UriCKGClWUAroWJtmYE2Xi3UH96itObQFvThzluXWoK3aja4MwzyBcwu27wwUrP1KJqPaNxSNKCz6iXWUzZ7JSuVMHXGWJWJBkHB+cYboMKLW8KCARt5hgYXn2rcmFky7WFFLz7tpXJjGW4jwozQw4IIiWMTEXOD0371qSnEywhoyDZAFB/h5DV9fkdYzgP8IRG7DUVzOTiLKcc42ehMFpK8sGptg7jK5cxeK2BEyNppzOW/Hx1niNEzO/qrcDyoalcboKmU8m12XlBiA4mjPvM3GoE96i6qK2irZisWWlKXrMoB4ncc2c1JUBswyjUBQdiajNUe7DGdPlYMa0uWhrGoNmVmBmQMNP/wApdS6iEKLrAmI9uIplNcyyzXgLRjjh6Mm+cOqh2W2Jj1V9CxCElVmWbR7QawLzYVRV1yNvVmU5RBdRSNW8WNdpi8gwiaBR9xUqKDmuawsjRApbSY13gR2IKqugvK8gjorBeWpT9oorYrvV/n+/kNX1+R14GewLk1rEx2VD046TEt0OcrCznUViAC3RyniNEzO/G5cuXLly5cuXLly5cuXLly5cuXLly5cuXLly5cvjcuXLly5cuXLly5cuXLly5cuXLly5cuXLly5cv0XLly5cuXLly5cuXLly5cuXLly5cuXLly5cuXLl8bly5cuXLly5cuXLly5cuXLly5cuXLly5cuXLl+vyGr6/I6+rxGiObvwWVLZ3N53N53d53N53d53N53N53N53N53N53t53N53N53N53d53N53J3t53N5353953p3t5395395395395395395395395b1HgsuLTjynf3nf3nf3nf3nfnf3nf3nf3nf3nf3nf3nf3nf3nf3nf3nf3nf3nf3nf3nd3nd3nd3nd3nd3nd3nd3nd3nd3nd3nd3nd3i0cnLiFYm53d53d53d53d53d53d53d53953953953953t53t53t53t53t55Gd7ed7ed7ed7ed7ed7edzedzeeBngZ4GeBngZprvGVS5m0ZsoYlek8DPAzwM8DPAzwM8DPAzwM8DPAzwM8DPAzyM8DPIwCftPAwRftPIzyM8jPIzyM8jPIzyM8jPIxrwRGVcvV5DV9fkdfV4jRMzvwZ8T/wADI7wjMjt/4H5pcHeP/ByO3Bbv/G6onWbRLcOfP/TM7EPT5DV9fkdfV4jRMzvxfA4PGSkxDOmkLq/43QjmlBGkQ7G7DONXjyjGiNS/AgYaZHb9er50ODI7RQFciIteB2j2agIYvt/yIViukcpvu/w/LCHzcLQgJoTyr8RoolRl13P+JyYMVWgiKCaMN2OcOddljFHREaDqBT9zVn1sTucvVlcHyT/iG7iG1gs56RbVgi9DVPybmsAxtBK6aH6TeLRBv/LM7EPT5DV9fkdfV4jRMzvHg+BwTMvgqMG+pEMbFF62rN1ikq0c0We42ihNXs0KQExSZ5OBZWstqWhuq9sb5S4KY0rtgcxWM5y/IwieTmDBMspbIhQhBhObGnGBOQXiyinHFObC75R+XLCQCVvIteOuMpY5g4SjC1syr0ekttnChjzChiWjJIdLMuQGGGNYrhed+upQJYOXV0IUTdhgj7PMYUec14bGEFoDoIHXtC4i5Fi/ZjFyo4C2j4O0sxuCc1omvoy+8ODI7T5qWsqpphy3fvCxvnYOEVfOVnCgClgaHnTMOYhVhIgysQwI0RwQGMHEULfWsoo0GJFhtVwFRg3l7Xha6SsdLHDOA3RNtFLxKRwbFq6/1dEzcOKovW/LCHzHEBBSVGzbWGQ7c4aHTnOqCtvE1sUCPMOUF1aPurYBVitIsZZHOWbzYsOesANBCcYQEByNlmcRQOD2VRGsOhgODbFrM3Fm5SsG0EMdW+69rl5NcwBq0vLRyNZRpuTTTJKYrrQQcApLoNTd67Ocg5/odZdYXwwv2d+LhnwJmGSVL01gOH6X05Ucp8ng0acbcHKuLWz14NLHTjbg5VxalY5TI940MHkMCVaEzvB5aLBjOc3UFU0hiArM0jJb3cpOLi83H4vnM+ZY1K6cEnu4i3OVHBQLUA5sHuvMsmZ2IenyGr6/I68cjmZYZxEaRHR4eI0TM78XwOF5DkxQulkH6OJMDQqJVX2GNs6nIRZG2d1rEAUAFhjWVxNOO0FW1Zkg0gHdrLb20IWzrSD9BgAOKl0xcIOBUQQFmdukpfioDUDkwwU6I36+86J6Q+PVg0xC5/oRUF2DxUQAAAUAYHpHQDEY4X8O7IRIIHMePzocGR2nWQqX5BtxjYgjq0qtNvLOP2ClCxps+SNDNWMUlNeyzCdkRYu06XzgRqVOavB3IpWCw5GT7cpaxChi229scfU2Ki2sBZgmPMedaBWPxMfwjmaTVckwLFWzI6VWO8xjy4tqtb/SZDdm9Kr8zCPLG2g1v6VCipl5ldKr8ypY9LShi9o81hsL6RUXZ6/ywh8xwTQOTJcscRzpX8R7jHWKqJp1iSUs05CWeyyxRbYY2xTtMGhkAuCBdC8oLUFDIl3Xa8YAbKQMU5t9ecxSCOMcMtoGblh22U789Y4tJII2sEc/xygtKvZiraDAOmWEHDQIpBlfqyODhzLkSzY8uQ5B0ikuQMg1XkQbEWgNF5HWBAfRIDQOgMZOjZHuTPYcIO9wcFvdz0ZXB83hmeq+14faeqyI5RYedxuXFIAS076SqgM0paxuWNQiW1XkvKOFpYjkYKJ8Dhn4lEUgXmuOAc2GeDkGI1D+YJP/AIc0Qh4MAomZ2IenyGr6/I68HJlH1/KHYXWx6xyuRapSsS4+7w8RomZxfA/5HiYAnIM338QBQQOQesPjD0AygClsVneY9/vj86HBkdv+cqZVh+WAUWfi/wAPywh8x/yNhNYNX+j8xVQQOawgRiNZ+o7y0suRiO9QQFnpzPjQrXuOp1mOGq9ByY42YrU5kXizB6PHKjlPk8GhIg5rkw1gPfzBz98/Tfa8PtPVZHBKSzEy5j/ExVYEuWYrBodKGI7SkB0kWJRhWkUk5vO62s6TmNwOXR0Z8Dhn4B/eBzb+DrMJxWeVoNevH4BMzsQ9PkNX1+R14ZkZwVVnmy8McFMdYqYgKMAUYAHDxGiZnePB8Dg+BYdfLXB9EQqz9YxcGGZmRpgqMgEtGOdBKenYAlayIDmZkLQGt9M58t5XImcViRh8OTEplbaTMXVcssf8/wCNiXM4IC9XF+jgIkNjFeJy7xTnICB8xQ9FhWhZQSJiTO7yqIBAo+a1g1u4KhSlMtJbFZ6j29oMc+tHB0A1gIKwLdefD50ODI7f8qdAPVidCvRnjNWeH0/w/LCHzHE1QIxJhyYXMwBuELSxAMQpiOIxZ6DHbUsoYrWLkBFGJES2Cw3guFi4xygvQtRWHaWNOkYl13MoeobB0itLruMMT/EHMhbHItL92Efuh4NB4u7wITyHm+zj7wRBGx4kQzF1f/fvgzja3tzPvjlduHzeGZK/aMBZ6D8zk5XPO+IA3wzG3XmQRBGx58PteCMAYqtBEbszoT3ComMMwQ9nH0WRL0wJoENpgIfI5wWXR9OGh+cOCsoxfA+uj1jcvgsKvU/PDP3Rlk5lPvr8Rnn/AMKHIh8B+ePwCZnYh6fIavr8jr6vEaJmd48HwOFiBdRrIOq0HeYzAbkLOdAo+8Bjl3qAD7RJBcHOzv6JkjCPwx65su0Uq825tIALeXK5iQ3O41M1xcat/wA7Yef4ICznm2QPBL5hae0NnIsGYbrlVxU+Nek+BhJQC1zrFAc2HIcyqZjn2ANOLhnPsRXQYXLgHIWZFvvx+VDgyO3Cx0QHHGBadSXEeMYZexbKo6x1+NOILa6MynLn6STIYlLAtkY0TUOsxgqwotVncAcQEjysv1KGbLHmcfpJ9LPGas8PpDwgVFIo3h6vy8D5jiI4tUtxwWI2zLIcMWSQsWgvM75zDeYalKVexUWA3CifkrI5GLERLw5Ubjt2WmNjxaJcHL8wG5LaGR/jR5jhqmEwPF8Q1jQYmFf3ijRG3OKViR1XsmQ5Y+3EFxExNFiPBBjFzQ5ccrtw+XwzOIC20cyL1dROX3TLh9rBuuOrvodWYIbcU13nNCQjkFBB65/Dr35nSU3KZmWgdE45ESpbMHkmXuwAIUCUQ0Oj7OCieMOKAd4mux1O8B1DyUe4YSrLdxoXvmh8C5DPvrwPgPzx+ATM7EPT5DV9fkdfV4jRHN34vgcCEwrhboNt0Yr2lSgoea5rqtvvAACg6wCyFmQIY/gjtuFWFrAVQFaH3VT4kFhVjgGXtLrt64MYbyyN4IRKjBDi5rou19/8/wC8gTIcgTtg/jhYAFt4EEpisVXvBaBRZGtLOUvmkQYYMss4Gc/sJF5lnKBAHQGAcPg4/OhwZHbhYAqUvV5OI3cEwc9Qi8qyo6QNAwBQBkel2wF6vcENBKp1g2RQi0yY5hAQUpMF7PV8Qn2OP0k+lnjNWeH0mVH2Pr1flhD5jgaKgEsaYfE/VygcV6cR094K4KPvLBeKXnkERjAX0BQGNKgZFaxyhhLcUtszzVjqcuylm8hVzGLRNKiJkVWLrE037K1C6MMmGR/gIGOiUBaA+8iUIKO6wLUo2mFc46Mqnjm4F9jGGcdREYKNjSUjnAouoBSrMQ1OACmEISt0BjwbK8PwLWDRzYM+xJx8qeftB0GKIFLdUvJtMJU7lQNbxaVLCfCsNR4ZXB8/hmeifQfMH+TpMK0yp6isyYlzyTT4HvFIjirt9Vn2nGxPAoObcPYwAQRLE58BxJI8gjjikPIybYz6kNLUPs4K/wBP1x+Bwz8Q+A/PH4BMzsQ9PgNX1+R14uGREIWhaBbQYoXx8Rojm7x4Pgf8hACZL7D2cdoZYFicz12DMxc+PyITJMjt/wAPxCfYlKBw5y9AYXPpJ9LPGas8PpMqPsfUyQO7BVCPR9H5YQ+Y4oSOLY2YwUQgDkH+we8ZYZRrgdjeOUc1sohBzxQFXDWABjisW3LSYnOUjAliFYvKgfdAUowegPg9KKOs8aruBhUUXAB3VYKa3WGF8og65cHEqww4rWZtZftxA6H2GY18reGVwfN4ZnqvteH2nE86zHMYvGzptS6nB2NuEywcO55wAAAFAT6koGofc7ZX+jj8Dhn4h8B+ePwCZnYh6fAavr8jrwcmMnCk4DiroYrhlLBxsUCtWrXvw8RomZ34vgf8jA0Y65OnZgWV84eorTr6yZAUUccvvDgyO3DHwyDSu1rbeGXeAoLdclOZNDqlo3GVIrHqbwqqlwIGiwB84+jApAqMRtce20VEHEbZDWDo6otKgaKF+ItEwehfBV31a35zjpElULxGJ1q8IV5hPPm1ftx+IT7EzuxPpZ9JPpZ4zVnh9JlR9j64Z9iYmL6ENi7dTh+WEPmP+JnQbY1HmuT1IoNCEA53SmD2dBAJSailjCgsC2KTSUVhAA4gObGq6+lBBBQW3cJY5dOVSzmdc2zSxi1mwIRxATatsU6Rb1TGRABUuVBpbjwyo5T5fDM9V9rw+09FnhwhU5BUDhoNWQWx49V1Xm8PqSo6k7JTPbj8Dhn4h8B+ePwCZnYh6fAavr8jrxw8gBRowMVLKNy9kUHQrlw8Rojm7x4PgcBI8zVvnTkOf5qAxaCuRS3kuOBlDehkL/8AMZVqUFcqoUwrk9iMQ27TBaYefPtUHbqFThw06cKM841ZYUoCvtzx/Eu5jbDm5+md+0EzNrUGhxdQuebpGsIFczsEFLjWWNYwJYKpobeQ0AFuLlnDmigTCjB7jlc5KUg44rrpVvUzfBjAwW3aYDiwPUiGywbL9JzULnMSe2UousJTbgpb15VM3xuy8kaePyoTJMjtwRUN6f3p/en96Ntndxr/AKUMPwni/wBTxf6ni/1G6AbWE+PQtokoyIdlBjmRVxJXIl4UFcyXgSVyIKygpzJXGotpdukFC7khlBKJK5EOygxzIoCSuRDsgdSKsJKMiBdAvTh+XgfMcGJCkojsmUSQC3Z0U5FYNZ54ZRPQ46xMGR5mjN3/AHltVyzqKRcwisdXA6XCLZE4MWBaS4FTC66wTg3FlXFrmNDkuF8sclR81Yyf8bWUQBvE/iWUNVQ3CwDDPDElpAOoxwMWmhBULcVYWY49Y3QHEA52ZgwlkHaVw3b3HKO1Y2Xg2cTyLNG0Qq7wMc5SzC+TgKpnVYwEIaFWYdfRlduHy+GfHnfHLhnx53xy42BrKwy8cuFerKZnYh6fAavr8jr6vEaI5u8eD4HAAUAGh60w29gaT8yjHAxzlGkolGGBhlMqV2NmvqJHmAAxrABKJk3ePuu/qK/ZMqtus992M5K0rKW50UXx+VDgyO3/AIH5YQ+Y9SwBVaTLt/olAlBFw9pvd+RAVAnT9UwKw86/+UrAgAoReWNQGYCnaBRRlxqJFqsoPYgCoOZrG+J04oA+p5l+Iow6oLfc4ZUcp83gYcAXFjeP4JkwUo3d0j8eh1czQGIlq+mEULdBGi1Xyw3ejKsmAY2aPaNRBccqq8Pe4jKSXbl6CxQYRrELTvCedRsp6KmBgVOhi5mekoVY9CmA5aY5+hcA2TWKxp7YRKs0vEbTFCzkrW8FQpTWJxzOxD0+A1fX5HX1eI0TM9+L4H/gZHeEZkdv/A/LCHzf8QxEFCbW886/E86/E86/EDuixAI+nBNFUl+Z4N+J4N+J4N+IAH8gCe/DI7cPk8MzBjjlKPTS7ovt6UwCODhn6egzvLn6VLwMc8M4EAcyGfoqUY4GOfozOxD0+A1fX5HXg5MpuY2ZwS0bF5MDnKoZVuyUui+HiNEzO/BgaBznVdp1HadR2nUdp1HadR2nUdp1HadR2nUdp1HadR2nUdp1HadR2nUdp1HadR2nUdp1HadR2nUdp1HadR2nUdp1HadR2nUdp1HadR2nUdpYKKCESGAthznUdp1nadZ2nWdp1nadZ2nWdp1nadZ2nWdp1nadZ2nWdp1nadZ2nWdp1nadZ2nWdp1nadZ2nWdp1nadR2nWdp1HadV2nVdp1HadZ2nWdpQYUGXB1lLMPadZ2nUdp1XadV2nVdp1XadV2nVdp1XadV2nVdp1XadV2nXdp13add2nXdp13add2nXdp13add2nXdp13add2nXdp13add2nXdp13aYeFvtHdexwtETMxlPAj2nXdp13add2nXdp13adV2nVdp13add2nVdp1XadV2nVdp1XadV2nUdp1XadR2nUdp1HadR2nUdp1HadR2nUdp1HadR2nUdp1HadR2jThb7RlXOHp8Bq+vyOvBxJf+gIDS6VblgzDu0uiq2sC+HiNEc3fgkT/vAAAAACBK4JH/uAAAAAIDgkT/vAAAAACVKiRP8AvAAAAAIr1eA1fX5HX1eI0TM78X03/pf+1y5cuX/jUqVH03L/ANbly5cv/G/9Klf5XLly/wDxvAavr8jr6vEaJmd+DCQ806f+G2226c6c6c6fDdOdOdPhunx26fo23TnTnRnR9G26Pz6Ml4meJniZ4meJnieCUMCmZKPLgKAnRv3ngZ4meJ4DxPAeB9SCA8DwHgZ4GeBnkZ5GeBngZ5GeRngZ5GeRnkZ5GeRnkZ5GeRnkZ5GeRnkZ5GeRnkZ5GeRnkYB5HMgxgnkaTyM8DPIzxM8TPEzxM8TPAzxM8TPEzxM8TPEzxM8TPEzxM8TPGzxs8bPGzxs8TPEzxs8bPEs8TPGzxs87PGs87PGzzs8bPOzxs8bFzk94i6PV4DV9fkdeLHlpryrRbBylNVLOnHLh4jRHN34M+J/4NDmbzqG86hvOobzqG86hvOobzqG86hvx+Zwyf/E6hvOobzqG86hvOobzqG8Eck4fQhFmV7/+Eg5m86hvOobzqG86hvOobzqG86hvM+Gb2IenwGr6/I68GIWFGQK0Nqrs4oMiIyHAbHaLQW9hpw8RomZ3jwfAhBPJoC2jngSjieJubToYmPWC0qJiKFuqjh04FUoGwQlbywXFQFWgzYm5906rdOq3Tqt0x4FkIl/8bow5yiZmDBpxy4IkAFqtBPw9bNYIKXKBu0mfFZnLh86cpkcG87IqoKgwxSBUdZOfcr05lUrKlhd0gKB2llU4cGAs53DE9IMgAWs6vdOq3Tqt06rdAOIZCJf+7xDlwsqhjljnCkERHJJZdWXpxSKw9J9aEZl92DgEoaAOcCWIvyyEKx5XV8EDB1oCAp54JxfhcFoGUPPCXZ4MFtBbMhQBposs5OPFRE0Baxtz7p1W6dVunVboDxTIRL/4HWDnKqWWllnKCJYianDAGlOA36MArnwzOxD0+A1fX5HXiSABS1HWoqlVVzXh4jRMzvHg+BD2JI5jgkV1b/NVHs4XefI7UIxShesT5XVYexDSuoPIY+LdLXxROxR2jwByHo+cHDkCq14eS0jqzLJc+bTKuuf2FYlRq0xyNsHj8HmCy8NpSfsBMs5SVzxKrbSjF58pDMXSsw5H/HkO/BOjbZlNF3qXTsaEpwvnUNBQ6LttU6ZRIoKFHStoAp9oVgpSGJhV4MRKvLWOJDzYMZaxXswF5saWcEsGOTt9E+vdny68M7scPncMj34I5qaJo7rHPXCVZ3zF5s1XQGN3ENzrBzgwUyCu8bfYtc0TtDGpeJiMOaVZtoDEztHpCDlpmz2ooCaSl9ILarEMAGBVFDHvN81m0OVLCBb8SSClLapbHFCmClQXW8SOgmrBXTaYmCwFSJEELI4ExzAeYGPD5L6iruxBe5plpj36NYAKoFDNk23E6lW9soMaXrnWLyily1C0A88nna3yM8lsVC8bvJdmhy9v98rtwSDxUwZtvZbgEviMOR0clxmB3SjmlM1WyGbAu0u07UqOBQQq1xg78UDoDnjjbn0y6s+NM/2hGZfdiL4CVdpYOamEJanekApgzaDXNKRaiDTAuIlOCu2CLhtbYHAjTi6RFLoFaiQaQNOqx26x2IAkFV5NGMRalcAILNjHticpVrDM1pumrr7iqcj8gKw0UochWJUKtUcBMQrB5gY8PFaRkkLXe9plWWP4xB1SlLoOhtuIAdVtlg3m1q6zIOIaDbgrPJvO2+XPng6B5l01Dkf8GQ78AlVpoLt3WN5T1gzATALxc+TmaR5R83cEVx64MtIAroIsIYTHDoRhuIbwFx71vaDSRjo7LmaODGUSAFZvVhwszsQ9PgNX1+R19XiNEzO8eD4HBULiALytecEQmIg3HMrKWbBxgs7BTEUDtIb1WGmGEr+mGL1dXiq22ehjGOtBA/4xZ1lOqY6pjqmOqY6pjqmOqY6pTqjFrm8PncMjgEGKSodLIwL2vijOqML5wEAxgtReuDFvKZqew2LngYS67ntYgx95i12u5x1XZhhhFOK7sKxLpbkQDAebD5K7sMMY3NMwxmuCrhAdAEDmVWZRWkOCLYdHWkgk0oFAaBwSymX+gYxjqQQhKguiJ/AT+An8BP4CAWCaj/izSZkx1THVMdUx1THVMdUpZFd4FAaTP9oRmX3eGQCZS2XPhxpxIslKE6ANSi3nhPikCBIomFeSmamRgqpyvuogpAymH/hSKczA50X2ld98KLKkUQ2w0OgNA4rt+gYxjqMQxf8AAKVKdUx1THVMdUx1QEKEHaY6pjqiXbhwzOxD0+A1fX5HXjZqQb4eI0TM7x4Pgf8AmfO4ZHZ/5GnBAZ25/EVSpVzWVIi6tyNV7S5GBKvG3IDqW9iKFSLChoHm9OCe6d/Bvn/xZ/tCMy+7wGpGFRjn/wCVmdiHp8Bq+vyOvByhRfshVybEdeWsVRladxIAc3fh4jRMzvHg+BLYKKcRaRD8qFU4OLrevSNWKzobqjXrccWCbSteyVr2SteyVr2SteyVr2SteyVr2SteyVr2SteyVr2SteyVr2SteyVr2SteyVr2SteyVr2SteyVr2SteyVr2SteyVr2SteyVr2SteyVr2SteyVr2SteyVr2SteyVr2SteyF80exw+dwyO3DDhNmDQY4rkZMuoaVYiVlnoYmLqf8I20R6HL5i4IwRKSWlqjiDg4ODBmuOlrqzEy0j8lIgt5qXSsp0Yf0F5hhy7/8Wf7QjMvuw8hCMrMyaT1mJRoGmXC2qWhaFoWhaFoWhaFoWhaFoWhaFoWhaFoWhaCqhfGoVQtC0LQtC0LQtC0LQtC0LQCjO+GZ2IenwGr6/I68RGuxYgjYGNs5ssrg6CSWwZtALaMenDxGiZnePB8D/wAz53DI4O4LTFhpwu6rHT/4naBUqsDDHP8AKZzpNp0m06TadJtOk2nSbTpNp0m06TadJtOk2nSbTpNp0m06TadJtFm1vafwUBExSyzp7xmAQ5Un8FKigV2nSbTpNp0m06TadJtOk2nSbTpNp0m06TadJtOk2nSbTpNp0m06TaAGQEz/AGhHKZXdigKtBmsG1KjHn4m//PmdvQMZ7f75nYh6fEavr8jr6vEaJmd48HwODvOpbrSAOZnj2l4CwFyUHLqLEVwRtLfylv5S38pb+Ut/KW/lLfyltfxLa/iW1/Etr+JbX8S2v4ltfxLa/iW1/Etr+JbX8S2v4ltfxLa/iW1/Etr+JbX8S2v4ltfxLa/iW1/Etr+JbX8S2v4ltfxLa/iW1/Etr+JbX8S2v4gJmrw+dwyPf0WI0W0L9Tr5NXMTP/hEEMTUG8/e/iKIhQVsByPP8f8AJn+0I5TK7srdqwurqBBhGilowyVu8Of4lAoLaxecbLl5TpMchs2PqnMAUso9Zga7Fmamsw+e1yL0mTNFjOGswHgYV9Ws0ryr0l6A2bH1SpFhSyjMDnSzNrWYfHGjIvSZI0WM4assGCsK+rWaV5V6TFFbNj6pzQFLkGXXni+bWsw+OtGQukyRosZw6zAdKwr6tZlrh/8Aq0gvN+97QAi723V1d6S7tg6oLjZNUrruSuu5K67krruZXXcyuu5lddzK67mV13MrruZXXcyuu5gVr7vDM7EPT4jV9fkdfV4jRMzvHg+BwSWLyWJlKScxv/yfncMjs+lpK5qbmvvE6WNaxdPLaW8aYDJ6EzP97f6MjNeQdYgvZEHCxdO0uXgg4unEeUO1jyih6aOp/ig1BBZ/jn+0IzL7sWhccNIO0obpFlZZ6GJEHMmZgxzwzlMMGGWGUwkpTnhKXdF61MKqVpUpa0W54TIwYZYZTMwY54ZzIwYZYZTCSlOeEpd0XrUwqpWlSlrRbnhMjBhlhlMzBjnhnMhowywymElKc8JS7ovK6mFVK0qUtaLc8JkYMMsMplJiN4ZzKAXkayl/UkXK3z+IhCvanmTF23++Z2IenxGr6/I6+rxGiZnePB8DhYlgEa2Kv2L3lYUxhYYB+Ihbb3leu7K9d2V67sr13ZXruyvXdleu7K9d2V67sr13ZXruyvXdleu7K9d2V67sr13ZXruyvXdleu7K9d2V67sr13ZXruyvXdleu7K9d2V67sr13ZXruyvXdleu7E8p50Ql2AWmu/8AOUqSNb5XruyvXdgszsVlqvI6wqmdxPYHI+Xh87hkdnggoIiKWRuncp3Y4oEC46qLHKzF++GN6KCYXBtYMcC4oqMwwx78zoxwBe6jwzNoWE+TRJTq2lOraU6tpTq2lOraU6tpTq2lOraU6tpTq2lOraU6toHHGh8h7H32mpv9KBaWv0sb2qx0R1HkxOCKqiuh0+3xKdW0p1bSnVtKdW0p1bSnVtBKEY0BG4qAzvNONdYRFqAlb601OeXrDeq+ZRE6oZTq2lOraU+SU6tpTq2gJm3M/wBoRmX3eCgAWW1lu3tje/BZtJ0p0p0p0p0p0p0p0p0p0p0p0p0p0p0p0p0p0p0p0oLC5vqVhzGX1Vtyj+FCmD75bRTVyTpTpTpRCxyAoY1jOlOlOlOlOlOlOlOlADLhmdiHp8Rq+vyOvq8RomZ3jwfA4MUQ29hmx4twaRER7P8A1ICgBmsVBDDMDvk+Z9bh9zKMPDnEmZb0GUgZkOPYDFnOq63tGXu+0EUHiNddjI9jhfL0/sMZohp03wfmZtblYGti76RSXVbLXVePzuGR7+nwOsMzvMntwaLbPL7GT9zIjvL78/dh1ggAUWI4QZof8Sjawlp5+z7SBNR0E8ronldHgdIVI84LYzWY8GDv14qAqgGaxdQGTgDt+m8IElkOHwD76y1LXkgMdI/1kKzaU4djAK3GM+HAH7PzETZjkLfZKsZLQ3TXWKw8c/2hGZfdigW4BCwALRVBdW8bNZZrLNZZrLNZZrLNZZrLNZZrLNZZrFDvpGv3YN3rg9cJZrLNZZrLNZZrLNYt/wDU6RY9jF+p8h9zIYE+I+BcP61g+5T7yzWWaxAKoBiqxtTY/JmOeWlwOYLNlTVSzWWayzWWayzWWayzXjmdiHp8Rq+vyOvq8RomZ34vgcEzS7KMeeTyMYt+LxVcgy9oo2h9p0m06TadJtOk2nSbTpNp0m06TadJtOk2nSbTpNp0m0wW4JCntOk2nSbTpNoiW7ESiDBAQ75DeHKB50nuE5zyfOK/u/8AJKGCLyKvyNTktT+iYG7ASh81YdshtAQCDICdJtOg2nwmjG1ec0y50m06TadJtOk2nSbQEqVZnOdJtADIDtw+dwyPf0+B1hmd5k9uOcbxUpS27cntLhuUYMGl/RDL1lQEqeRGnCul7f5PV4eV0TyujxRmQpEsSZRvLWL0uvVyiJV05PKWCQzF+APvpBoDnMIe35bQAACg4eO1nwvs9BEq8MzALlg8v3wx9Gf7QjMvuwwrBHtMVVXMswYYOHQ4KNo2n8yfzJ/Mn8yfzJ/Mn8yfzJ/MiIqAdICuPAcQ9KznwoS9jI977QyGnFLMfg6EXwJVDNOU/mT+ZP5k/mTpNp0m0y0zcukKsKRYc1o+mfIfcDIZOXSNRFsA5cvYuz0nSbTpNookLaQZXLs56wAA5cukAhFcjyWk3L950m06TadJtOk2nSbTpNp0m0AMiuGZ2IenxGr6/I6+rxGiZkeD4HBzZZe4YGP6hFBFQKRz/MQaUPedNvOm3nTbzpt50286bedNvOm3nTbzpt5028rH6xQQqolm1D6N4FmAhVRjym28+AsTkB935D6mdDzIPYze6QfaOpW1hvcQqZkGATpt50286bedNvOm3nTbzpt50286bedNvOm3nTbzpt50286beFWC1XIlYemyunIdJoZoDtg/EGxLIRE7jw+dwyOzwe1WkBaJ5rBrOuWwyxP4WxwzfHB4g3dYZneKnBlrL0N5ehvL0N5SwETEFtXEGRCI4tWJiPWc+8jn8ee8EBARxEZehvL0N5ehvL0N5ehvGMFuYmGaezN9pehvL0N5bEP4kTgl9Xoy9DeXoby9DeFIAz5wgoSVqaQqEFpoBL0N5ehvL0N547WNwDlzdUvQ3l6G8vQ3jxZy8+pPhvuXoby9DeF8ypn+0IzL7sVjS0XhLQuUpzG+2fTghmN50m86TedJvOk3nSbzpN50m86TedJvKOjbnPOAJtWmR+p0m8ySy16wSQWoXmBie5cFpIsbnSbzpN50m86TedJvMos3OGxmNePIV93Pnvuc7MvPpBgSEXMqWlquz7Ttn1GPkGia9vXV5d5hLCgMgmQXLn0gLGNj8yvu06TedJvOk3nSbzpN50m86TeCOTfDM7EPT4jV9fkdfV4jRMzvxfA4PlgGStEu8+cA4iXQtwrl2/zLJLQALpjMin/1EZd3aBhXOt9xgGdgBeNPN7QaKFR1GY88b/0x8qOQTJYBDJA7susI1ErYC8FWanpyLEDozzsM326+n53DI7PBUJiUUxDS4AIh2AYtTTh4HWGZ3mT29Hl9E87oiXgxWnzrMuuntl2mIsDSOCtE5PoAiKua6vQze0ZpaxTNOa93j5XRPK6PoXanDRCCyw2NouTiu3o8drPhfZ6Pi/snw336M72hGZfdiWJrL6VLdqpXLPXIz04VKNJRpKNI6MAGBaxKVAMxKNJRpKNJRpMWfuGPufgISuHNKNIDL5fmAyNfqYkzpd+Pwa9pRpKNJRpKNJRpMg5V2jFGL3Di/c8drOS8v1CGDyjnAFUsrPG+eUAyALvCUaT6P1OWS40zjk6pToMH5GUaSjSUaSjSUaSjTjndiHp8Rq+vyOvq8Rojm7x4PgcLxLCxKrBTepWXbAbMhz94gcnaV02MrpsZXTYyumxldNjK6bGV02MrpsY3Y1qHCO47GMRR7nTl3lRWOCMO9+lwb3TAe3P32lKqugVRBw6gVeYzPgNBTodOjaV02MrpsZXTYyumxldNjK6bGV02MrpsZXTYxArYGKplGQmBzjNGnWMPvd3WdZZTJvfL+JgPYqTnidLou6TTLBi0u/IPcX4zldNjK6bGCi5N8jmuh+oDdOZG15r1ZXTYyumxg3r7nD53DI7enwOsMzvMnt6PL6J53Rxy7xWCwaDmfJMksXdsGq5nBRFQAtXlAmWhY5a+7n2r0eV0Tyuj6PB6Mcmec09HjtZ8L7PR8X9k+G+/Rme0IzK7scqgtekpA7oxNXW/BJpZ1J1IVsLNP0H30gALG8CisC8/eLUweadq+jltrOpOpOpKNfhKe6/HdlEYIADIlLjzTrTNPL8zNPN+oJHB93NfZ7zrTrTrTrTrQVDj7AuPxcxGM8FrOdcv1DYnKB224DM18s60DN0+pnnX7lpMj6fkD7zrTrTrTrTrTrQRy4Z3Yh6fEavr8jr6vEaI5seD4HCowzU6V+ZhxC243f8Aibc1q5Szu5NfZcnvgd4SC7yEOdrzgz0YHQ4NKmv/AKjW1uvyYbM1IwYMyUz6en+tZb4JnTdevm6NAWrQObBQXNBs76+2XeKaFnMDpLHlY51vHii9N2bYLRp8OpozK8h0/j676wWtMBjhF0IcF7H5PX1fOnKZHALlmICrpaztycouiXvIQN545MplCaHwwzO8pceU606060Bqf5p43ROtOtOtKFZNhgrUeTHJV9U6AyeuT0l4S9to1y931KOc606060VqeIRBa/xZ1p1p1pnr+bHJmc/4TrTrTrTx2sABeX2TrTrTrQnH5fsnw33OtOtBHKZntCMyu7wGII0U58bRbABrF1YqHJkFvkuddoaG8gon5vxAgCAPMxjwg2+73Mn/AO8ARABavKIzpRV5GW+fv0mf2T73D4f5nyX6jKarboMT5CGYoJrR5np6PT75Pt2mInmtZ5FymAT5mfG8Po/U+/8Ac6M+FH5p9vRSnZVusDAKwyT0Z3Yh6fMavr8jrx5L7h3V3Xu04dOPiNEc3vxfA4DBStnO6X2ynNgByOA/mKjgmdTuTqdydTuTqdydTuTqdyY/uoTYa1cdxjdRbuc9LwNFyDeaFWnVic8YoUGPcnU7kzn9xqRs37jVOp3JZx0lOUr1egBevJw6zshdF7OSdp1O5Op3J1O5LCgGaphFgDAV+gHn7Q2LXKe0OROp3I2Z9xGz+bzNZ1O5Op3IkqTN1O5La9yNMkaas6O86ncnU7k6ncnU7kFc0cPncMjtwt448UwOfLBdSN5tAYWWsHDLBlWXDwOsMzvMnt6PL6J53R6SsUsSFJlnCAkCScsij0+V0Tyuj6PB6Mcmec09HjtZ8L7PR8X9k+G+/Rme0IzK7seKBRduRKrRfTpwMev1wQNU7QldQ9RLUqKADgVK6bGA5Hny7QAwPLl3juVVhZ6PRyYSIDbMQzGCX0E4afdw7XK6bkK+Dk5QA4OblK6bGDk5NHWBkvPl0ldNjARGzk8s323ldNjK6bGV02MrpsYVOpkTyLfn4QLYbk81rAyHtOkrpsYWQ5+UPKyeTK6bGBkvLl0h5HNydYdNksXOIgUMvkwfkldNyV03I9zaFRTBp6ZSmIMuHSV03INnP3OGd2IenzGr6/I68HKVAC+IhhVLQ82KkizvmgwiisnmcPEaI5o8HwOABglCManQxAr1vhqHfoOrEuCbA4LAvnjXFm2JVDLh53UnhdXEI5jal57TnyrHk6mk566lsP5Y9YOv2YxbRvJmQr0SPbM/EAjPEMJ7ZN7ZnC5AtYYZQIGai+ALkq2yYItyzkFPq2ZfJZGhVsdvX86cpkdvT4HWGZ3mT29Hl9E87o9KcQ4mutkSGUG41xPT5XRPK6Po8HoxyZ5zT0eO1nwvs9Hxf2T4b79GZ7QjMru8AQAjEYZcfN6zz+hw/N+Jl9n54AQA2sEYD/8AdINN9XNdYZ8+Gf2T73D4f5nyX64YVy+Dvht7ehQKtBiwtoxV+6/pmZPNazxmnD5mfG8Po/U+/wDfDoJO5l+T34PSVSs3U11eXfIOFKAwCeJ09Gd2IenzGr6/I68b66gMuUAbFuJTjELtzS8PEaI5vF8DhkGnYFOD7rdbS4GNHKpR+blCrD3iEyjC2du6du6OrkLVoEr0BOVn2ufdw7wWi4zCvVjW96YZTt3Tt3TMQ7naGFhk1nbunL/c6ky09zqnbunbumQhnzdWdu6du6WsqHQpkzt3Tt3RKsOJUGqy1azt3Tk2ZzmRh3OrO3dO3dMqqbt3Tt3QZ0eK2DnO3dO3dO3dO3dC+de3D53DI4OCLUWlrFqBEyW1xaHDwOsMzvMnt6PL6J53R6fL6k8lqenyuieV0fR4PRjkzzmno8drPhfZ6Pi/snw336M/2hGZXdjpsgW9IAUmOBbsxYe/v04KGDZj+42e/kloJzOf4iVicvzLQQShUnMVDacICWgl8WSYHFmloJ0T8zmLn9S0Hc3uwwk6CUYUwZaFoAcAHcVfmUcQFES0PNaxPMqloPmM8bpGWhzFy+o3cPuWgSBROglJ9PtML6WOGGnV15RyIqA5RsxmjZz+JaA3yTvwzuxD0+Y1fX5HX1eI0Rzd48HwPQMNowPeEYRtdCGM38k7FxpiBKhXVfqBRs3XUTn78Uj1vWOV58fKdIZO3DzupPC6uPyfs8SnxDErpxHhuLS8oqHUvh8pPGavq2zTkWY43z9uNno0uo1Tmg8fncMjg7oFbGv5hHPUoiQ4bGsX2Z9JnCMz3dYZneUueWs728728728Aq3+ieN0SvXed7ed7ed7eAKfJILs8kne3ne3ne3ne3goTxCAbd3ozvbzvbzvbwOd3+jHJh83udJ3t53t5XrvPHawlMcubqne3ne3ne3hD45efUnw33O9vO9vADKZ3tCMy+76fN6zz+hw/N+Jl9n54eL0ng9eGf2T73D4f5nyX64KGWoy6Ryib9Zyt7n7r8LG0NGbwHccSLmiUuLQ/u+GZPNazxmnD5mfG8Po/U+/98L1LVRxsffPCHvkBXD5L7nidPRn9iHp8xq+vyOvq8Rojm4M+BwYcxMjgeXvLgVxW0KPzcqCjoM3HH2qHbY/YanC92ADtou/P3YdJU1goCgRTLfLnd57StDaVobQZBfRNaG0rQ2gxI7HaBRgy0laG0OTezqQZF7OqVobStDaDAjPk6srQ2laG0tJXyMGCytDaVobQ4gZ+XSDIMjlK0NoMkzcoMm7HVlaG0rQ2hcJ2yrQ2laG0GQZOXeVobStDaZJS0cDC4rQFBqoDzb9uHzuGR6fA6wzO8ye3o8vonndHp8vqTyWp6fK6J5XR9Hg9GOTPOaejx2s+F9no+L+yfDffoz/AGhGZfdjk41Bqi0o0S8nsr2z4Lb9o/yHrH+W9CeFi3HPtFTsc+88LH+UdI/yDrPCxW9DnFT1Oc8LF2LXrE908+k8LH3Dz6RPYec8LMSGKVZ2Zga4dt1V7dZ4WWH5zzWsX2N0nhY+4ec7T+c8LF7Bz6Re48+s8LH7Jzj9y5zwsfcnPrH+UdJ4WCpiVwz+xD0+Y1fX5HXg4DDO5voGbkxXVRxXrJwKyHBPs4eI0Rzd48HwOFUToPYvSHsDawREYDnYUNOZc16VCEAA0B1ePlOvqD5TpDJ24eZ1J4XVx+T9nj8R9uPzP1PgnD5SeM1fVt8J9PHyOjPi/rj86cpkenwOsMzvMnt6PL6J53R6fL6k8lqenyuieV0fR4PRjkzzmno8drPhfZ6Pi/snw336M/2hGZXd9Pm9Z5/Q4fm/Ey+z88PF6TwevDP7J97h8P8AM+S/XD5X6nwvD4jPnHDMnmtZ4zTh8zPjeH0fqff++H1p97h8l9zxOnozuxD0+Y1fX5HXg4lRSegJGgyA1Zzl5BQVR8g5Bw8RomZxfA4cjxAKztZ2gFiCOVmUqmJjxJjrCLpMCwqV13Rab5Va0dJbCGtXNldd0rrujKAFSuCKHDUxJXXdK67pTAekbNHXHKV13Suu6DGhAORatNIxEWDfhXKpXXdEBd7mNlNt5DfU17yuu6V13QWcYLbwLxldd0rrugliFYgKC9Fsldd0rruiMg4ANjtzmK2Bm4Suu6V13Q5ldhsvyvvK67pXXdLc7VZqbyeeTK67pXXdFjjiGMJq8s5U5u8Cub7vD505TI7cUL2fgNNisHKrzwz4Zfz0OUCiS423UKFU3l6G8vQ3l6G8dvIpmpGyHSq0i03UvQ3l6G8vQ3l6G8DnDBqiP8hv2ayqBz+pehvL0N5ehvL0N4/QAAvLDCOIGKmAVlL0N5ehvL0N5TGntHGkqGHi3xDFW8QEoAx5S9DeXoby9DeBcOBXS+V3BRVKs4rdsvQ3l6G8vQ3gZaJDiTB4RRVfe5ehvL0N4XzK95n+0IzK7saCmhaNYRunucMWFrj38eHcmEGCqY9u1NtE7kxyGReTKSKmNZHAOAEDZeUctoVRyOAwYRzHrFuI1QcAv8FKuoKxOQ5uAFjQEiJ2llZvALYjiQqrgb6vANiACT7MguVQhtAA4B26S28yCloAcAqwuYeUp4VM64AdgNUjKrEt2vWdyZYcCnnGSxS2sp3IN8k4Z/Yh6fMavr8jr6vEaI5u/F8Di8oDnV/2LUPAqBiADs7ueUMMCgORKMytVdGspAIyEHQYZnuwgIa5CuCl7VGgrDvjlpcK67AmPJLelcFQYgHf8RzYheLkbW8DEe+nOMjhzZnhgvbDlmPmAgAMgODe5Ysg8jliYOJhnBT4FzVvvjwUxu9H/wC8/aYshKlOLHZrG8uFWigB99odsLEXW1rOo+/bgYYCpyCYETgEzRKwxQd8IJOsgUcHXFoliYe3O5TTHDLi+/DlK1TidfOdRwqDchS7xyxXfrXAe/KDVZQJlgVW4scKpz6Ho+dwyP8AzMz2hGZXd9ISBzDTjekSnBo95e2ulHucFiIurycMPkl8BkF9Nazl8FgBxFyau0ABGxxOBooBQ93Al8HAuZQYVtby++F4fg4CDyKLEcEgiWNkcuAzWGkwcsK4KAq0Gay6paxeXvACoaawgMlAtdJW12Ap5OTxcQVC9MNfTn9iHp85q+vyOvq8RojmjwfA48+q+Va9V525Y9IFQo4UD6jF0mFy8sVvn0rE8bMaKt14BIPptgRVlaQjbwly9+eN4v5bgtAopmcoRJtFsFgr7rgGDTfDEYMGF5XLaaBQUzUh3D7hSEFVrVz4YW1hYRFLfb5L50wOXMdRfPHirA3NVSjN78ug55gAAUHKI7ZAC6dYWm6rDVOWL84UZNWXDLAKA5cEznDyDI46/vCqlEqsvu8MyGykVy4syDi0hgLA5duGklFhOZMG00jnZW6F8yrIY4YYYW8AgQsvlvrGFswoK40yxL5mfaoAAAAyD0fO4ZHpsw0EwUgPtz6LCTWZpE5rrkr+xOIqGBTk15l6DJEQCKsLp1qXiiLQZTJS1d49M4XWOfoYQCrHBLrftn1gUirDKhVKKzcemevopcEAJMZoWodum3YFKY5cx6CgxtLEb9oSRe9BK2bS6PRnIWVS2+ksDBsXGBhQX6aJFQHHeStXcqsfQ2FgYEBb1ML6CoOShtMK2C+Vm6UdEdBrLjme0IzK9L5ApwZaqqx6fMBLAgwKxCr9+A1XaK7p6VcwwN3lRbbxbxquCYdtkwvlfUx3mF92oYAWsfj54NkgVDApv5l5HSyF0F98M+C2L5DmVk6l0yypjIspRz7tKQAACgyj0IBgYtYlQTSaChMlZs8/y4ABgjBSyMyYsQzYd3h4UTPIOIcSwMTJyqFmwl2I7BTDSxTkMfQTsZk33bxrC8sJoSVgsj2L9DFh0zy7zM44rgUFt0GkCzAyrrK0NAZhjmXj/wDJSWDBKZtzHqrLaXBtqwFXBg393DXYtAeTnu28E7kFVpeI4445S9WhDqMAq7yw9Gf2IenzGr6/I6+rxGiOb34vgf8AmfM4ZH/mZntCMyu7/wCZn9iHp85q+vyOvq8Rojm4JC0DnO7tO5tO5tO7tO5tO5tO5tO5tO7tO7tO5tO7tO7tO7tO7tO7tO7tO7tO7tO5tO5tO5tO5tO5tO5tO5tO5tO5tO5tO5tO5tO5tO5tO5tO5tO5tO5tO5tO5tO5tO9tO5tGjAVhi2yoKA5TVs9p3tp3tp3tp3tp3tp3tp3tp3tp3tp3tp3tp3tp3tp3tp3tp3tp3tp3tp1nadR2nc2nc2nUdp3Np3Np3Np3Np3Np3Np3Np3Np3Np3Np3Np3Np3Np3Np3Np3Np3Np3Np1HaVKMOsIkqUYdJ3Np3dp13ad/ad/ad3adzadV2nXdp3Np39p3dp39p39p39p39p5id/aeYnmJ5ieYnf2nmJ5ieYnmJ5ieYnmJ5ieYnmJ5id/aeYnmJ13ad/ad/ad/ad/aNWFvtEVc4Hp8xq+vyOvq8Rojm78Eif+WAAAAAAAEDgkr/ywAAAAAAA4VEj/wCUAAAAAAAQHq85q+vyOvq8Rojm8X/iv/8AEH/nHr85q+vyOvq8Rojm9+DLbeU7k7u87s7s7u87u87u87u87u87u87m87m87u87m87m87u87u87u87u87u87u87u87u87u87u87u87u87u87u87u87u87u87u87u87u87u87u87u87+87u87+87u87kSrgCAc5qWzv7zv7zv7zv7zv7zv7zv7zv7zv7zv7zv7zv7zv7zv7zv7zv7zv7zv7zv7zv7zv7zv7zu7zu7zu7zu7zu7zu7zu7zu7zu7zu7zu7zu7zu7zu7zu7zu7zu7zu7zu7zu7yvRw4MrWsJ3d53d53d53d53N53d53N53N53N53N53N53d53N53d53d53N53N53t53t53t53t53t53t53t53t53t53t53t53t53t53t53t53t53t53t53t53t53t53t53t53t53t414WRGXL1eY1fX5HX1eI0RzeDM/v8A+Zl9pceH/wAzOhGZHd/8zM7EPT5DV9fkdfV4jRHN34s3vAwDUNAGbM85GOwXj/myAqiek1k4mHG1G0An8XP4ufxc/i4IlmI/6tDDNnu7z3d57u893ee7vPd3nu7xto8MjtwyP/MzPaEZkd2XJH0wFrGCACGLu0+ePxZVzmCrvld+lBx9ipTghzM8n0LiCRbEWmmlocB4BJzSydadvSgo4PGZGC9wP8lSZRzxespoSjQlGhKNCUaEo0I6ByeGb2Ienzmr6/I6+rxGiObizO88VqhGVT2AEYArHXGGEwhSIrBvEwLKCF2KKMLwpQTLEpIC0IDtZlEoViu4rkPkxUyuQg9otAKxBFSi2zBneeETG/xVQUoZPMQtzUjklLKsFuFEHw24YMIBTkcCtIH3V5ZSo1eCUhZM7+4WESCyDG8Y7juuvZWBeSxDDLi/qkA0Zc3kR3OYSQ59i5Ll+48h8qKnmc7rDQbzIfV6B3QmFt32sYPFQMDa2wKdzu4/9fkO/BKwZivBoOjYp1asQG0IIAwWNXa4We1MA5sCowoqdWjT1hf0WOqpubrVSxFxyho53pWfTh9fDI7cMjt/4WUsxupepL1JepL1JepL1JRzuDYMzPaEZkd2ef1wTcG+GGjbac+bpC62JejGXpG2eMIVq2AaBCxcW7ylobsb9h+SKnf2BLWaQhVVMVowqDGooKyZ3jcFLS6OL1oN2bDlyj+t5o2uGeBwMHC8oImBgtW94FANOUC1d6Z1LmgLLyuBv3fgGIcW3phhL+W9kgrZVhiW8qqOMUO4qwQAmKcLxqU92AjIqq6zIuLAUgRxYByDClgciATwxeDVbd3p06TK+JxllBe481HKGmQCKVc+Q+pdCiU16XmFN17TEfpYr6AZdDNjxQIAHG8SaDJWvSAaQQAC8wrCg8EMnb/HP4OLHcgKjpiBfV1leMLSyZ11mrIzGWOcw4xigc6ncwy7aBMxO4XtUtVEtgX+54YQqABpVusOFm9iHp8Rq+vyOvq8Rojm8GZveWkg1glJA4mMrQUGOOUUtWbGbI3nplAJULnWYUh7VDALSxTy2p1BHeXRXUqx9xVwBhyK1KDPkLCik3PMVtXqCMGJwA4515B0grVtdL1sZVa8ucB4MBlzZOwVE4rZsJTMcaNblLYUUwQtvZoMavinTbNGr4C/sp/ZT+ygp0FB/qVMOWMs1lNTeU1+ZRqkheYwoAUBgEs1JZqQ4ry4ZHbhkcLeKQUyKmPK8coxFYAKsODXZd4XCHWOm9MbySqwvISdFUVHNVnlpL9NgOJdYViPe4gjwALFYiua2NdMS4B4jvbMycAujJOkSRUtXyAeS0I5Yw/GrRbAKVYGN4ukRmsDZWAqaC3O7qpUDwnKWhzHXnwC3IRRrkwETSUCyqNUO2jKqUqYCc1xhQPheu5zw1w5YwBSKLt8jDK8O186ZebkjGz2/wBs3tOUN3MTkcx2wewwMGvA24zptcXQYwcgauxgVgUMKulGJRZFYlvz0gjgsYvoLmSwgpOYA44c+uHLh8aZntCMyO7DvtAWI5jLBmiDqNYTG4m21Y8ystXech60lRcLK3ZdUwpsRUACujV1GlEI0hQ6KGotc35kmvXOV5apsDK7zrrCLQIYkidC3eOJpSDPU6K23rMtcG6GgwQtw6wfWBcbBg8gHKEFagaNL5nRgYhIKsr2ZG0sGXdm+a9XXOZKvSe05xKbWiS7vvgYygfFAVWV6114rquN1Z0e7Oj3YIFxiYv+QsSYmY7T2dp7O09naAVAwAoE9naeztAtkoOGb2IenxGr6/I6+rxGiObize//AJmR24ZHvwSgBzVkDreCYFK7MAgN8ofHwIgrYUpbT1hl1EguWOua3CB6KdGcrWuaDDvRdABQBqs3OPIwYFqqquaqwundxVdKPIlymXvMKU8wauUc5Xp3wLbJZ3zlp+6pgILhZpnnCuFiLaALfbgN9UbGrhQAAGQZfmNqECW3TZz1gYua632bEKS8sbLd58+hDhZYAKAHT/ZLR0hlNKxMF54MCAYiAuNV9YS0rBtcmbgsPmCIACzLbitQUDpMyEZkd/8AzM3sQ9PgNX1+R19XiNEzO/Fm94YYVq5BEMWIoIOdY4YYpnrD0Fnw+epg4/8Ak5Hbhkdv+S7heg5wIy5GoO6YxgNpYKDNymHeHlf/AMpUedCi32qLkTTMf1Sj1wFAhqJBEEyf8FMwnSTpJ0k6SdJOkgDgHDM9oRmR3f8AW8vTjeXpxXA9CuzxVmOrxWffiuBxVJ6Qy4KjDjeA6cc3sQ9PgNX1+R19XiNEc3vwZm94TAFucrJhVWYSdFhrFhl1zj1NAylBavHPGdJtOk2nSbTpNp0m06TadJtOk2nSbTpNp0m06TadJtOk2nSbTpNp0m06TadJtMNxdGGboazzb8QHLsrI3qdJtOk2nSbTpNp0m06TadJtOk2nSbTpNp0m06TadJtOk2nSbTpNoAyA4ZHbhkcFt1qFNOUEbGBNxaoGuWIxrvHC0IkOKrm0TF/EtqltUtqltUtqltUtqltUtqltUtqltUtqltUtqhc44uC05xJkF4MjV5N3G6zKGetvKinLDGOFzChaSKY4CHvlcbZXbsrNY4uKXePBs1kltUtqltUtqltUtqltUtqltUtqltUtqltUtqltXDM9oRmR3fReIFphoaFZSmaslaMoReSDVY4MD2AgGRyWYiN4xxAtDABxUYF6X0ZSF7IAAqrSh+NYV8Nc+GUTegg9+8r+YsiAK6cCk69Iax5DHHOeV8s88KL4AIVRYN1WvedL5dJ0vl0mNdfDpOl8uk6Xy6TGGvl0nS+XSdL5dJUAKqf0Ue8YugEsx1wZOc6Xy6TpfLpAsj5dJ0vl0nS+XSBcvh0nS+XSdL5dIivEGoiVp345vaGXD7jjy9njm9iHp8Bq+vyOvq8RojmxjM3v/wA9DZqXoVb+iZFS45jQ5e8QCAjgjzlsYtDegg+D/iyO3DI7f8lzIA1GCxI8wHehnhH4g0isNutcSBMQBWwdcJ4B+Ih0bxH3Ly/4sz2hGZHd9GGjOHJp+iPeA4p6m1bEW8RKylyyKqCAbVvkbRJSyqj21YrsOQ2YEZoqgB5rKOByCjGBAplFmqp9g+0cCoTAIEW4FBgaQ6gHXYWxVkGtceGbG0xLv+T+On8dMty9H7n8dP46N4Z/RP46fx0HMCP3RNUTSZHLDT2n8dP46Dl/G/c/jp/HQe+W6P3P46fx0fIIKABxze0MuH3HHl7PHN7EPT4DV9fkdfV4jRHNwZm9/wDn8DrHyX04Zvhj/wCLI7cMn/noCOjmK57RqKhmM/8AkzIRmR3f9eftx/Hi/d6Mrj9zxzd3F+7jm9oZcPuOPL2eOb2h6fAavr8jr6vEaI5vBmb3jJEVBWcHdgDwB4AHlWL94nZbDsLiJjp5hLaviW1fEtq+JbV8S2r4ltXxLaviILQYS2r4ltXxLaviW1fEtq+JbV8S2r4ltXxLaviW1fEtq+IHOf8A1gc/mx9ktq+IW+L/AOuW1fEtq+JbV8S2r4ltXxLaviW1fEtq+JbV8S2r4ltXxLaviW1fEtq+JbV8QEzV4ZHbhkcMqinkHV6RYsbIF4hVcs3LHKYmIIFWIfZXPGXoN5eg3l6DeXoN5eg3l6DeXoN5eg3l6DeXoN5eg3l6DeXoN5eg3l6DeXoN5eg3l6DeXx/JZbBP6MvQby9BvL0G8vQby9BvL0G8vQby9BvL0G8vQby9BvL0G8vQby9BvL0G8qNBAVczyQNMvQb8Mz2hGZHd/wAU41ocRkWlOxhsVcVVds1MNdEqdE/FFKKcxJ7uCY0sSLy0n9zP7mf3M/uZ/cz+5jLK1Yi/ZE8S1liwqnFq0bq4pXWSVNNQP9mf3M/uZ/Vz+5n9zF/kbM2mvxxfu45vaGXD7jjy9njm9iHp8Jq+vyOvq8Rojm4s3v8A5/c+/wDTwOsUcW0XYw7msrRVXM3wx+g2Ja1jF1Qv/XK7cMngllMBqipsw5wBdAW21z4PwzFwGM3aMX3/AODx2rPKav8AwfL/AHPkPvjme0IzI7v+KqQxAuzR6YwQNhIWhst50wMkxQBQ3d97x4PYBdwWf8ni/wDieL/4mU0eMp4v/ieL/wCI1Dm8coKtF1P/AJjAomWBU8H/AMRRfhtPF/8AE8X/AMRRfhtPF/8AE8X/AMTIbIXxfu45vaGXD7jjy9njm9oenwmr6/I6+rxGiObxZvf/AD+59/6eB1g8nTPB6EzfDH6PE6T4b/XK7cMj1fJT733/AMHjtWeU1f8ALG2l0BC4U5X6fl/ufIffHMhGZHd/1UMbWE6hvOobzUmWs6hvOobxzA3nUN51DedQ3jsVx+545u7i/dxze0MuH3HHl7PHN7EPT4TV9fkdfV4jRHN4s3vFTIAZvKHG30wIRoEacLWc3piUnTUVdUtt9xaZN40uXiZsvQ3l6G8vQ3l6G8vQ3j9059ZehvL0N5ehvL0N5ehvL0N5ehvL0N5ehvL0N5ehvFknd6wXlY/hy+AX39CO35HXL0N5ehvL0N4vyDpDFTEKl6G8vQ3hMKu6NdJrL0N5ehvL0N5ehvAJObWEFF03gvMr34ZHacpkcUAhcWTAYnXOETKbEbLpwyyyleuzA5ublD5nPl1leuzK9dmV67MqzvaC5W7SvXZleuzK9dmV67Mr12ZXrsyvXZleuzK9dmV67Md1+SxBb4LK9dmV67Mr12ZXrsyvXZleuzK9dmV67Mr12YTn+3owOf7JXrsyvXZleuzK9dmF7vl1gc7NyleuzwzPaEZkd3/FBcC4hEAzOZcp7fTkFB2x70DC6mAxrwLBzDJoCm3PlGlSmP4zqN51G86jeJAtW1Q4xWeLcjBMssQLxlPjRVxTyZ1G86jedRvFKarEwu8+P3PHN3cX7uOb2hlw+448vZ45naHp8Jq+vyOvq8Rojm8Wb34BgDFYpg6kXSitBVvWOUK9UJlDE5JfpY7MF8zmpuvSqQzpjWla5vT4HWDydM8HoTN8Mfo8TpPqfXoT4x6flz43HK7cMnjYIWwCDENOpZHjIGIaLoNDF4fJT7336EhpzNxtLDJ/n47VnlNX/Lz+j6g+X+58h98cz2hGZHd/1JTTeJhec8V/c8V/cy3L6/ueK/ueK/uNY+39zxX9zxX9zxX9w20uZ8fueObu4v3cc3tDLh9xx5ezxz+xD0+E1fX5HX1eI0RzeDM3v6HLhT4Xp8BrPven5aeJ09PgdYPJ0zwehM3wx+jxOk+p9ehPjHCzJmHH5cDvtD245Hbhk9vV8lPvffo+F/M+A/z8dqzymr/l5/R9QfL/AHPkPvjmQjMju/6opJrUqea/qea/qZ7k9f1PNf1PNf1Gs/b+p5r+pltSTDhlcfueObu4v3cc3tDLh9xx5ezxzuxD0+A1fX5HX1eI0RzeDM3vFZRaLoMWUoK9swVN545MDGF2mWUq6rPc5xqzhZsM9cp1p1p1p1oGZ7E5pzTrTrRWU5GE60zXzQM7wTrTrTrTrTMX9YEu8axhZ5oh3x/pnWnWnWgZnglM7k+p1p1oGdGeuROtM5a/c6060HP5wzHkfUA5cMjtwyfQyqdCynggaI2hSwrP79AU0ZGM1D/mAwaams8WYxMFfK7f8irhl+LEaxz9IS8c/wBwpcVi/fHMhGZHrGJZRxmEBXUdIYk51ZCkRg89G5UMg5sC2HcGrzgZgKrUIGUYNC6jOrh2Ny6pCYFewFuHOFahccvtP5k/mQYcJoiVeMDgAuF6554dtYKmMcwwvCfzJ/Mh3DEsqzDHhlcfueObu4v3cc3tDLh9xx5ezxzu0PT5DV9fkdfV4jRHN4s3vBYWllWZkssFhUWFFFrG0u8+sXNqUCsF3R0tjlwp8KMdmCzCTd1hx8BrPvcEEEC5F5z7H3w+WnidPT4HWDydM8HoTN8Mfo8TpPqfXFDQnMT4xw+198flw+E+uOV24ZPb0UAoMJaOL1xnjsUWq6pNP5547PHZ47FilTRuIWF6E8dnjs8dnjsFFbC8ZUkogRVnjs8dnjs8dgAEGWNW85ueoVPHZ47PHZ47MTvJJFqufvAYuyRmk0xnjs8dnjsXKVNG4OsXYnjs8dnjs8diq1XVJWUCe88dgAAUBRMyEZkf60PtlGhKNCUcplKNCUaEQyCUaHHK4/c8c3dxfu45vaGXD7jjy9njndoenymr6/I6+rxGiObwZn9/Q5cKfCnyEz+7j4DWfe4fX+59z74fLTxOnp8DrB5OmeD0Jm+GPgARFt+HidJ9T64fMT7H1PjHD7X3x+XD4T645Xbhlf8ADmdk+J+/876yAzF1+oWbkvDa6f7ZntCMyOOFdMesEckYIgjYwSqDeWOcpS2YZ45TOKBa1LKGyuKzQFYjdZ5Tyfonk/RMxo8MJ5P0TyfohPj2HP0ZXH7njm7uL93HN7Qy4fcceXs8c7tD0+U1fX5HX1eI0RzeLP78FQIqHDiMzvFF7QBt1jlwp8KfIQ+ulf1FYdTh4DWfe4fX+59z74fLTxOnp8DrB5OmeD0Jm+GPh8s/PDxOk+p9cPmJ9j6nxjhgZdC+YtsBusOHy4fCfXHK7cMv/hzOyfE/f+N8k0lC9DWf3X6iEDawbtfEKHdmil5/M/uv1LAU8zentUA0EQ5n+ed7QjMjgw6dKvbKrR3iXEpOYpiW5HJkNXKyDoZzVVusVxcNcFi2kEHYE4WI5MQ7SoNsbTwNlsk49DQ3BqYaolosoFZIFeME1MuGuwjQQXEq3W4Z5bQLxaLWgywyyItQoFpcw1i8rcFXjZkxDz1KJy5KvhhibexrKf0c/oYBVcY5i4C2chXbFn9HP6OY81qKaVT0ZXH7njm7uL93HN7Qy4fcceXs8c7tD0+U1fX5HX1eI0RzeDM3vwtMUWso5jVxR8pgtNi1t0zia57wvykL2tYPMzc5T3HPpD52Rzleu8D8hA3Ocr13hbfPrC3OfWV67wefm5wud7ukr13leu8r13leu8D8z1gCrxrCNnmiHf7OuKAs53A9/WV67wv3Okp7Tn0leu8PnZufSU9zz6Q+dkc5XrvA/IdYG55yvXeB7+sB7Jz6QAy4ZXbhk9uGIquW2EHXdW0p8tq7IRwMLm2ddhzZe8r+Er+Er+Er+Er+Er+Er+Er+Er+Er+Er+Er+ERiXScoEA405dZX8JX8JX8JX8JX8JX8JX8JX8JjRzt98MKJEAGNIrRyXnBVABuKXAwaVyzYpZJC3VcLug5OqV/CV/CV/CV/CV/CV/CV/CV/CV/Dhne0IzI7/wCvP24/jxfu9GVx+545u7i/dxze0MuH3HHl7PHO7EPT5TV9fkdfV4jRHN4Mz+/ocuFPhT5CfY+p8Y4eA1n3uH1/ufc++Hy0pAtrj2lwcweAyApmXjw8DrB5OmeD0Jm+GOfEPzPln54eJ0n1Prh8xPsfU+McPAaz7HD5cPhPrjlduGV2/wCGrwYE2Aeh/i7PQW0Hkk/vIuFXKv5CrrpCY+dtObJKjVotV2sMFjzqHuwMWKF1c3/POhGZHfgpLFq0XpnAQNaZQ1o7kEMyhEL7wEghYjYnoRQZBcXt6Fie5QOXd6zwj8zzb8zOcrwxizWBK5cH7vRlcfueObu4v3cc3tDLh9xx5ezxzu0PT5TV9fkdfV4jRHN4s/v6HLhT4U+Qn2PqfGOHgNZ97h9f7n3Pvh8tM7xlPgOHSBMYACNYTwOsHk6Z4PQmb4Y58Q/M+Wfnh4nSfU+uHzE+x9T4xw8BrPscPlw+E+uOV24ZPb/zM6EZkd44ktzCposUiwmBZDWAtS/FDtorOtbi9CJRRq7GZTliMUBml5z1WAbVi8uttFgko4FYsSlMMDOsImCorx6pcC86WXg3zRZYg2PIHKyzDEz6ENFM5QaLWJmF44OWdkYsgEnQgMOgMuhBUnlewLKm1jBrk548Cxp9BdRKWBukMYlQjFGZcy+Q0bzHr4CB4AgDk8H7vRlcfueObu4v3cc3tDLh9xx5ezxzuxD0+U1fX5HX1eI0RzeLP78UtA5lY28XKqywynYbykLEN6SgI0Z3GSBSs5hKrMSFAKMOsvQbwC2YErS5lm43dy9BvLGBpvOXiHRL0G8CKGJWcCVV5kFMMCs5eg3hjQw1WkyEbbu5S1A3OAipfe/iBsixRyUpb9pmVFZcqAObAQxKrZWrXzLgGBlHHBtrL0G8MWKN3L44wVVy9BvKmBZWcwlVmJCgFGHWXoN4BaMCVpcyzcbu5eg3l5CjcwNzAqoXzDfhlduGTwpACg2po9UyJWgjNbAkYLwxXHG6NY+MAKrYVKcccs8JTrsynXZleuzKddpXrtK9dpXrtOt8TrfE606060606xOknSTpN50k6TedJvOk3nSbzoN50G86DedBvOg3lNTedQ3lNSWaks1JZqSzWWayzX0Z0IzI7/68/bj+PF+70ZXH7njm7uL93HN7Qy4fcceXs8c7sQ9PkNX1+R19XiNEc3iz+/8AzoBEEcxn81OsjhH/AI8rtwy+3BEAhSJYkGIh0AxakTa7tAW1f+ipRpKNJRoSjQlGhKNCU0JTQ2nQNp0G06DadBtOg2nSbcM6EZl/6oW8fZldd0rrulbu3eV13Suu6V1d5XXdK67pXXdAmS7yuu6V13Spku8rruldd0qc3eV13Suu6V1d5XXdK67pV5u8rruldd0S83eV13Suu6AG8b6vHO7Q9PkNX1+R19XiNEc3gzP7+hykaQsV8sCFFWrLgQW8my3N9spgkmhVY61Pu4V1hUacoLa9bvFuqK5mLDikMSTWJXR58EaooVl6Pb9GqKwomlRy1mGry5cDXFYkKWGbPDJqEohW8/YDUaxdeuEdxtGAr92XeoJBcQLCgrDQumI48oxBdAdMH5GulcB8QBZrQVpd45dYmhshzpQNqeC6wqxkpcRrheXWJogQVRTlwslhgVQAUGOIr2IIYUki8a15OBh++FCrrAqLCscjpYmdwIlErHAqMMcjEv5ljhKXJrEnQ5hzVzrrV1Bht6COFOItXmOUdEcd5a1VqVWPCkohmMYlJzoxP/kSAVtYwUBOS4cGE2YYirrDfCONcG2G2qVmo1zjRtYLdMe3LhlduGT6QRKAtXlHCBtMEQGfOmu4y2Kx4cUGr6ZehgQjLysIgAOoxLiva12iphePIwp97+H0Jclih54h+YCsiBUoRY7pcNSF6Pos7lAHnYPzDLKuDaCIPSO8gdkUDlktyLartqYUsNXBh6MEQgsWLaxpsOtOOko8TZ5CXzM+nzAMySzjUGI9ai4ism6qzUVXTDWOFjVWsOOfCMy+/wDry6F7Cahw5ftwvhZ1hBEbACpRmBzvCv1DLGJggQC2F84YaaWBlBGGF211jnqhxFKXgvtXBBwpg0chROBduWOwmsgqsb1tR7sO3ASvFUbxHBmxNc6mGClajkWOGNF6a8uFxkKQvANWUt2mzBaGC0jBQvGmFPTnpxxkXBbC2OBaFDrDEHgeLrKMF4q1i8gjjawUpMDPvnhhjwetS7HHmHEquV3mwTQLACU6Y6RiEgUGb0jgkqACxX2xDd453aHp8pq+vyOvq8Rojm8GZ/f/AHAUADkegAAAGQf4qhKSiqhpfFBRQUy6f65Xbhl+lBAESkecENqUEgBQAZ4ehAIgjgjEghzEN+UbQaKwDIC6Dd39CaTdoG2pHixWolvjAAAAGAHobRtoG2ppFyFbUC30q3bW24Zsyn3ADl06cvRlvXBezSIHHLVaVrFNcPTjhZbUUutRMZiQVffjnwjMvv8A+Zndoenymr6/I6+rxGiObwZiRyngJ5CeQngJ5CeQnkJ5CeQnkJ5CeQnkJ5CeQnkJ5CeQnkJ5CeQngJ5CeQnkJ5CeQnkJ5CeAnkJ4CeAngJ5CeQnkJ5CeQnkJ5CeQnV+JiXLlwGgQ1a9p5CeQnkJ5CeQnkJ5CeQnkJ5CeQnkJ5CeQnkJ5CeQnkJ5CeQnkJ5CeQnkJ5CeQnkJ5CeQngJ4CeQnkJ4CeQnkJ4CeQnkJ5CeQnkIZ5HNgRIZ5Gs8hPITzE8RPITzE8hPITyE8BPATyE8hPITyE8hPITyE8hPITyE8hPITwE8RPETyE8RPETxE8BPATxE8RPETxE8RPETxE8RPETwEws/iI8Hp8hq+vyOvq8Rojm8KiR/8AKAAAAAAAqBwSJ/5QAAAAAACAgcE/8sAAAAAAAgPV5DV9fkdfV4jRHN9FSpUqVKlSpUqVKlSpUqVKlSpUqVKlSpUqVKlSpUqVKlSpUqVKlSuNSpUqVKlSpUqVKlSpUqVKlSpUqVKlSpUqVKlSpUqVKlSpUqVKlSuNSpUqVKlSpUqVKlSpUqVKlSpUqVKlSpUqVKlSpUqVKlSpUqVKlSvX5DV9fkdfV4jRHN//AIl5DV9fkdfV4jRHN/8A4l5DV9aCxDq7zoN50G86DedBvOg3iSkCKvRGzyt54V+Z4V+Z4V+Z4V+Z4V+Z4V+Z4V+Z4V+Z4V+Z4V+Z4V+Z4V+Z4V+Z4V+Z4V+Z4V+Z4V+Z4V+Z4V+Z4V+Z4V+Z4V+Z4V+Z4V+Z4V+Z4V+Z4V+Z4V+Z4V+Z4V+Z4d+Z4d+Z4V+Z4V+Z4V+Z4V+Z4V+Z4V+Z4V+Z4V+Z4V+Z4V+Z4V+Z4V+Z4V+Z4V+Z4V+Z4V+Z4d+Z4V+Z4V+Z4V+Z4V+Z4d+Z4V+Z4V+Z4V+Z4d+Z4V+Z4d+Z4V+Z4V+Z4V+Z4V+Z4V+Z4V+Z4V+Z4V+Z4V+Z4V+Z4V+Z4V+Z4V+Z4V+Z4V+Z4V+Z4V+Z4V+Z4V+Z4V+Z4V+Z4V+Z4V+Z4V+Z5V+Z5V+Z4X+Z4V+Z4V+Z4V+Z4V+Z4V+Z4V+Z4V+Z4V+Z4V+Z4V+Z4V+Z4X+Z5V+Z5V+Z5V+Z5V+Z4X+Z5V+Z5V+Z5X+Z5X+Z5V+Z5V+Z5X+Z5X+Z5V+Z5V+Z5V+Z5V+Z5X+Z4X+Z5V+Z5X+Z5X+Z5X+Z5X+Z5X+Z5X+Z5X+Z5X+Z5X+Z5X+Z5X+Z5X+Z5X+Z5X+Z5X+Z5X+Z5X+Z5X+Z5X+Z5X+Z5X+Z5X+Z5X+Z5X+Z5X+Z5X+ZaCZZM3kP/wDkT//+AAMA/9k=;" vertex="1" parent="1">
          <mxGeometry x="-140" y="-10" width="1280" height="717" as="geometry" />
        </mxCell>
        <mxCell id="io2R__9q3RlM0f0uN4B4-3" value="" style="endArrow=classic;html=1;rounded=0;strokeWidth=4;edgeStyle=entityRelationEdgeStyle;exitX=0.586;exitY=0.084;exitDx=0;exitDy=0;exitPerimeter=0;entryX=0.406;entryY=0.112;entryDx=0;entryDy=0;entryPerimeter=0;" edge="1" parent="1" source="io2R__9q3RlM0f0uN4B4-1" target="io2R__9q3RlM0f0uN4B4-1">
          <mxGeometry width="50" height="50" relative="1" as="geometry">
            <mxPoint x="470" y="370" as="sourcePoint" />
            <mxPoint x="520" y="320" as="targetPoint" />
            <Array as="points">
              <mxPoint x="480" y="40" />
            </Array>
          </mxGeometry>
        </mxCell>
        <mxCell id="io2R__9q3RlM0f0uN4B4-4" value="Text" style="text;html=1;align=center;verticalAlign=middle;resizable=0;points=[];autosize=1;strokeColor=none;fillColor=none;" vertex="1" parent="1">
          <mxGeometry x="285" y="778" width="50" height="30" as="geometry" />
        </mxCell>
      </root>
    </mxGraphModel>
  </diagram>
</mxfile>
